G04 #@! TF.GenerationSoftware,KiCad,Pcbnew,5.0.2-bee76a0~70~ubuntu18.04.1*
G04 #@! TF.CreationDate,2020-05-13T22:05:11-07:00*
G04 #@! TF.ProjectId,auto-chicken-coop-door,6175746f-2d63-4686-9963-6b656e2d636f,rev?*
G04 #@! TF.SameCoordinates,Original*
G04 #@! TF.FileFunction,Copper,L2,Bot*
G04 #@! TF.FilePolarity,Positive*
%FSLAX46Y46*%
G04 Gerber Fmt 4.6, Leading zero omitted, Abs format (unit mm)*
G04 Created by KiCad (PCBNEW 5.0.2-bee76a0~70~ubuntu18.04.1) date Wed 13 May 2020 10:05:11 PM PDT*
%MOMM*%
%LPD*%
G01*
G04 APERTURE LIST*
G04 #@! TA.AperFunction,ComponentPad*
%ADD10R,1.700000X1.700000*%
G04 #@! TD*
G04 #@! TA.AperFunction,ComponentPad*
%ADD11O,1.700000X1.700000*%
G04 #@! TD*
G04 #@! TA.AperFunction,Conductor*
%ADD12C,0.100000*%
G04 #@! TD*
G04 #@! TA.AperFunction,ComponentPad*
%ADD13C,1.700000*%
G04 #@! TD*
G04 #@! TA.AperFunction,ComponentPad*
%ADD14O,1.700000X2.000000*%
G04 #@! TD*
G04 #@! TA.AperFunction,ComponentPad*
%ADD15C,1.400000*%
G04 #@! TD*
G04 #@! TA.AperFunction,ComponentPad*
%ADD16O,1.400000X1.400000*%
G04 #@! TD*
G04 #@! TA.AperFunction,ComponentPad*
%ADD17C,2.000000*%
G04 #@! TD*
G04 #@! TA.AperFunction,ComponentPad*
%ADD18R,1.905000X2.000000*%
G04 #@! TD*
G04 #@! TA.AperFunction,ComponentPad*
%ADD19O,1.905000X2.000000*%
G04 #@! TD*
G04 #@! TA.AperFunction,ComponentPad*
%ADD20C,1.508000*%
G04 #@! TD*
G04 #@! TA.AperFunction,ViaPad*
%ADD21C,0.800000*%
G04 #@! TD*
G04 #@! TA.AperFunction,Conductor*
%ADD22C,0.250000*%
G04 #@! TD*
G04 APERTURE END LIST*
D10*
G04 #@! TO.P,J1,1*
G04 #@! TO.N,Net-(J1-Pad1)*
X194945000Y-90170000D03*
D11*
G04 #@! TO.P,J1,2*
G04 #@! TO.N,Net-(J1-Pad2)*
X194945000Y-92710000D03*
G04 #@! TO.P,J1,3*
G04 #@! TO.N,Net-(J1-Pad3)*
X194945000Y-95250000D03*
G04 #@! TO.P,J1,4*
G04 #@! TO.N,Net-(J1-Pad4)*
X194945000Y-97790000D03*
G04 #@! TO.P,J1,5*
G04 #@! TO.N,Net-(J1-Pad5)*
X194945000Y-100330000D03*
G04 #@! TO.P,J1,6*
G04 #@! TO.N,Net-(J1-Pad6)*
X194945000Y-102870000D03*
G04 #@! TD*
D12*
G04 #@! TO.N,Net-(J9-Pad1)*
G04 #@! TO.C,J9*
G36*
X186679504Y-112666204D02*
X186703773Y-112669804D01*
X186727571Y-112675765D01*
X186750671Y-112684030D01*
X186772849Y-112694520D01*
X186793893Y-112707133D01*
X186813598Y-112721747D01*
X186831777Y-112738223D01*
X186848253Y-112756402D01*
X186862867Y-112776107D01*
X186875480Y-112797151D01*
X186885970Y-112819329D01*
X186894235Y-112842429D01*
X186900196Y-112866227D01*
X186903796Y-112890496D01*
X186905000Y-112915000D01*
X186905000Y-114415000D01*
X186903796Y-114439504D01*
X186900196Y-114463773D01*
X186894235Y-114487571D01*
X186885970Y-114510671D01*
X186875480Y-114532849D01*
X186862867Y-114553893D01*
X186848253Y-114573598D01*
X186831777Y-114591777D01*
X186813598Y-114608253D01*
X186793893Y-114622867D01*
X186772849Y-114635480D01*
X186750671Y-114645970D01*
X186727571Y-114654235D01*
X186703773Y-114660196D01*
X186679504Y-114663796D01*
X186655000Y-114665000D01*
X185455000Y-114665000D01*
X185430496Y-114663796D01*
X185406227Y-114660196D01*
X185382429Y-114654235D01*
X185359329Y-114645970D01*
X185337151Y-114635480D01*
X185316107Y-114622867D01*
X185296402Y-114608253D01*
X185278223Y-114591777D01*
X185261747Y-114573598D01*
X185247133Y-114553893D01*
X185234520Y-114532849D01*
X185224030Y-114510671D01*
X185215765Y-114487571D01*
X185209804Y-114463773D01*
X185206204Y-114439504D01*
X185205000Y-114415000D01*
X185205000Y-112915000D01*
X185206204Y-112890496D01*
X185209804Y-112866227D01*
X185215765Y-112842429D01*
X185224030Y-112819329D01*
X185234520Y-112797151D01*
X185247133Y-112776107D01*
X185261747Y-112756402D01*
X185278223Y-112738223D01*
X185296402Y-112721747D01*
X185316107Y-112707133D01*
X185337151Y-112694520D01*
X185359329Y-112684030D01*
X185382429Y-112675765D01*
X185406227Y-112669804D01*
X185430496Y-112666204D01*
X185455000Y-112665000D01*
X186655000Y-112665000D01*
X186679504Y-112666204D01*
X186679504Y-112666204D01*
G37*
D13*
G04 #@! TD*
G04 #@! TO.P,J9,1*
G04 #@! TO.N,Net-(J9-Pad1)*
X186055000Y-113665000D03*
D14*
G04 #@! TO.P,J9,2*
G04 #@! TO.N,Net-(J9-Pad2)*
X188555000Y-113665000D03*
G04 #@! TD*
G04 #@! TO.P,J11,2*
G04 #@! TO.N,GND*
X139025000Y-113665000D03*
D12*
G04 #@! TD*
G04 #@! TO.N,Net-(J10-Pad1)*
G04 #@! TO.C,J11*
G36*
X137149504Y-112666204D02*
X137173773Y-112669804D01*
X137197571Y-112675765D01*
X137220671Y-112684030D01*
X137242849Y-112694520D01*
X137263893Y-112707133D01*
X137283598Y-112721747D01*
X137301777Y-112738223D01*
X137318253Y-112756402D01*
X137332867Y-112776107D01*
X137345480Y-112797151D01*
X137355970Y-112819329D01*
X137364235Y-112842429D01*
X137370196Y-112866227D01*
X137373796Y-112890496D01*
X137375000Y-112915000D01*
X137375000Y-114415000D01*
X137373796Y-114439504D01*
X137370196Y-114463773D01*
X137364235Y-114487571D01*
X137355970Y-114510671D01*
X137345480Y-114532849D01*
X137332867Y-114553893D01*
X137318253Y-114573598D01*
X137301777Y-114591777D01*
X137283598Y-114608253D01*
X137263893Y-114622867D01*
X137242849Y-114635480D01*
X137220671Y-114645970D01*
X137197571Y-114654235D01*
X137173773Y-114660196D01*
X137149504Y-114663796D01*
X137125000Y-114665000D01*
X135925000Y-114665000D01*
X135900496Y-114663796D01*
X135876227Y-114660196D01*
X135852429Y-114654235D01*
X135829329Y-114645970D01*
X135807151Y-114635480D01*
X135786107Y-114622867D01*
X135766402Y-114608253D01*
X135748223Y-114591777D01*
X135731747Y-114573598D01*
X135717133Y-114553893D01*
X135704520Y-114532849D01*
X135694030Y-114510671D01*
X135685765Y-114487571D01*
X135679804Y-114463773D01*
X135676204Y-114439504D01*
X135675000Y-114415000D01*
X135675000Y-112915000D01*
X135676204Y-112890496D01*
X135679804Y-112866227D01*
X135685765Y-112842429D01*
X135694030Y-112819329D01*
X135704520Y-112797151D01*
X135717133Y-112776107D01*
X135731747Y-112756402D01*
X135748223Y-112738223D01*
X135766402Y-112721747D01*
X135786107Y-112707133D01*
X135807151Y-112694520D01*
X135829329Y-112684030D01*
X135852429Y-112675765D01*
X135876227Y-112669804D01*
X135900496Y-112666204D01*
X135925000Y-112665000D01*
X137125000Y-112665000D01*
X137149504Y-112666204D01*
X137149504Y-112666204D01*
G37*
D13*
G04 #@! TO.P,J11,1*
G04 #@! TO.N,Net-(J10-Pad1)*
X136525000Y-113665000D03*
G04 #@! TD*
D12*
G04 #@! TO.N,Net-(J10-Pad1)*
G04 #@! TO.C,J10*
G36*
X177154504Y-112666204D02*
X177178773Y-112669804D01*
X177202571Y-112675765D01*
X177225671Y-112684030D01*
X177247849Y-112694520D01*
X177268893Y-112707133D01*
X177288598Y-112721747D01*
X177306777Y-112738223D01*
X177323253Y-112756402D01*
X177337867Y-112776107D01*
X177350480Y-112797151D01*
X177360970Y-112819329D01*
X177369235Y-112842429D01*
X177375196Y-112866227D01*
X177378796Y-112890496D01*
X177380000Y-112915000D01*
X177380000Y-114415000D01*
X177378796Y-114439504D01*
X177375196Y-114463773D01*
X177369235Y-114487571D01*
X177360970Y-114510671D01*
X177350480Y-114532849D01*
X177337867Y-114553893D01*
X177323253Y-114573598D01*
X177306777Y-114591777D01*
X177288598Y-114608253D01*
X177268893Y-114622867D01*
X177247849Y-114635480D01*
X177225671Y-114645970D01*
X177202571Y-114654235D01*
X177178773Y-114660196D01*
X177154504Y-114663796D01*
X177130000Y-114665000D01*
X175930000Y-114665000D01*
X175905496Y-114663796D01*
X175881227Y-114660196D01*
X175857429Y-114654235D01*
X175834329Y-114645970D01*
X175812151Y-114635480D01*
X175791107Y-114622867D01*
X175771402Y-114608253D01*
X175753223Y-114591777D01*
X175736747Y-114573598D01*
X175722133Y-114553893D01*
X175709520Y-114532849D01*
X175699030Y-114510671D01*
X175690765Y-114487571D01*
X175684804Y-114463773D01*
X175681204Y-114439504D01*
X175680000Y-114415000D01*
X175680000Y-112915000D01*
X175681204Y-112890496D01*
X175684804Y-112866227D01*
X175690765Y-112842429D01*
X175699030Y-112819329D01*
X175709520Y-112797151D01*
X175722133Y-112776107D01*
X175736747Y-112756402D01*
X175753223Y-112738223D01*
X175771402Y-112721747D01*
X175791107Y-112707133D01*
X175812151Y-112694520D01*
X175834329Y-112684030D01*
X175857429Y-112675765D01*
X175881227Y-112669804D01*
X175905496Y-112666204D01*
X175930000Y-112665000D01*
X177130000Y-112665000D01*
X177154504Y-112666204D01*
X177154504Y-112666204D01*
G37*
D13*
G04 #@! TD*
G04 #@! TO.P,J10,1*
G04 #@! TO.N,Net-(J10-Pad1)*
X176530000Y-113665000D03*
D14*
G04 #@! TO.P,J10,2*
G04 #@! TO.N,GND*
X179030000Y-113665000D03*
G04 #@! TD*
D15*
G04 #@! TO.P,R1,1*
G04 #@! TO.N,VCC*
X174187831Y-77562341D03*
D16*
G04 #@! TO.P,R1,2*
G04 #@! TO.N,D5*
X174187831Y-85182341D03*
G04 #@! TD*
G04 #@! TO.P,R2,2*
G04 #@! TO.N,D3*
X177997831Y-85182341D03*
D15*
G04 #@! TO.P,R2,1*
G04 #@! TO.N,VCC*
X177997831Y-77562341D03*
G04 #@! TD*
G04 #@! TO.P,R3,1*
G04 #@! TO.N,VCC*
X181807831Y-77562341D03*
D16*
G04 #@! TO.P,R3,2*
G04 #@! TO.N,D4*
X181807831Y-85182341D03*
G04 #@! TD*
D17*
G04 #@! TO.P,J8,1*
G04 #@! TO.N,Net-(J8-Pad1)*
X194945000Y-115570000D03*
G04 #@! TD*
D10*
G04 #@! TO.P,U2,1*
G04 #@! TO.N,Net-(U2-Pad1)*
X213360000Y-116205000D03*
D11*
G04 #@! TO.P,U2,2*
G04 #@! TO.N,Net-(U1-PadD2)*
X210820000Y-116205000D03*
G04 #@! TO.P,U2,3*
G04 #@! TO.N,SCL*
X208280000Y-116205000D03*
G04 #@! TO.P,U2,4*
G04 #@! TO.N,SDA*
X205740000Y-116205000D03*
G04 #@! TO.P,U2,5*
G04 #@! TO.N,VCC*
X203200000Y-116205000D03*
G04 #@! TO.P,U2,6*
G04 #@! TO.N,GND*
X200660000Y-116205000D03*
G04 #@! TD*
D10*
G04 #@! TO.P,U3,1*
G04 #@! TO.N,Net-(J9-Pad1)*
X136525000Y-85090000D03*
D11*
G04 #@! TO.P,U3,2*
G04 #@! TO.N,VCC*
X136525000Y-87630000D03*
G04 #@! TO.P,U3,3*
G04 #@! TO.N,Net-(J9-Pad2)*
X136525000Y-90170000D03*
G04 #@! TO.P,U3,4*
G04 #@! TO.N,Net-(M1-Pad1)*
X136525000Y-92710000D03*
G04 #@! TO.P,U3,5*
G04 #@! TO.N,Net-(M1-Pad2)*
X136525000Y-95250000D03*
G04 #@! TO.P,U3,6*
G04 #@! TO.N,Net-(U3-Pad6)*
X136525000Y-97790000D03*
G04 #@! TO.P,U3,7*
G04 #@! TO.N,Net-(U3-Pad7)*
X136525000Y-100330000D03*
G04 #@! TO.P,U3,8*
G04 #@! TO.N,GND*
X136525000Y-102870000D03*
G04 #@! TO.P,U3,10*
G04 #@! TO.N,Net-(U1-PadD8)*
X151525000Y-87630000D03*
G04 #@! TO.P,U3,12*
G04 #@! TO.N,Net-(U1-PadD6)*
X151525000Y-92710000D03*
G04 #@! TO.P,U3,13*
G04 #@! TO.N,Net-(U3-Pad13)*
X151525000Y-95250000D03*
G04 #@! TO.P,U3,11*
G04 #@! TO.N,Net-(U1-PadD7)*
X151525000Y-90170000D03*
D13*
G04 #@! TO.P,U3,9*
G04 #@! TO.N,Net-(U1-PadD9)*
X151525000Y-85090000D03*
D11*
G04 #@! TO.P,U3,15*
G04 #@! TO.N,Net-(U3-Pad15)*
X151525000Y-100330000D03*
G04 #@! TO.P,U3,14*
G04 #@! TO.N,Net-(U3-Pad14)*
X151525000Y-97790000D03*
G04 #@! TO.P,U3,16*
G04 #@! TO.N,Net-(U3-Pad16)*
X151525000Y-102870000D03*
G04 #@! TD*
D15*
G04 #@! TO.P,R4,1*
G04 #@! TO.N,Net-(Q1-Pad1)*
X170377831Y-77562341D03*
D16*
G04 #@! TO.P,R4,2*
G04 #@! TO.N,D10*
X170377831Y-85182341D03*
G04 #@! TD*
D12*
G04 #@! TO.N,Net-(M1-Pad1)*
G04 #@! TO.C,M1*
G36*
X149214504Y-78376204D02*
X149238773Y-78379804D01*
X149262571Y-78385765D01*
X149285671Y-78394030D01*
X149307849Y-78404520D01*
X149328893Y-78417133D01*
X149348598Y-78431747D01*
X149366777Y-78448223D01*
X149383253Y-78466402D01*
X149397867Y-78486107D01*
X149410480Y-78507151D01*
X149420970Y-78529329D01*
X149429235Y-78552429D01*
X149435196Y-78576227D01*
X149438796Y-78600496D01*
X149440000Y-78625000D01*
X149440000Y-80125000D01*
X149438796Y-80149504D01*
X149435196Y-80173773D01*
X149429235Y-80197571D01*
X149420970Y-80220671D01*
X149410480Y-80242849D01*
X149397867Y-80263893D01*
X149383253Y-80283598D01*
X149366777Y-80301777D01*
X149348598Y-80318253D01*
X149328893Y-80332867D01*
X149307849Y-80345480D01*
X149285671Y-80355970D01*
X149262571Y-80364235D01*
X149238773Y-80370196D01*
X149214504Y-80373796D01*
X149190000Y-80375000D01*
X147990000Y-80375000D01*
X147965496Y-80373796D01*
X147941227Y-80370196D01*
X147917429Y-80364235D01*
X147894329Y-80355970D01*
X147872151Y-80345480D01*
X147851107Y-80332867D01*
X147831402Y-80318253D01*
X147813223Y-80301777D01*
X147796747Y-80283598D01*
X147782133Y-80263893D01*
X147769520Y-80242849D01*
X147759030Y-80220671D01*
X147750765Y-80197571D01*
X147744804Y-80173773D01*
X147741204Y-80149504D01*
X147740000Y-80125000D01*
X147740000Y-78625000D01*
X147741204Y-78600496D01*
X147744804Y-78576227D01*
X147750765Y-78552429D01*
X147759030Y-78529329D01*
X147769520Y-78507151D01*
X147782133Y-78486107D01*
X147796747Y-78466402D01*
X147813223Y-78448223D01*
X147831402Y-78431747D01*
X147851107Y-78417133D01*
X147872151Y-78404520D01*
X147894329Y-78394030D01*
X147917429Y-78385765D01*
X147941227Y-78379804D01*
X147965496Y-78376204D01*
X147990000Y-78375000D01*
X149190000Y-78375000D01*
X149214504Y-78376204D01*
X149214504Y-78376204D01*
G37*
D13*
G04 #@! TD*
G04 #@! TO.P,M1,1*
G04 #@! TO.N,Net-(M1-Pad1)*
X148590000Y-79375000D03*
D14*
G04 #@! TO.P,M1,2*
G04 #@! TO.N,Net-(M1-Pad2)*
X146090000Y-79375000D03*
G04 #@! TD*
G04 #@! TO.P,J4,2*
G04 #@! TO.N,GND*
X168235000Y-113746001D03*
D12*
G04 #@! TD*
G04 #@! TO.N,D4*
G04 #@! TO.C,J4*
G36*
X166359504Y-112747205D02*
X166383773Y-112750805D01*
X166407571Y-112756766D01*
X166430671Y-112765031D01*
X166452849Y-112775521D01*
X166473893Y-112788134D01*
X166493598Y-112802748D01*
X166511777Y-112819224D01*
X166528253Y-112837403D01*
X166542867Y-112857108D01*
X166555480Y-112878152D01*
X166565970Y-112900330D01*
X166574235Y-112923430D01*
X166580196Y-112947228D01*
X166583796Y-112971497D01*
X166585000Y-112996001D01*
X166585000Y-114496001D01*
X166583796Y-114520505D01*
X166580196Y-114544774D01*
X166574235Y-114568572D01*
X166565970Y-114591672D01*
X166555480Y-114613850D01*
X166542867Y-114634894D01*
X166528253Y-114654599D01*
X166511777Y-114672778D01*
X166493598Y-114689254D01*
X166473893Y-114703868D01*
X166452849Y-114716481D01*
X166430671Y-114726971D01*
X166407571Y-114735236D01*
X166383773Y-114741197D01*
X166359504Y-114744797D01*
X166335000Y-114746001D01*
X165135000Y-114746001D01*
X165110496Y-114744797D01*
X165086227Y-114741197D01*
X165062429Y-114735236D01*
X165039329Y-114726971D01*
X165017151Y-114716481D01*
X164996107Y-114703868D01*
X164976402Y-114689254D01*
X164958223Y-114672778D01*
X164941747Y-114654599D01*
X164927133Y-114634894D01*
X164914520Y-114613850D01*
X164904030Y-114591672D01*
X164895765Y-114568572D01*
X164889804Y-114544774D01*
X164886204Y-114520505D01*
X164885000Y-114496001D01*
X164885000Y-112996001D01*
X164886204Y-112971497D01*
X164889804Y-112947228D01*
X164895765Y-112923430D01*
X164904030Y-112900330D01*
X164914520Y-112878152D01*
X164927133Y-112857108D01*
X164941747Y-112837403D01*
X164958223Y-112819224D01*
X164976402Y-112802748D01*
X164996107Y-112788134D01*
X165017151Y-112775521D01*
X165039329Y-112765031D01*
X165062429Y-112756766D01*
X165086227Y-112750805D01*
X165110496Y-112747205D01*
X165135000Y-112746001D01*
X166335000Y-112746001D01*
X166359504Y-112747205D01*
X166359504Y-112747205D01*
G37*
D13*
G04 #@! TO.P,J4,1*
G04 #@! TO.N,D4*
X165735000Y-113746001D03*
G04 #@! TD*
D12*
G04 #@! TO.N,D3*
G04 #@! TO.C,J3*
G36*
X157469504Y-112747205D02*
X157493773Y-112750805D01*
X157517571Y-112756766D01*
X157540671Y-112765031D01*
X157562849Y-112775521D01*
X157583893Y-112788134D01*
X157603598Y-112802748D01*
X157621777Y-112819224D01*
X157638253Y-112837403D01*
X157652867Y-112857108D01*
X157665480Y-112878152D01*
X157675970Y-112900330D01*
X157684235Y-112923430D01*
X157690196Y-112947228D01*
X157693796Y-112971497D01*
X157695000Y-112996001D01*
X157695000Y-114496001D01*
X157693796Y-114520505D01*
X157690196Y-114544774D01*
X157684235Y-114568572D01*
X157675970Y-114591672D01*
X157665480Y-114613850D01*
X157652867Y-114634894D01*
X157638253Y-114654599D01*
X157621777Y-114672778D01*
X157603598Y-114689254D01*
X157583893Y-114703868D01*
X157562849Y-114716481D01*
X157540671Y-114726971D01*
X157517571Y-114735236D01*
X157493773Y-114741197D01*
X157469504Y-114744797D01*
X157445000Y-114746001D01*
X156245000Y-114746001D01*
X156220496Y-114744797D01*
X156196227Y-114741197D01*
X156172429Y-114735236D01*
X156149329Y-114726971D01*
X156127151Y-114716481D01*
X156106107Y-114703868D01*
X156086402Y-114689254D01*
X156068223Y-114672778D01*
X156051747Y-114654599D01*
X156037133Y-114634894D01*
X156024520Y-114613850D01*
X156014030Y-114591672D01*
X156005765Y-114568572D01*
X155999804Y-114544774D01*
X155996204Y-114520505D01*
X155995000Y-114496001D01*
X155995000Y-112996001D01*
X155996204Y-112971497D01*
X155999804Y-112947228D01*
X156005765Y-112923430D01*
X156014030Y-112900330D01*
X156024520Y-112878152D01*
X156037133Y-112857108D01*
X156051747Y-112837403D01*
X156068223Y-112819224D01*
X156086402Y-112802748D01*
X156106107Y-112788134D01*
X156127151Y-112775521D01*
X156149329Y-112765031D01*
X156172429Y-112756766D01*
X156196227Y-112750805D01*
X156220496Y-112747205D01*
X156245000Y-112746001D01*
X157445000Y-112746001D01*
X157469504Y-112747205D01*
X157469504Y-112747205D01*
G37*
D13*
G04 #@! TD*
G04 #@! TO.P,J3,1*
G04 #@! TO.N,D3*
X156845000Y-113746001D03*
D14*
G04 #@! TO.P,J3,2*
G04 #@! TO.N,GND*
X159345000Y-113746001D03*
G04 #@! TD*
D12*
G04 #@! TO.N,D5*
G04 #@! TO.C,J2*
G36*
X148579504Y-112666204D02*
X148603773Y-112669804D01*
X148627571Y-112675765D01*
X148650671Y-112684030D01*
X148672849Y-112694520D01*
X148693893Y-112707133D01*
X148713598Y-112721747D01*
X148731777Y-112738223D01*
X148748253Y-112756402D01*
X148762867Y-112776107D01*
X148775480Y-112797151D01*
X148785970Y-112819329D01*
X148794235Y-112842429D01*
X148800196Y-112866227D01*
X148803796Y-112890496D01*
X148805000Y-112915000D01*
X148805000Y-114415000D01*
X148803796Y-114439504D01*
X148800196Y-114463773D01*
X148794235Y-114487571D01*
X148785970Y-114510671D01*
X148775480Y-114532849D01*
X148762867Y-114553893D01*
X148748253Y-114573598D01*
X148731777Y-114591777D01*
X148713598Y-114608253D01*
X148693893Y-114622867D01*
X148672849Y-114635480D01*
X148650671Y-114645970D01*
X148627571Y-114654235D01*
X148603773Y-114660196D01*
X148579504Y-114663796D01*
X148555000Y-114665000D01*
X147355000Y-114665000D01*
X147330496Y-114663796D01*
X147306227Y-114660196D01*
X147282429Y-114654235D01*
X147259329Y-114645970D01*
X147237151Y-114635480D01*
X147216107Y-114622867D01*
X147196402Y-114608253D01*
X147178223Y-114591777D01*
X147161747Y-114573598D01*
X147147133Y-114553893D01*
X147134520Y-114532849D01*
X147124030Y-114510671D01*
X147115765Y-114487571D01*
X147109804Y-114463773D01*
X147106204Y-114439504D01*
X147105000Y-114415000D01*
X147105000Y-112915000D01*
X147106204Y-112890496D01*
X147109804Y-112866227D01*
X147115765Y-112842429D01*
X147124030Y-112819329D01*
X147134520Y-112797151D01*
X147147133Y-112776107D01*
X147161747Y-112756402D01*
X147178223Y-112738223D01*
X147196402Y-112721747D01*
X147216107Y-112707133D01*
X147237151Y-112694520D01*
X147259329Y-112684030D01*
X147282429Y-112675765D01*
X147306227Y-112669804D01*
X147330496Y-112666204D01*
X147355000Y-112665000D01*
X148555000Y-112665000D01*
X148579504Y-112666204D01*
X148579504Y-112666204D01*
G37*
D13*
G04 #@! TD*
G04 #@! TO.P,J2,1*
G04 #@! TO.N,D5*
X147955000Y-113665000D03*
D14*
G04 #@! TO.P,J2,2*
G04 #@! TO.N,GND*
X150455000Y-113665000D03*
G04 #@! TD*
D10*
G04 #@! TO.P,U4,1*
G04 #@! TO.N,SDA*
X158115000Y-77470000D03*
D11*
G04 #@! TO.P,U4,2*
G04 #@! TO.N,SCL*
X158115000Y-80010000D03*
G04 #@! TO.P,U4,3*
G04 #@! TO.N,VCC*
X158115000Y-82550000D03*
G04 #@! TO.P,U4,4*
G04 #@! TO.N,GND*
X158115000Y-85090000D03*
G04 #@! TD*
D18*
G04 #@! TO.P,Q1,1*
G04 #@! TO.N,Net-(Q1-Pad1)*
X208915000Y-111125000D03*
D19*
G04 #@! TO.P,Q1,2*
G04 #@! TO.N,Net-(J8-Pad1)*
X206375000Y-111125000D03*
G04 #@! TO.P,Q1,3*
G04 #@! TO.N,GND*
X203835000Y-111125000D03*
G04 #@! TD*
D20*
G04 #@! TO.P,U1,A5*
G04 #@! TO.N,SCL*
X178435000Y-102870000D03*
G04 #@! TO.P,U1,A4*
G04 #@! TO.N,SDA*
X175895000Y-102870000D03*
G04 #@! TO.P,U1,TX@1*
G04 #@! TO.N,Net-(J1-Pad2)*
X189865000Y-93980000D03*
G04 #@! TO.P,U1,RX@1*
G04 #@! TO.N,Net-(J1-Pad3)*
X189865000Y-96520000D03*
G04 #@! TO.P,U1,VCC@1*
G04 #@! TO.N,Net-(J1-Pad4)*
X189865000Y-99060000D03*
G04 #@! TO.P,U1,GND@2*
G04 #@! TO.N,Net-(J1-Pad5)*
X189865000Y-101600000D03*
G04 #@! TO.P,U1,GND@3*
G04 #@! TO.N,N/C*
X159385000Y-97790000D03*
G04 #@! TO.P,U1,A6*
G04 #@! TO.N,Net-(U1-PadA6)*
X159385000Y-100330000D03*
G04 #@! TO.P,U1,A7*
G04 #@! TO.N,Net-(U1-PadA7)*
X159385000Y-102870000D03*
G04 #@! TO.P,U1,RAW*
G04 #@! TO.N,Net-(J10-Pad1)*
X187325000Y-105410000D03*
G04 #@! TO.P,U1,GND@1*
G04 #@! TO.N,GND*
X184785000Y-105410000D03*
G04 #@! TO.P,U1,RST*
G04 #@! TO.N,Net-(U1-PadRST)*
X182245000Y-105410000D03*
G04 #@! TO.P,U1,VCC*
G04 #@! TO.N,VCC*
X179705000Y-105410000D03*
G04 #@! TO.P,U1,A3*
G04 #@! TO.N,Net-(U1-PadA3)*
X177165000Y-105410000D03*
G04 #@! TO.P,U1,D3*
G04 #@! TO.N,D3*
X174625000Y-90170000D03*
G04 #@! TO.P,U1,DTR*
G04 #@! TO.N,Net-(J1-Pad1)*
X189865000Y-91440000D03*
G04 #@! TO.P,U1,TX*
G04 #@! TO.N,Net-(U1-PadTX)*
X187325000Y-90170000D03*
G04 #@! TO.P,U1,RX*
G04 #@! TO.N,Net-(U1-PadRX)*
X184785000Y-90170000D03*
G04 #@! TO.P,U1,RST@1*
G04 #@! TO.N,Net-(U1-PadRST@1)*
X182245000Y-90170000D03*
G04 #@! TO.P,U1,GND*
G04 #@! TO.N,Net-(U1-PadGND)*
X179705000Y-90170000D03*
G04 #@! TO.P,U1,D2*
G04 #@! TO.N,Net-(U1-PadD2)*
X177165000Y-90170000D03*
G04 #@! TO.P,U1,D4*
G04 #@! TO.N,D4*
X172085000Y-90170000D03*
G04 #@! TO.P,U1,D5*
G04 #@! TO.N,D5*
X169545000Y-90170000D03*
G04 #@! TO.P,U1,D6*
G04 #@! TO.N,Net-(U1-PadD6)*
X167005000Y-90170000D03*
G04 #@! TO.P,U1,D7*
G04 #@! TO.N,Net-(U1-PadD7)*
X164465000Y-90170000D03*
G04 #@! TO.P,U1,D8*
G04 #@! TO.N,Net-(U1-PadD8)*
X161925000Y-90170000D03*
G04 #@! TO.P,U1,D9*
G04 #@! TO.N,Net-(U1-PadD9)*
X159385000Y-90170000D03*
G04 #@! TO.P,U1,D10*
G04 #@! TO.N,D10*
X159385000Y-105410000D03*
G04 #@! TO.P,U1,D11*
G04 #@! TO.N,Net-(U1-PadD11)*
X161925000Y-105410000D03*
G04 #@! TO.P,U1,D12*
G04 #@! TO.N,Net-(U1-PadD12)*
X164465000Y-105410000D03*
G04 #@! TO.P,U1,D13*
G04 #@! TO.N,Net-(U1-PadD13)*
X167005000Y-105410000D03*
G04 #@! TO.P,U1,A0*
G04 #@! TO.N,Net-(U1-PadA0)*
X169545000Y-105410000D03*
G04 #@! TO.P,U1,A1*
G04 #@! TO.N,Net-(U1-PadA1)*
X172085000Y-105410000D03*
G04 #@! TO.P,U1,A2*
G04 #@! TO.N,Net-(U1-PadA2)*
X174625000Y-105410000D03*
G04 #@! TO.P,U1,BLK*
G04 #@! TO.N,Net-(J1-Pad6)*
X189865000Y-104140000D03*
G04 #@! TD*
D21*
G04 #@! TO.N,Net-(Q1-Pad1)*
X208915000Y-106680000D03*
G04 #@! TO.N,VCC*
X180975000Y-107315000D03*
X186055000Y-111125000D03*
X201930000Y-113753295D03*
G04 #@! TO.N,Net-(M1-Pad1)*
X144780000Y-84455000D03*
G04 #@! TO.N,D5*
X167005000Y-93345000D03*
G04 #@! TO.N,D3*
X169545000Y-95250000D03*
G04 #@! TO.N,D4*
X172085000Y-94615000D03*
G04 #@! TO.N,D10*
X168275000Y-88900000D03*
G04 #@! TO.N,Net-(J9-Pad1)*
X148590000Y-95885000D03*
X163195000Y-109220000D03*
G04 #@! TO.N,Net-(J9-Pad2)*
X148590000Y-107950000D03*
X155575000Y-116205000D03*
G04 #@! TD*
D22*
G04 #@! TO.N,Net-(Q1-Pad1)*
X180822342Y-78587342D02*
X208915000Y-106680000D01*
X170377831Y-77562341D02*
X171402832Y-78587342D01*
X171402832Y-78587342D02*
X180822342Y-78587342D01*
G04 #@! TO.N,VCC*
X180975000Y-107315000D02*
X184785000Y-111125000D01*
X184785000Y-111125000D02*
X186055000Y-111125000D01*
X203200000Y-115023295D02*
X203200000Y-116205000D01*
X201930000Y-113753295D02*
X203200000Y-115023295D01*
G04 #@! TO.N,SDA*
X175141001Y-102116001D02*
X175895000Y-102870000D01*
X171005999Y-97980999D02*
X175141001Y-102116001D01*
X171005999Y-90034077D02*
X171005999Y-97980999D01*
X158441922Y-77470000D02*
X171005999Y-90034077D01*
X158115000Y-77470000D02*
X158441922Y-77470000D01*
X176648999Y-103623999D02*
X175895000Y-102870000D01*
X176975921Y-103623999D02*
X176648999Y-103623999D01*
X178244001Y-104892079D02*
X176975921Y-103623999D01*
X178244001Y-105854001D02*
X178244001Y-104892079D01*
X178879001Y-106489001D02*
X178244001Y-105854001D01*
X183190716Y-106489001D02*
X178879001Y-106489001D01*
X189730010Y-113028295D02*
X183190716Y-106489001D01*
X202563295Y-113028295D02*
X189730010Y-113028295D01*
X205740000Y-116205000D02*
X202563295Y-113028295D01*
G04 #@! TO.N,SCL*
X177681001Y-102116001D02*
X178435000Y-102870000D01*
X173545999Y-97980999D02*
X177681001Y-102116001D01*
X173545999Y-89867511D02*
X173545999Y-97980999D01*
X159973487Y-76294999D02*
X173545999Y-89867511D01*
X157004999Y-76294999D02*
X159973487Y-76294999D01*
X156845000Y-78740000D02*
X156845000Y-76454998D01*
X156845000Y-76454998D02*
X157004999Y-76294999D01*
X158115000Y-80010000D02*
X156845000Y-78740000D01*
X181301922Y-102870000D02*
X179501317Y-102870000D01*
X183324001Y-105545923D02*
X183324001Y-104892079D01*
X190228088Y-112450010D02*
X183324001Y-105545923D01*
X179501317Y-102870000D02*
X178435000Y-102870000D01*
X183324001Y-104892079D02*
X181301922Y-102870000D01*
X204525010Y-112450010D02*
X190228088Y-112450010D01*
X208280000Y-116205000D02*
X204525010Y-112450010D01*
G04 #@! TO.N,Net-(M1-Pad1)*
X148590000Y-80645000D02*
X148590000Y-79375000D01*
X144780000Y-84455000D02*
X148590000Y-80645000D01*
G04 #@! TO.N,D5*
X167005000Y-94306922D02*
X167005000Y-93345000D01*
X159902921Y-101409001D02*
X167005000Y-94306922D01*
X159110999Y-101409001D02*
X159902921Y-101409001D01*
X147955000Y-113665000D02*
X147955000Y-112565000D01*
X147955000Y-112565000D02*
X159110999Y-101409001D01*
G04 #@! TO.N,D3*
X160464001Y-110127000D02*
X160464001Y-104967409D01*
X169545000Y-95886410D02*
X169545000Y-95815685D01*
X169545000Y-95815685D02*
X169545000Y-95250000D01*
X160464001Y-104967409D02*
X169545000Y-95886410D01*
X156845000Y-113746001D02*
X160464001Y-110127000D01*
X177997831Y-86797169D02*
X174625000Y-90170000D01*
X177997831Y-85182341D02*
X177997831Y-86797169D01*
G04 #@! TO.N,D4*
X172085000Y-94615000D02*
X172085000Y-90170000D01*
G04 #@! TO.N,D10*
X159385000Y-105410000D02*
X168275000Y-96520000D01*
X168275000Y-96520000D02*
X168275000Y-88900000D01*
G04 #@! TO.N,Net-(J9-Pad1)*
X136525000Y-85090000D02*
X137795000Y-85090000D01*
X137795000Y-85090000D02*
X148590000Y-95885000D01*
X181610000Y-109220000D02*
X186055000Y-113665000D01*
X163195000Y-109220000D02*
X181610000Y-109220000D01*
G04 #@! TO.N,Net-(J9-Pad2)*
X136525000Y-90170000D02*
X148590000Y-102235000D01*
X148590000Y-102235000D02*
X148590000Y-107950000D01*
X188555000Y-114915000D02*
X188555000Y-113665000D01*
X187265000Y-116205000D02*
X188555000Y-114915000D01*
X155575000Y-116205000D02*
X187265000Y-116205000D01*
G04 #@! TO.N,Net-(U1-PadD8)*
X160655000Y-91440000D02*
X161171001Y-90923999D01*
X161171001Y-90923999D02*
X161925000Y-90170000D01*
X151525000Y-87630000D02*
X155335000Y-91440000D01*
X155335000Y-91440000D02*
X160655000Y-91440000D01*
G04 #@! TO.N,Net-(U1-PadD6)*
X164465000Y-92710000D02*
X167005000Y-90170000D01*
X151525000Y-92710000D02*
X164465000Y-92710000D01*
G04 #@! TO.N,Net-(U1-PadD7)*
X162560000Y-92075000D02*
X163711001Y-90923999D01*
X151525000Y-90170000D02*
X153430000Y-92075000D01*
X163711001Y-90923999D02*
X164465000Y-90170000D01*
X153430000Y-92075000D02*
X162560000Y-92075000D01*
G04 #@! TO.N,Net-(U1-PadD9)*
X154305000Y-85090000D02*
X151525000Y-85090000D01*
X159385000Y-90170000D02*
X154305000Y-85090000D01*
G04 #@! TO.N,Net-(U1-PadD2)*
X177918999Y-89416001D02*
X177165000Y-90170000D01*
X178244001Y-89090999D02*
X177918999Y-89416001D01*
X189418501Y-89090999D02*
X178244001Y-89090999D01*
X210820000Y-110492498D02*
X189418501Y-89090999D01*
X210820000Y-116205000D02*
X210820000Y-110492498D01*
G04 #@! TD*
M02*
