G04 #@! TF.GenerationSoftware,KiCad,Pcbnew,5.0.2-bee76a0~70~ubuntu18.04.1*
G04 #@! TF.CreationDate,2020-05-13T22:11:56-07:00*
G04 #@! TF.ProjectId,auto-chicken-coop-door,6175746f-2d63-4686-9963-6b656e2d636f,rev?*
G04 #@! TF.SameCoordinates,Original*
G04 #@! TF.FileFunction,Copper,L1,Top*
G04 #@! TF.FilePolarity,Positive*
%FSLAX46Y46*%
G04 Gerber Fmt 4.6, Leading zero omitted, Abs format (unit mm)*
G04 Created by KiCad (PCBNEW 5.0.2-bee76a0~70~ubuntu18.04.1) date Wed 13 May 2020 10:11:56 PM PDT*
%MOMM*%
%LPD*%
G01*
G04 APERTURE LIST*
G04 #@! TA.AperFunction,ComponentPad*
%ADD10R,1.700000X1.700000*%
G04 #@! TD*
G04 #@! TA.AperFunction,ComponentPad*
%ADD11O,1.700000X1.700000*%
G04 #@! TD*
G04 #@! TA.AperFunction,Conductor*
%ADD12C,0.100000*%
G04 #@! TD*
G04 #@! TA.AperFunction,ComponentPad*
%ADD13C,1.700000*%
G04 #@! TD*
G04 #@! TA.AperFunction,ComponentPad*
%ADD14O,1.700000X2.000000*%
G04 #@! TD*
G04 #@! TA.AperFunction,ComponentPad*
%ADD15C,1.400000*%
G04 #@! TD*
G04 #@! TA.AperFunction,ComponentPad*
%ADD16O,1.400000X1.400000*%
G04 #@! TD*
G04 #@! TA.AperFunction,ComponentPad*
%ADD17C,2.000000*%
G04 #@! TD*
G04 #@! TA.AperFunction,ComponentPad*
%ADD18R,1.905000X2.000000*%
G04 #@! TD*
G04 #@! TA.AperFunction,ComponentPad*
%ADD19O,1.905000X2.000000*%
G04 #@! TD*
G04 #@! TA.AperFunction,ComponentPad*
%ADD20C,1.508000*%
G04 #@! TD*
G04 #@! TA.AperFunction,ViaPad*
%ADD21C,0.800000*%
G04 #@! TD*
G04 #@! TA.AperFunction,Conductor*
%ADD22C,0.250000*%
G04 #@! TD*
G04 #@! TA.AperFunction,Conductor*
%ADD23C,0.254000*%
G04 #@! TD*
G04 APERTURE END LIST*
D10*
G04 #@! TO.P,J1,1*
G04 #@! TO.N,Net-(J1-Pad1)*
X194945000Y-90170000D03*
D11*
G04 #@! TO.P,J1,2*
G04 #@! TO.N,Net-(J1-Pad2)*
X194945000Y-92710000D03*
G04 #@! TO.P,J1,3*
G04 #@! TO.N,Net-(J1-Pad3)*
X194945000Y-95250000D03*
G04 #@! TO.P,J1,4*
G04 #@! TO.N,Net-(J1-Pad4)*
X194945000Y-97790000D03*
G04 #@! TO.P,J1,5*
G04 #@! TO.N,Net-(J1-Pad5)*
X194945000Y-100330000D03*
G04 #@! TO.P,J1,6*
G04 #@! TO.N,Net-(J1-Pad6)*
X194945000Y-102870000D03*
G04 #@! TD*
D12*
G04 #@! TO.N,Net-(J9-Pad1)*
G04 #@! TO.C,J9*
G36*
X186679504Y-112666204D02*
X186703773Y-112669804D01*
X186727571Y-112675765D01*
X186750671Y-112684030D01*
X186772849Y-112694520D01*
X186793893Y-112707133D01*
X186813598Y-112721747D01*
X186831777Y-112738223D01*
X186848253Y-112756402D01*
X186862867Y-112776107D01*
X186875480Y-112797151D01*
X186885970Y-112819329D01*
X186894235Y-112842429D01*
X186900196Y-112866227D01*
X186903796Y-112890496D01*
X186905000Y-112915000D01*
X186905000Y-114415000D01*
X186903796Y-114439504D01*
X186900196Y-114463773D01*
X186894235Y-114487571D01*
X186885970Y-114510671D01*
X186875480Y-114532849D01*
X186862867Y-114553893D01*
X186848253Y-114573598D01*
X186831777Y-114591777D01*
X186813598Y-114608253D01*
X186793893Y-114622867D01*
X186772849Y-114635480D01*
X186750671Y-114645970D01*
X186727571Y-114654235D01*
X186703773Y-114660196D01*
X186679504Y-114663796D01*
X186655000Y-114665000D01*
X185455000Y-114665000D01*
X185430496Y-114663796D01*
X185406227Y-114660196D01*
X185382429Y-114654235D01*
X185359329Y-114645970D01*
X185337151Y-114635480D01*
X185316107Y-114622867D01*
X185296402Y-114608253D01*
X185278223Y-114591777D01*
X185261747Y-114573598D01*
X185247133Y-114553893D01*
X185234520Y-114532849D01*
X185224030Y-114510671D01*
X185215765Y-114487571D01*
X185209804Y-114463773D01*
X185206204Y-114439504D01*
X185205000Y-114415000D01*
X185205000Y-112915000D01*
X185206204Y-112890496D01*
X185209804Y-112866227D01*
X185215765Y-112842429D01*
X185224030Y-112819329D01*
X185234520Y-112797151D01*
X185247133Y-112776107D01*
X185261747Y-112756402D01*
X185278223Y-112738223D01*
X185296402Y-112721747D01*
X185316107Y-112707133D01*
X185337151Y-112694520D01*
X185359329Y-112684030D01*
X185382429Y-112675765D01*
X185406227Y-112669804D01*
X185430496Y-112666204D01*
X185455000Y-112665000D01*
X186655000Y-112665000D01*
X186679504Y-112666204D01*
X186679504Y-112666204D01*
G37*
D13*
G04 #@! TD*
G04 #@! TO.P,J9,1*
G04 #@! TO.N,Net-(J9-Pad1)*
X186055000Y-113665000D03*
D14*
G04 #@! TO.P,J9,2*
G04 #@! TO.N,Net-(J9-Pad2)*
X188555000Y-113665000D03*
G04 #@! TD*
G04 #@! TO.P,J11,2*
G04 #@! TO.N,GND*
X139025000Y-113665000D03*
D12*
G04 #@! TD*
G04 #@! TO.N,Net-(J10-Pad1)*
G04 #@! TO.C,J11*
G36*
X137149504Y-112666204D02*
X137173773Y-112669804D01*
X137197571Y-112675765D01*
X137220671Y-112684030D01*
X137242849Y-112694520D01*
X137263893Y-112707133D01*
X137283598Y-112721747D01*
X137301777Y-112738223D01*
X137318253Y-112756402D01*
X137332867Y-112776107D01*
X137345480Y-112797151D01*
X137355970Y-112819329D01*
X137364235Y-112842429D01*
X137370196Y-112866227D01*
X137373796Y-112890496D01*
X137375000Y-112915000D01*
X137375000Y-114415000D01*
X137373796Y-114439504D01*
X137370196Y-114463773D01*
X137364235Y-114487571D01*
X137355970Y-114510671D01*
X137345480Y-114532849D01*
X137332867Y-114553893D01*
X137318253Y-114573598D01*
X137301777Y-114591777D01*
X137283598Y-114608253D01*
X137263893Y-114622867D01*
X137242849Y-114635480D01*
X137220671Y-114645970D01*
X137197571Y-114654235D01*
X137173773Y-114660196D01*
X137149504Y-114663796D01*
X137125000Y-114665000D01*
X135925000Y-114665000D01*
X135900496Y-114663796D01*
X135876227Y-114660196D01*
X135852429Y-114654235D01*
X135829329Y-114645970D01*
X135807151Y-114635480D01*
X135786107Y-114622867D01*
X135766402Y-114608253D01*
X135748223Y-114591777D01*
X135731747Y-114573598D01*
X135717133Y-114553893D01*
X135704520Y-114532849D01*
X135694030Y-114510671D01*
X135685765Y-114487571D01*
X135679804Y-114463773D01*
X135676204Y-114439504D01*
X135675000Y-114415000D01*
X135675000Y-112915000D01*
X135676204Y-112890496D01*
X135679804Y-112866227D01*
X135685765Y-112842429D01*
X135694030Y-112819329D01*
X135704520Y-112797151D01*
X135717133Y-112776107D01*
X135731747Y-112756402D01*
X135748223Y-112738223D01*
X135766402Y-112721747D01*
X135786107Y-112707133D01*
X135807151Y-112694520D01*
X135829329Y-112684030D01*
X135852429Y-112675765D01*
X135876227Y-112669804D01*
X135900496Y-112666204D01*
X135925000Y-112665000D01*
X137125000Y-112665000D01*
X137149504Y-112666204D01*
X137149504Y-112666204D01*
G37*
D13*
G04 #@! TO.P,J11,1*
G04 #@! TO.N,Net-(J10-Pad1)*
X136525000Y-113665000D03*
G04 #@! TD*
D12*
G04 #@! TO.N,Net-(J10-Pad1)*
G04 #@! TO.C,J10*
G36*
X177154504Y-112666204D02*
X177178773Y-112669804D01*
X177202571Y-112675765D01*
X177225671Y-112684030D01*
X177247849Y-112694520D01*
X177268893Y-112707133D01*
X177288598Y-112721747D01*
X177306777Y-112738223D01*
X177323253Y-112756402D01*
X177337867Y-112776107D01*
X177350480Y-112797151D01*
X177360970Y-112819329D01*
X177369235Y-112842429D01*
X177375196Y-112866227D01*
X177378796Y-112890496D01*
X177380000Y-112915000D01*
X177380000Y-114415000D01*
X177378796Y-114439504D01*
X177375196Y-114463773D01*
X177369235Y-114487571D01*
X177360970Y-114510671D01*
X177350480Y-114532849D01*
X177337867Y-114553893D01*
X177323253Y-114573598D01*
X177306777Y-114591777D01*
X177288598Y-114608253D01*
X177268893Y-114622867D01*
X177247849Y-114635480D01*
X177225671Y-114645970D01*
X177202571Y-114654235D01*
X177178773Y-114660196D01*
X177154504Y-114663796D01*
X177130000Y-114665000D01*
X175930000Y-114665000D01*
X175905496Y-114663796D01*
X175881227Y-114660196D01*
X175857429Y-114654235D01*
X175834329Y-114645970D01*
X175812151Y-114635480D01*
X175791107Y-114622867D01*
X175771402Y-114608253D01*
X175753223Y-114591777D01*
X175736747Y-114573598D01*
X175722133Y-114553893D01*
X175709520Y-114532849D01*
X175699030Y-114510671D01*
X175690765Y-114487571D01*
X175684804Y-114463773D01*
X175681204Y-114439504D01*
X175680000Y-114415000D01*
X175680000Y-112915000D01*
X175681204Y-112890496D01*
X175684804Y-112866227D01*
X175690765Y-112842429D01*
X175699030Y-112819329D01*
X175709520Y-112797151D01*
X175722133Y-112776107D01*
X175736747Y-112756402D01*
X175753223Y-112738223D01*
X175771402Y-112721747D01*
X175791107Y-112707133D01*
X175812151Y-112694520D01*
X175834329Y-112684030D01*
X175857429Y-112675765D01*
X175881227Y-112669804D01*
X175905496Y-112666204D01*
X175930000Y-112665000D01*
X177130000Y-112665000D01*
X177154504Y-112666204D01*
X177154504Y-112666204D01*
G37*
D13*
G04 #@! TD*
G04 #@! TO.P,J10,1*
G04 #@! TO.N,Net-(J10-Pad1)*
X176530000Y-113665000D03*
D14*
G04 #@! TO.P,J10,2*
G04 #@! TO.N,GND*
X179030000Y-113665000D03*
G04 #@! TD*
D15*
G04 #@! TO.P,R1,1*
G04 #@! TO.N,VCC*
X174187831Y-77562341D03*
D16*
G04 #@! TO.P,R1,2*
G04 #@! TO.N,D5*
X174187831Y-85182341D03*
G04 #@! TD*
G04 #@! TO.P,R2,2*
G04 #@! TO.N,D3*
X177997831Y-85182341D03*
D15*
G04 #@! TO.P,R2,1*
G04 #@! TO.N,VCC*
X177997831Y-77562341D03*
G04 #@! TD*
G04 #@! TO.P,R3,1*
G04 #@! TO.N,VCC*
X181807831Y-77562341D03*
D16*
G04 #@! TO.P,R3,2*
G04 #@! TO.N,D4*
X181807831Y-85182341D03*
G04 #@! TD*
D17*
G04 #@! TO.P,J8,1*
G04 #@! TO.N,Net-(J8-Pad1)*
X194945000Y-115570000D03*
G04 #@! TD*
D10*
G04 #@! TO.P,U2,1*
G04 #@! TO.N,Net-(U2-Pad1)*
X213360000Y-116205000D03*
D11*
G04 #@! TO.P,U2,2*
G04 #@! TO.N,Net-(U1-PadD2)*
X210820000Y-116205000D03*
G04 #@! TO.P,U2,3*
G04 #@! TO.N,SCL*
X208280000Y-116205000D03*
G04 #@! TO.P,U2,4*
G04 #@! TO.N,SDA*
X205740000Y-116205000D03*
G04 #@! TO.P,U2,5*
G04 #@! TO.N,VCC*
X203200000Y-116205000D03*
G04 #@! TO.P,U2,6*
G04 #@! TO.N,GND*
X200660000Y-116205000D03*
G04 #@! TD*
D10*
G04 #@! TO.P,U3,1*
G04 #@! TO.N,Net-(J9-Pad1)*
X136525000Y-85090000D03*
D11*
G04 #@! TO.P,U3,2*
G04 #@! TO.N,VCC*
X136525000Y-87630000D03*
G04 #@! TO.P,U3,3*
G04 #@! TO.N,Net-(J9-Pad2)*
X136525000Y-90170000D03*
G04 #@! TO.P,U3,4*
G04 #@! TO.N,Net-(M1-Pad1)*
X136525000Y-92710000D03*
G04 #@! TO.P,U3,5*
G04 #@! TO.N,Net-(M1-Pad2)*
X136525000Y-95250000D03*
G04 #@! TO.P,U3,6*
G04 #@! TO.N,Net-(U3-Pad6)*
X136525000Y-97790000D03*
G04 #@! TO.P,U3,7*
G04 #@! TO.N,Net-(U3-Pad7)*
X136525000Y-100330000D03*
G04 #@! TO.P,U3,8*
G04 #@! TO.N,GND*
X136525000Y-102870000D03*
G04 #@! TO.P,U3,10*
G04 #@! TO.N,Net-(U1-PadD8)*
X151525000Y-87630000D03*
G04 #@! TO.P,U3,12*
G04 #@! TO.N,Net-(U1-PadD6)*
X151525000Y-92710000D03*
G04 #@! TO.P,U3,13*
G04 #@! TO.N,Net-(U3-Pad13)*
X151525000Y-95250000D03*
G04 #@! TO.P,U3,11*
G04 #@! TO.N,Net-(U1-PadD7)*
X151525000Y-90170000D03*
D13*
G04 #@! TO.P,U3,9*
G04 #@! TO.N,Net-(U1-PadD9)*
X151525000Y-85090000D03*
D11*
G04 #@! TO.P,U3,15*
G04 #@! TO.N,Net-(U3-Pad15)*
X151525000Y-100330000D03*
G04 #@! TO.P,U3,14*
G04 #@! TO.N,Net-(U3-Pad14)*
X151525000Y-97790000D03*
G04 #@! TO.P,U3,16*
G04 #@! TO.N,Net-(U3-Pad16)*
X151525000Y-102870000D03*
G04 #@! TD*
D15*
G04 #@! TO.P,R4,1*
G04 #@! TO.N,Net-(Q1-Pad1)*
X170377831Y-77562341D03*
D16*
G04 #@! TO.P,R4,2*
G04 #@! TO.N,D10*
X170377831Y-85182341D03*
G04 #@! TD*
D12*
G04 #@! TO.N,Net-(M1-Pad1)*
G04 #@! TO.C,M1*
G36*
X149214504Y-78376204D02*
X149238773Y-78379804D01*
X149262571Y-78385765D01*
X149285671Y-78394030D01*
X149307849Y-78404520D01*
X149328893Y-78417133D01*
X149348598Y-78431747D01*
X149366777Y-78448223D01*
X149383253Y-78466402D01*
X149397867Y-78486107D01*
X149410480Y-78507151D01*
X149420970Y-78529329D01*
X149429235Y-78552429D01*
X149435196Y-78576227D01*
X149438796Y-78600496D01*
X149440000Y-78625000D01*
X149440000Y-80125000D01*
X149438796Y-80149504D01*
X149435196Y-80173773D01*
X149429235Y-80197571D01*
X149420970Y-80220671D01*
X149410480Y-80242849D01*
X149397867Y-80263893D01*
X149383253Y-80283598D01*
X149366777Y-80301777D01*
X149348598Y-80318253D01*
X149328893Y-80332867D01*
X149307849Y-80345480D01*
X149285671Y-80355970D01*
X149262571Y-80364235D01*
X149238773Y-80370196D01*
X149214504Y-80373796D01*
X149190000Y-80375000D01*
X147990000Y-80375000D01*
X147965496Y-80373796D01*
X147941227Y-80370196D01*
X147917429Y-80364235D01*
X147894329Y-80355970D01*
X147872151Y-80345480D01*
X147851107Y-80332867D01*
X147831402Y-80318253D01*
X147813223Y-80301777D01*
X147796747Y-80283598D01*
X147782133Y-80263893D01*
X147769520Y-80242849D01*
X147759030Y-80220671D01*
X147750765Y-80197571D01*
X147744804Y-80173773D01*
X147741204Y-80149504D01*
X147740000Y-80125000D01*
X147740000Y-78625000D01*
X147741204Y-78600496D01*
X147744804Y-78576227D01*
X147750765Y-78552429D01*
X147759030Y-78529329D01*
X147769520Y-78507151D01*
X147782133Y-78486107D01*
X147796747Y-78466402D01*
X147813223Y-78448223D01*
X147831402Y-78431747D01*
X147851107Y-78417133D01*
X147872151Y-78404520D01*
X147894329Y-78394030D01*
X147917429Y-78385765D01*
X147941227Y-78379804D01*
X147965496Y-78376204D01*
X147990000Y-78375000D01*
X149190000Y-78375000D01*
X149214504Y-78376204D01*
X149214504Y-78376204D01*
G37*
D13*
G04 #@! TD*
G04 #@! TO.P,M1,1*
G04 #@! TO.N,Net-(M1-Pad1)*
X148590000Y-79375000D03*
D14*
G04 #@! TO.P,M1,2*
G04 #@! TO.N,Net-(M1-Pad2)*
X146090000Y-79375000D03*
G04 #@! TD*
G04 #@! TO.P,J4,2*
G04 #@! TO.N,GND*
X168235000Y-113746001D03*
D12*
G04 #@! TD*
G04 #@! TO.N,D4*
G04 #@! TO.C,J4*
G36*
X166359504Y-112747205D02*
X166383773Y-112750805D01*
X166407571Y-112756766D01*
X166430671Y-112765031D01*
X166452849Y-112775521D01*
X166473893Y-112788134D01*
X166493598Y-112802748D01*
X166511777Y-112819224D01*
X166528253Y-112837403D01*
X166542867Y-112857108D01*
X166555480Y-112878152D01*
X166565970Y-112900330D01*
X166574235Y-112923430D01*
X166580196Y-112947228D01*
X166583796Y-112971497D01*
X166585000Y-112996001D01*
X166585000Y-114496001D01*
X166583796Y-114520505D01*
X166580196Y-114544774D01*
X166574235Y-114568572D01*
X166565970Y-114591672D01*
X166555480Y-114613850D01*
X166542867Y-114634894D01*
X166528253Y-114654599D01*
X166511777Y-114672778D01*
X166493598Y-114689254D01*
X166473893Y-114703868D01*
X166452849Y-114716481D01*
X166430671Y-114726971D01*
X166407571Y-114735236D01*
X166383773Y-114741197D01*
X166359504Y-114744797D01*
X166335000Y-114746001D01*
X165135000Y-114746001D01*
X165110496Y-114744797D01*
X165086227Y-114741197D01*
X165062429Y-114735236D01*
X165039329Y-114726971D01*
X165017151Y-114716481D01*
X164996107Y-114703868D01*
X164976402Y-114689254D01*
X164958223Y-114672778D01*
X164941747Y-114654599D01*
X164927133Y-114634894D01*
X164914520Y-114613850D01*
X164904030Y-114591672D01*
X164895765Y-114568572D01*
X164889804Y-114544774D01*
X164886204Y-114520505D01*
X164885000Y-114496001D01*
X164885000Y-112996001D01*
X164886204Y-112971497D01*
X164889804Y-112947228D01*
X164895765Y-112923430D01*
X164904030Y-112900330D01*
X164914520Y-112878152D01*
X164927133Y-112857108D01*
X164941747Y-112837403D01*
X164958223Y-112819224D01*
X164976402Y-112802748D01*
X164996107Y-112788134D01*
X165017151Y-112775521D01*
X165039329Y-112765031D01*
X165062429Y-112756766D01*
X165086227Y-112750805D01*
X165110496Y-112747205D01*
X165135000Y-112746001D01*
X166335000Y-112746001D01*
X166359504Y-112747205D01*
X166359504Y-112747205D01*
G37*
D13*
G04 #@! TO.P,J4,1*
G04 #@! TO.N,D4*
X165735000Y-113746001D03*
G04 #@! TD*
D12*
G04 #@! TO.N,D3*
G04 #@! TO.C,J3*
G36*
X157469504Y-112747205D02*
X157493773Y-112750805D01*
X157517571Y-112756766D01*
X157540671Y-112765031D01*
X157562849Y-112775521D01*
X157583893Y-112788134D01*
X157603598Y-112802748D01*
X157621777Y-112819224D01*
X157638253Y-112837403D01*
X157652867Y-112857108D01*
X157665480Y-112878152D01*
X157675970Y-112900330D01*
X157684235Y-112923430D01*
X157690196Y-112947228D01*
X157693796Y-112971497D01*
X157695000Y-112996001D01*
X157695000Y-114496001D01*
X157693796Y-114520505D01*
X157690196Y-114544774D01*
X157684235Y-114568572D01*
X157675970Y-114591672D01*
X157665480Y-114613850D01*
X157652867Y-114634894D01*
X157638253Y-114654599D01*
X157621777Y-114672778D01*
X157603598Y-114689254D01*
X157583893Y-114703868D01*
X157562849Y-114716481D01*
X157540671Y-114726971D01*
X157517571Y-114735236D01*
X157493773Y-114741197D01*
X157469504Y-114744797D01*
X157445000Y-114746001D01*
X156245000Y-114746001D01*
X156220496Y-114744797D01*
X156196227Y-114741197D01*
X156172429Y-114735236D01*
X156149329Y-114726971D01*
X156127151Y-114716481D01*
X156106107Y-114703868D01*
X156086402Y-114689254D01*
X156068223Y-114672778D01*
X156051747Y-114654599D01*
X156037133Y-114634894D01*
X156024520Y-114613850D01*
X156014030Y-114591672D01*
X156005765Y-114568572D01*
X155999804Y-114544774D01*
X155996204Y-114520505D01*
X155995000Y-114496001D01*
X155995000Y-112996001D01*
X155996204Y-112971497D01*
X155999804Y-112947228D01*
X156005765Y-112923430D01*
X156014030Y-112900330D01*
X156024520Y-112878152D01*
X156037133Y-112857108D01*
X156051747Y-112837403D01*
X156068223Y-112819224D01*
X156086402Y-112802748D01*
X156106107Y-112788134D01*
X156127151Y-112775521D01*
X156149329Y-112765031D01*
X156172429Y-112756766D01*
X156196227Y-112750805D01*
X156220496Y-112747205D01*
X156245000Y-112746001D01*
X157445000Y-112746001D01*
X157469504Y-112747205D01*
X157469504Y-112747205D01*
G37*
D13*
G04 #@! TD*
G04 #@! TO.P,J3,1*
G04 #@! TO.N,D3*
X156845000Y-113746001D03*
D14*
G04 #@! TO.P,J3,2*
G04 #@! TO.N,GND*
X159345000Y-113746001D03*
G04 #@! TD*
D12*
G04 #@! TO.N,D5*
G04 #@! TO.C,J2*
G36*
X148579504Y-112666204D02*
X148603773Y-112669804D01*
X148627571Y-112675765D01*
X148650671Y-112684030D01*
X148672849Y-112694520D01*
X148693893Y-112707133D01*
X148713598Y-112721747D01*
X148731777Y-112738223D01*
X148748253Y-112756402D01*
X148762867Y-112776107D01*
X148775480Y-112797151D01*
X148785970Y-112819329D01*
X148794235Y-112842429D01*
X148800196Y-112866227D01*
X148803796Y-112890496D01*
X148805000Y-112915000D01*
X148805000Y-114415000D01*
X148803796Y-114439504D01*
X148800196Y-114463773D01*
X148794235Y-114487571D01*
X148785970Y-114510671D01*
X148775480Y-114532849D01*
X148762867Y-114553893D01*
X148748253Y-114573598D01*
X148731777Y-114591777D01*
X148713598Y-114608253D01*
X148693893Y-114622867D01*
X148672849Y-114635480D01*
X148650671Y-114645970D01*
X148627571Y-114654235D01*
X148603773Y-114660196D01*
X148579504Y-114663796D01*
X148555000Y-114665000D01*
X147355000Y-114665000D01*
X147330496Y-114663796D01*
X147306227Y-114660196D01*
X147282429Y-114654235D01*
X147259329Y-114645970D01*
X147237151Y-114635480D01*
X147216107Y-114622867D01*
X147196402Y-114608253D01*
X147178223Y-114591777D01*
X147161747Y-114573598D01*
X147147133Y-114553893D01*
X147134520Y-114532849D01*
X147124030Y-114510671D01*
X147115765Y-114487571D01*
X147109804Y-114463773D01*
X147106204Y-114439504D01*
X147105000Y-114415000D01*
X147105000Y-112915000D01*
X147106204Y-112890496D01*
X147109804Y-112866227D01*
X147115765Y-112842429D01*
X147124030Y-112819329D01*
X147134520Y-112797151D01*
X147147133Y-112776107D01*
X147161747Y-112756402D01*
X147178223Y-112738223D01*
X147196402Y-112721747D01*
X147216107Y-112707133D01*
X147237151Y-112694520D01*
X147259329Y-112684030D01*
X147282429Y-112675765D01*
X147306227Y-112669804D01*
X147330496Y-112666204D01*
X147355000Y-112665000D01*
X148555000Y-112665000D01*
X148579504Y-112666204D01*
X148579504Y-112666204D01*
G37*
D13*
G04 #@! TD*
G04 #@! TO.P,J2,1*
G04 #@! TO.N,D5*
X147955000Y-113665000D03*
D14*
G04 #@! TO.P,J2,2*
G04 #@! TO.N,GND*
X150455000Y-113665000D03*
G04 #@! TD*
D10*
G04 #@! TO.P,U4,1*
G04 #@! TO.N,SDA*
X158115000Y-77470000D03*
D11*
G04 #@! TO.P,U4,2*
G04 #@! TO.N,SCL*
X158115000Y-80010000D03*
G04 #@! TO.P,U4,3*
G04 #@! TO.N,VCC*
X158115000Y-82550000D03*
G04 #@! TO.P,U4,4*
G04 #@! TO.N,GND*
X158115000Y-85090000D03*
G04 #@! TD*
D18*
G04 #@! TO.P,Q1,1*
G04 #@! TO.N,Net-(Q1-Pad1)*
X208915000Y-111125000D03*
D19*
G04 #@! TO.P,Q1,2*
G04 #@! TO.N,Net-(J8-Pad1)*
X206375000Y-111125000D03*
G04 #@! TO.P,Q1,3*
G04 #@! TO.N,GND*
X203835000Y-111125000D03*
G04 #@! TD*
D20*
G04 #@! TO.P,U1,A5*
G04 #@! TO.N,SCL*
X178435000Y-102870000D03*
G04 #@! TO.P,U1,A4*
G04 #@! TO.N,SDA*
X175895000Y-102870000D03*
G04 #@! TO.P,U1,TX@1*
G04 #@! TO.N,Net-(J1-Pad2)*
X189865000Y-93980000D03*
G04 #@! TO.P,U1,RX@1*
G04 #@! TO.N,Net-(J1-Pad3)*
X189865000Y-96520000D03*
G04 #@! TO.P,U1,VCC@1*
G04 #@! TO.N,Net-(J1-Pad4)*
X189865000Y-99060000D03*
G04 #@! TO.P,U1,GND@2*
G04 #@! TO.N,Net-(J1-Pad5)*
X189865000Y-101600000D03*
G04 #@! TO.P,U1,GND@3*
G04 #@! TO.N,N/C*
X159385000Y-97790000D03*
G04 #@! TO.P,U1,A6*
G04 #@! TO.N,Net-(U1-PadA6)*
X159385000Y-100330000D03*
G04 #@! TO.P,U1,A7*
G04 #@! TO.N,Net-(U1-PadA7)*
X159385000Y-102870000D03*
G04 #@! TO.P,U1,RAW*
G04 #@! TO.N,Net-(J10-Pad1)*
X187325000Y-105410000D03*
G04 #@! TO.P,U1,GND@1*
G04 #@! TO.N,GND*
X184785000Y-105410000D03*
G04 #@! TO.P,U1,RST*
G04 #@! TO.N,Net-(U1-PadRST)*
X182245000Y-105410000D03*
G04 #@! TO.P,U1,VCC*
G04 #@! TO.N,VCC*
X179705000Y-105410000D03*
G04 #@! TO.P,U1,A3*
G04 #@! TO.N,Net-(U1-PadA3)*
X177165000Y-105410000D03*
G04 #@! TO.P,U1,D3*
G04 #@! TO.N,D3*
X174625000Y-90170000D03*
G04 #@! TO.P,U1,DTR*
G04 #@! TO.N,Net-(J1-Pad1)*
X189865000Y-91440000D03*
G04 #@! TO.P,U1,TX*
G04 #@! TO.N,Net-(U1-PadTX)*
X187325000Y-90170000D03*
G04 #@! TO.P,U1,RX*
G04 #@! TO.N,Net-(U1-PadRX)*
X184785000Y-90170000D03*
G04 #@! TO.P,U1,RST@1*
G04 #@! TO.N,Net-(U1-PadRST@1)*
X182245000Y-90170000D03*
G04 #@! TO.P,U1,GND*
G04 #@! TO.N,Net-(U1-PadGND)*
X179705000Y-90170000D03*
G04 #@! TO.P,U1,D2*
G04 #@! TO.N,Net-(U1-PadD2)*
X177165000Y-90170000D03*
G04 #@! TO.P,U1,D4*
G04 #@! TO.N,D4*
X172085000Y-90170000D03*
G04 #@! TO.P,U1,D5*
G04 #@! TO.N,D5*
X169545000Y-90170000D03*
G04 #@! TO.P,U1,D6*
G04 #@! TO.N,Net-(U1-PadD6)*
X167005000Y-90170000D03*
G04 #@! TO.P,U1,D7*
G04 #@! TO.N,Net-(U1-PadD7)*
X164465000Y-90170000D03*
G04 #@! TO.P,U1,D8*
G04 #@! TO.N,Net-(U1-PadD8)*
X161925000Y-90170000D03*
G04 #@! TO.P,U1,D9*
G04 #@! TO.N,Net-(U1-PadD9)*
X159385000Y-90170000D03*
G04 #@! TO.P,U1,D10*
G04 #@! TO.N,D10*
X159385000Y-105410000D03*
G04 #@! TO.P,U1,D11*
G04 #@! TO.N,Net-(U1-PadD11)*
X161925000Y-105410000D03*
G04 #@! TO.P,U1,D12*
G04 #@! TO.N,Net-(U1-PadD12)*
X164465000Y-105410000D03*
G04 #@! TO.P,U1,D13*
G04 #@! TO.N,Net-(U1-PadD13)*
X167005000Y-105410000D03*
G04 #@! TO.P,U1,A0*
G04 #@! TO.N,Net-(U1-PadA0)*
X169545000Y-105410000D03*
G04 #@! TO.P,U1,A1*
G04 #@! TO.N,Net-(U1-PadA1)*
X172085000Y-105410000D03*
G04 #@! TO.P,U1,A2*
G04 #@! TO.N,Net-(U1-PadA2)*
X174625000Y-105410000D03*
G04 #@! TO.P,U1,BLK*
G04 #@! TO.N,Net-(J1-Pad6)*
X189865000Y-104140000D03*
G04 #@! TD*
D21*
G04 #@! TO.N,Net-(Q1-Pad1)*
X208915000Y-106680000D03*
G04 #@! TO.N,VCC*
X180975000Y-107315000D03*
X186055000Y-111125000D03*
X201930000Y-113753295D03*
G04 #@! TO.N,Net-(M1-Pad1)*
X144780000Y-84455000D03*
G04 #@! TO.N,D5*
X167005000Y-93345000D03*
G04 #@! TO.N,D3*
X169545000Y-95250000D03*
G04 #@! TO.N,D4*
X172085000Y-94615000D03*
G04 #@! TO.N,D10*
X168275000Y-88900000D03*
G04 #@! TO.N,Net-(J9-Pad1)*
X148590000Y-95885000D03*
X163195000Y-109220000D03*
G04 #@! TO.N,Net-(J9-Pad2)*
X148590000Y-107950000D03*
X155575000Y-116205000D03*
G04 #@! TD*
D22*
G04 #@! TO.N,Net-(Q1-Pad1)*
X208915000Y-106680000D02*
X208915000Y-111125000D01*
G04 #@! TO.N,VCC*
X153614990Y-78049990D02*
X157265001Y-81700001D01*
X145603295Y-78049990D02*
X153614990Y-78049990D01*
X157265001Y-81700001D02*
X158115000Y-82550000D01*
X137700001Y-86454999D02*
X137700001Y-85953284D01*
X137700001Y-85953284D02*
X145603295Y-78049990D01*
X136525000Y-87630000D02*
X137700001Y-86454999D01*
X169200172Y-82550000D02*
X174187831Y-77562341D01*
X158115000Y-82550000D02*
X169200172Y-82550000D01*
X175177780Y-77562341D02*
X177997831Y-77562341D01*
X174187831Y-77562341D02*
X175177780Y-77562341D01*
X178987780Y-77562341D02*
X181807831Y-77562341D01*
X177997831Y-77562341D02*
X178987780Y-77562341D01*
X182507830Y-78262340D02*
X181807831Y-77562341D01*
X183705999Y-79460509D02*
X182507830Y-78262340D01*
X183705999Y-101409001D02*
X183705999Y-79460509D01*
X179705000Y-105410000D02*
X183705999Y-101409001D01*
X179705000Y-105410000D02*
X179705000Y-106045000D01*
X179705000Y-106045000D02*
X180975000Y-107315000D01*
X186055000Y-111125000D02*
X199301705Y-111125000D01*
X199301705Y-111125000D02*
X201930000Y-113753295D01*
G04 #@! TO.N,Net-(M1-Pad1)*
X136525000Y-92710000D02*
X144780000Y-84455000D01*
G04 #@! TO.N,Net-(M1-Pad2)*
X146090000Y-85685000D02*
X136525000Y-95250000D01*
X146090000Y-79375000D02*
X146090000Y-85685000D01*
G04 #@! TO.N,D5*
X174187831Y-85527169D02*
X174187831Y-85182341D01*
X169545000Y-90170000D02*
X174187831Y-85527169D01*
X167005000Y-92710000D02*
X169545000Y-90170000D01*
X167005000Y-93345000D02*
X167005000Y-92710000D01*
G04 #@! TO.N,D3*
X174625000Y-90170000D02*
X169545000Y-95250000D01*
G04 #@! TO.N,D4*
X165735000Y-113746001D02*
X165735000Y-100965000D01*
X165735000Y-100965000D02*
X172085000Y-94615000D01*
X172838999Y-89416001D02*
X172085000Y-90170000D01*
X173990000Y-88265000D02*
X172838999Y-89416001D01*
X178725172Y-88265000D02*
X173990000Y-88265000D01*
X181807831Y-85182341D02*
X178725172Y-88265000D01*
G04 #@! TO.N,D10*
X168275000Y-87285172D02*
X170377831Y-85182341D01*
X168275000Y-88900000D02*
X168275000Y-87285172D01*
G04 #@! TO.N,Net-(J8-Pad1)*
X206375000Y-111172500D02*
X206375000Y-111125000D01*
X202977499Y-114570001D02*
X206375000Y-111172500D01*
X195944999Y-114570001D02*
X202977499Y-114570001D01*
X194945000Y-115570000D02*
X195944999Y-114570001D01*
G04 #@! TO.N,Net-(J9-Pad1)*
X156135998Y-109220000D02*
X163195000Y-109220000D01*
X148590000Y-95885000D02*
X148590000Y-101674002D01*
X148590000Y-101674002D02*
X156135998Y-109220000D01*
G04 #@! TO.N,Net-(J9-Pad2)*
X148590000Y-107950000D02*
X148590000Y-109220000D01*
X148590000Y-109220000D02*
X155575000Y-116205000D01*
G04 #@! TO.N,Net-(J10-Pad1)*
X186571001Y-106163999D02*
X187325000Y-105410000D01*
X183705999Y-106489001D02*
X186245999Y-106489001D01*
X186245999Y-106489001D02*
X186571001Y-106163999D01*
X176530000Y-113665000D02*
X183705999Y-106489001D01*
X175624447Y-114570553D02*
X176530000Y-113665000D01*
X136525000Y-114765000D02*
X138690001Y-116930001D01*
X173264999Y-116930001D02*
X175624447Y-114570553D01*
X138690001Y-116930001D02*
X173264999Y-116930001D01*
X136525000Y-113665000D02*
X136525000Y-114765000D01*
G04 #@! TO.N,Net-(J1-Pad2)*
X191135000Y-92710000D02*
X189865000Y-93980000D01*
X194945000Y-92710000D02*
X191135000Y-92710000D01*
G04 #@! TO.N,Net-(J1-Pad4)*
X191135000Y-97790000D02*
X189865000Y-99060000D01*
X194945000Y-97790000D02*
X191135000Y-97790000D01*
G04 #@! TO.N,Net-(J1-Pad5)*
X191135000Y-100330000D02*
X189865000Y-101600000D01*
X194945000Y-100330000D02*
X191135000Y-100330000D01*
G04 #@! TO.N,Net-(J1-Pad1)*
X191135000Y-90170000D02*
X189865000Y-91440000D01*
X194945000Y-90170000D02*
X191135000Y-90170000D01*
G04 #@! TO.N,Net-(J1-Pad6)*
X191135000Y-102870000D02*
X189865000Y-104140000D01*
X194945000Y-102870000D02*
X191135000Y-102870000D01*
G04 #@! TO.N,Net-(J1-Pad3)*
X191135000Y-95250000D02*
X189865000Y-96520000D01*
X194945000Y-95250000D02*
X191135000Y-95250000D01*
G04 #@! TD*
D23*
G04 #@! TO.N,GND*
G36*
X216087787Y-75684065D02*
X216252920Y-75779405D01*
X216375488Y-75925477D01*
X216451555Y-76134465D01*
X216460001Y-76231007D01*
X216460000Y-117412881D01*
X216415935Y-117662787D01*
X216320596Y-117827919D01*
X216174524Y-117950488D01*
X215965532Y-118026555D01*
X215869004Y-118035000D01*
X133412119Y-118035000D01*
X133162213Y-117990935D01*
X132997081Y-117895596D01*
X132874512Y-117749524D01*
X132798445Y-117540532D01*
X132790000Y-117444004D01*
X132790000Y-107823000D01*
X133001000Y-107823000D01*
X133115038Y-108543010D01*
X133445990Y-109192540D01*
X133961460Y-109708010D01*
X134610990Y-110038962D01*
X135331000Y-110153000D01*
X136051010Y-110038962D01*
X136700540Y-109708010D01*
X137216010Y-109192540D01*
X137546962Y-108543010D01*
X137661000Y-107823000D01*
X137546962Y-107102990D01*
X137216010Y-106453460D01*
X136700540Y-105937990D01*
X136051010Y-105607038D01*
X135331000Y-105493000D01*
X134610990Y-105607038D01*
X133961460Y-105937990D01*
X133445990Y-106453460D01*
X133115038Y-107102990D01*
X133001000Y-107823000D01*
X132790000Y-107823000D01*
X132790000Y-103226890D01*
X135083524Y-103226890D01*
X135253355Y-103636924D01*
X135643642Y-104065183D01*
X136168108Y-104311486D01*
X136398000Y-104190819D01*
X136398000Y-102997000D01*
X136652000Y-102997000D01*
X136652000Y-104190819D01*
X136881892Y-104311486D01*
X137406358Y-104065183D01*
X137796645Y-103636924D01*
X137966476Y-103226890D01*
X137845155Y-102997000D01*
X136652000Y-102997000D01*
X136398000Y-102997000D01*
X135204845Y-102997000D01*
X135083524Y-103226890D01*
X132790000Y-103226890D01*
X132790000Y-87630000D01*
X135010908Y-87630000D01*
X135126161Y-88209418D01*
X135454375Y-88700625D01*
X135752761Y-88900000D01*
X135454375Y-89099375D01*
X135126161Y-89590582D01*
X135010908Y-90170000D01*
X135126161Y-90749418D01*
X135454375Y-91240625D01*
X135752761Y-91440000D01*
X135454375Y-91639375D01*
X135126161Y-92130582D01*
X135010908Y-92710000D01*
X135126161Y-93289418D01*
X135454375Y-93780625D01*
X135752761Y-93980000D01*
X135454375Y-94179375D01*
X135126161Y-94670582D01*
X135010908Y-95250000D01*
X135126161Y-95829418D01*
X135454375Y-96320625D01*
X135752761Y-96520000D01*
X135454375Y-96719375D01*
X135126161Y-97210582D01*
X135010908Y-97790000D01*
X135126161Y-98369418D01*
X135454375Y-98860625D01*
X135752761Y-99060000D01*
X135454375Y-99259375D01*
X135126161Y-99750582D01*
X135010908Y-100330000D01*
X135126161Y-100909418D01*
X135454375Y-101400625D01*
X135773478Y-101613843D01*
X135643642Y-101674817D01*
X135253355Y-102103076D01*
X135083524Y-102513110D01*
X135204845Y-102743000D01*
X136398000Y-102743000D01*
X136398000Y-102723000D01*
X136652000Y-102723000D01*
X136652000Y-102743000D01*
X137845155Y-102743000D01*
X137966476Y-102513110D01*
X137796645Y-102103076D01*
X137406358Y-101674817D01*
X137276522Y-101613843D01*
X137595625Y-101400625D01*
X137923839Y-100909418D01*
X138039092Y-100330000D01*
X137923839Y-99750582D01*
X137595625Y-99259375D01*
X137297239Y-99060000D01*
X137595625Y-98860625D01*
X137923839Y-98369418D01*
X138039092Y-97790000D01*
X137923839Y-97210582D01*
X137595625Y-96719375D01*
X137297239Y-96520000D01*
X137595625Y-96320625D01*
X137923839Y-95829418D01*
X137953733Y-95679126D01*
X147555000Y-95679126D01*
X147555000Y-96090874D01*
X147712569Y-96471280D01*
X147830000Y-96588711D01*
X147830001Y-101599150D01*
X147815112Y-101674002D01*
X147874097Y-101970539D01*
X147996747Y-102154097D01*
X148042072Y-102221931D01*
X148105528Y-102264331D01*
X155545668Y-109704472D01*
X155588069Y-109767929D01*
X155651525Y-109810329D01*
X155839460Y-109935904D01*
X155887603Y-109945480D01*
X156061146Y-109980000D01*
X156061150Y-109980000D01*
X156135998Y-109994888D01*
X156210846Y-109980000D01*
X162491289Y-109980000D01*
X162608720Y-110097431D01*
X162989126Y-110255000D01*
X163400874Y-110255000D01*
X163781280Y-110097431D01*
X164072431Y-109806280D01*
X164230000Y-109425874D01*
X164230000Y-109014126D01*
X164072431Y-108633720D01*
X163781280Y-108342569D01*
X163400874Y-108185000D01*
X162989126Y-108185000D01*
X162608720Y-108342569D01*
X162491289Y-108460000D01*
X156450800Y-108460000D01*
X152197466Y-104206666D01*
X152595625Y-103940625D01*
X152923839Y-103449418D01*
X153039092Y-102870000D01*
X152923839Y-102290582D01*
X152595625Y-101799375D01*
X152297239Y-101600000D01*
X152595625Y-101400625D01*
X152923839Y-100909418D01*
X153039092Y-100330000D01*
X152923839Y-99750582D01*
X152595625Y-99259375D01*
X152297239Y-99060000D01*
X152595625Y-98860625D01*
X152923839Y-98369418D01*
X153039092Y-97790000D01*
X152923839Y-97210582D01*
X152595625Y-96719375D01*
X152297239Y-96520000D01*
X152595625Y-96320625D01*
X152923839Y-95829418D01*
X153039092Y-95250000D01*
X152923839Y-94670582D01*
X152595625Y-94179375D01*
X152297239Y-93980000D01*
X152595625Y-93780625D01*
X152923839Y-93289418D01*
X153039092Y-92710000D01*
X152923839Y-92130582D01*
X152595625Y-91639375D01*
X152297239Y-91440000D01*
X152595625Y-91240625D01*
X152923839Y-90749418D01*
X153039092Y-90170000D01*
X152923839Y-89590582D01*
X152595625Y-89099375D01*
X152297239Y-88900000D01*
X152595625Y-88700625D01*
X152923839Y-88209418D01*
X153039092Y-87630000D01*
X152923839Y-87050582D01*
X152595625Y-86559375D01*
X152313389Y-86370791D01*
X152366185Y-86348922D01*
X152783922Y-85931185D01*
X152984523Y-85446890D01*
X156673524Y-85446890D01*
X156843355Y-85856924D01*
X157233642Y-86285183D01*
X157758108Y-86531486D01*
X157988000Y-86410819D01*
X157988000Y-85217000D01*
X158242000Y-85217000D01*
X158242000Y-86410819D01*
X158471892Y-86531486D01*
X158996358Y-86285183D01*
X159386645Y-85856924D01*
X159556476Y-85446890D01*
X159435155Y-85217000D01*
X158242000Y-85217000D01*
X157988000Y-85217000D01*
X156794845Y-85217000D01*
X156673524Y-85446890D01*
X152984523Y-85446890D01*
X153010000Y-85385385D01*
X153010000Y-84794615D01*
X152783922Y-84248815D01*
X152366185Y-83831078D01*
X151820385Y-83605000D01*
X151229615Y-83605000D01*
X150683815Y-83831078D01*
X150266078Y-84248815D01*
X150040000Y-84794615D01*
X150040000Y-85385385D01*
X150266078Y-85931185D01*
X150683815Y-86348922D01*
X150736611Y-86370791D01*
X150454375Y-86559375D01*
X150126161Y-87050582D01*
X150010908Y-87630000D01*
X150126161Y-88209418D01*
X150454375Y-88700625D01*
X150752761Y-88900000D01*
X150454375Y-89099375D01*
X150126161Y-89590582D01*
X150010908Y-90170000D01*
X150126161Y-90749418D01*
X150454375Y-91240625D01*
X150752761Y-91440000D01*
X150454375Y-91639375D01*
X150126161Y-92130582D01*
X150010908Y-92710000D01*
X150126161Y-93289418D01*
X150454375Y-93780625D01*
X150752761Y-93980000D01*
X150454375Y-94179375D01*
X150126161Y-94670582D01*
X150010908Y-95250000D01*
X150126161Y-95829418D01*
X150454375Y-96320625D01*
X150752761Y-96520000D01*
X150454375Y-96719375D01*
X150126161Y-97210582D01*
X150010908Y-97790000D01*
X150126161Y-98369418D01*
X150454375Y-98860625D01*
X150752761Y-99060000D01*
X150454375Y-99259375D01*
X150126161Y-99750582D01*
X150010908Y-100330000D01*
X150126161Y-100909418D01*
X150454375Y-101400625D01*
X150752761Y-101600000D01*
X150454375Y-101799375D01*
X150188333Y-102197534D01*
X149350000Y-101359201D01*
X149350000Y-96588711D01*
X149467431Y-96471280D01*
X149625000Y-96090874D01*
X149625000Y-95679126D01*
X149467431Y-95298720D01*
X149176280Y-95007569D01*
X148795874Y-94850000D01*
X148384126Y-94850000D01*
X148003720Y-95007569D01*
X147712569Y-95298720D01*
X147555000Y-95679126D01*
X137953733Y-95679126D01*
X138039092Y-95250000D01*
X137966209Y-94883592D01*
X146574473Y-86275329D01*
X146637929Y-86232929D01*
X146696800Y-86144822D01*
X146805904Y-85981538D01*
X146830691Y-85856924D01*
X146850000Y-85759852D01*
X146850000Y-85759848D01*
X146864888Y-85685000D01*
X146850000Y-85610152D01*
X146850000Y-80803178D01*
X147160625Y-80595625D01*
X147203242Y-80531844D01*
X147355414Y-80759586D01*
X147646565Y-80954126D01*
X147990000Y-81022440D01*
X149190000Y-81022440D01*
X149533435Y-80954126D01*
X149824586Y-80759586D01*
X150019126Y-80468435D01*
X150087440Y-80125000D01*
X150087440Y-78809990D01*
X153300189Y-78809990D01*
X156673791Y-82183593D01*
X156600908Y-82550000D01*
X156716161Y-83129418D01*
X157044375Y-83620625D01*
X157363478Y-83833843D01*
X157233642Y-83894817D01*
X156843355Y-84323076D01*
X156673524Y-84733110D01*
X156794845Y-84963000D01*
X157988000Y-84963000D01*
X157988000Y-84943000D01*
X158242000Y-84943000D01*
X158242000Y-84963000D01*
X159435155Y-84963000D01*
X159556476Y-84733110D01*
X159386645Y-84323076D01*
X158996358Y-83894817D01*
X158866522Y-83833843D01*
X159185625Y-83620625D01*
X159393178Y-83310000D01*
X169125325Y-83310000D01*
X169200172Y-83324888D01*
X169275019Y-83310000D01*
X169275024Y-83310000D01*
X169496709Y-83265904D01*
X169748101Y-83097929D01*
X169790503Y-83034470D01*
X173927633Y-78897341D01*
X174453379Y-78897341D01*
X174944048Y-78694099D01*
X175315806Y-78322341D01*
X176869856Y-78322341D01*
X177241614Y-78694099D01*
X177732283Y-78897341D01*
X178263379Y-78897341D01*
X178754048Y-78694099D01*
X179125806Y-78322341D01*
X180679856Y-78322341D01*
X181051614Y-78694099D01*
X181542283Y-78897341D01*
X182068030Y-78897341D01*
X182946000Y-79775312D01*
X182946000Y-84482795D01*
X182770312Y-84219860D01*
X182328722Y-83924799D01*
X181939316Y-83847341D01*
X181676346Y-83847341D01*
X181286940Y-83924799D01*
X180845350Y-84219860D01*
X180550289Y-84661450D01*
X180446677Y-85182341D01*
X180494186Y-85421184D01*
X178410371Y-87505000D01*
X174064846Y-87505000D01*
X173989999Y-87490112D01*
X173915152Y-87505000D01*
X173915148Y-87505000D01*
X173693463Y-87549096D01*
X173442071Y-87717071D01*
X173399671Y-87780527D01*
X172388095Y-88792104D01*
X172361289Y-88781000D01*
X172008801Y-88781000D01*
X174272461Y-86517341D01*
X174319316Y-86517341D01*
X174708722Y-86439883D01*
X175150312Y-86144822D01*
X175445373Y-85703232D01*
X175548985Y-85182341D01*
X176636677Y-85182341D01*
X176740289Y-85703232D01*
X177035350Y-86144822D01*
X177476940Y-86439883D01*
X177866346Y-86517341D01*
X178129316Y-86517341D01*
X178518722Y-86439883D01*
X178960312Y-86144822D01*
X179255373Y-85703232D01*
X179358985Y-85182341D01*
X179255373Y-84661450D01*
X178960312Y-84219860D01*
X178518722Y-83924799D01*
X178129316Y-83847341D01*
X177866346Y-83847341D01*
X177476940Y-83924799D01*
X177035350Y-84219860D01*
X176740289Y-84661450D01*
X176636677Y-85182341D01*
X175548985Y-85182341D01*
X175445373Y-84661450D01*
X175150312Y-84219860D01*
X174708722Y-83924799D01*
X174319316Y-83847341D01*
X174056346Y-83847341D01*
X173666940Y-83924799D01*
X173225350Y-84219860D01*
X172930289Y-84661450D01*
X172826677Y-85182341D01*
X172930289Y-85703232D01*
X172932963Y-85707235D01*
X169848095Y-88792104D01*
X169821289Y-88781000D01*
X169310000Y-88781000D01*
X169310000Y-88694126D01*
X169152431Y-88313720D01*
X169035000Y-88196289D01*
X169035000Y-87599973D01*
X170138988Y-86495986D01*
X170246346Y-86517341D01*
X170509316Y-86517341D01*
X170898722Y-86439883D01*
X171340312Y-86144822D01*
X171635373Y-85703232D01*
X171738985Y-85182341D01*
X171635373Y-84661450D01*
X171340312Y-84219860D01*
X170898722Y-83924799D01*
X170509316Y-83847341D01*
X170246346Y-83847341D01*
X169856940Y-83924799D01*
X169415350Y-84219860D01*
X169120289Y-84661450D01*
X169016677Y-85182341D01*
X169064186Y-85421184D01*
X167790528Y-86694843D01*
X167727072Y-86737243D01*
X167684672Y-86800699D01*
X167684671Y-86800700D01*
X167559097Y-86988635D01*
X167500112Y-87285172D01*
X167515001Y-87360023D01*
X167515000Y-88196289D01*
X167397569Y-88313720D01*
X167240000Y-88694126D01*
X167240000Y-88781000D01*
X166728711Y-88781000D01*
X166218195Y-88992463D01*
X165827463Y-89383195D01*
X165735000Y-89606420D01*
X165642537Y-89383195D01*
X165251805Y-88992463D01*
X164741289Y-88781000D01*
X164188711Y-88781000D01*
X163678195Y-88992463D01*
X163287463Y-89383195D01*
X163195000Y-89606420D01*
X163102537Y-89383195D01*
X162711805Y-88992463D01*
X162201289Y-88781000D01*
X161648711Y-88781000D01*
X161138195Y-88992463D01*
X160747463Y-89383195D01*
X160655000Y-89606420D01*
X160562537Y-89383195D01*
X160171805Y-88992463D01*
X159661289Y-88781000D01*
X159108711Y-88781000D01*
X158598195Y-88992463D01*
X158207463Y-89383195D01*
X157996000Y-89893711D01*
X157996000Y-90446289D01*
X158207463Y-90956805D01*
X158598195Y-91347537D01*
X159108711Y-91559000D01*
X159661289Y-91559000D01*
X160171805Y-91347537D01*
X160562537Y-90956805D01*
X160655000Y-90733580D01*
X160747463Y-90956805D01*
X161138195Y-91347537D01*
X161648711Y-91559000D01*
X162201289Y-91559000D01*
X162711805Y-91347537D01*
X163102537Y-90956805D01*
X163195000Y-90733580D01*
X163287463Y-90956805D01*
X163678195Y-91347537D01*
X164188711Y-91559000D01*
X164741289Y-91559000D01*
X165251805Y-91347537D01*
X165642537Y-90956805D01*
X165735000Y-90733580D01*
X165827463Y-90956805D01*
X166218195Y-91347537D01*
X166728711Y-91559000D01*
X167081198Y-91559000D01*
X166520528Y-92119671D01*
X166457072Y-92162071D01*
X166289096Y-92413463D01*
X166245000Y-92635148D01*
X166245000Y-92635153D01*
X166243476Y-92642813D01*
X166127569Y-92758720D01*
X165970000Y-93139126D01*
X165970000Y-93550874D01*
X166127569Y-93931280D01*
X166418720Y-94222431D01*
X166799126Y-94380000D01*
X167210874Y-94380000D01*
X167591280Y-94222431D01*
X167882431Y-93931280D01*
X168040000Y-93550874D01*
X168040000Y-93139126D01*
X167925970Y-92863832D01*
X169241906Y-91547897D01*
X169268711Y-91559000D01*
X169821289Y-91559000D01*
X170331805Y-91347537D01*
X170722537Y-90956805D01*
X170815000Y-90733580D01*
X170907463Y-90956805D01*
X171298195Y-91347537D01*
X171808711Y-91559000D01*
X172161198Y-91559000D01*
X169505199Y-94215000D01*
X169339126Y-94215000D01*
X168958720Y-94372569D01*
X168667569Y-94663720D01*
X168510000Y-95044126D01*
X168510000Y-95455874D01*
X168667569Y-95836280D01*
X168958720Y-96127431D01*
X169339126Y-96285000D01*
X169340198Y-96285000D01*
X165250528Y-100374671D01*
X165187072Y-100417071D01*
X165019097Y-100668463D01*
X164989219Y-100818672D01*
X164960112Y-100965000D01*
X164975001Y-101039852D01*
X164975001Y-104117807D01*
X164741289Y-104021000D01*
X164188711Y-104021000D01*
X163678195Y-104232463D01*
X163287463Y-104623195D01*
X163195000Y-104846420D01*
X163102537Y-104623195D01*
X162711805Y-104232463D01*
X162201289Y-104021000D01*
X161648711Y-104021000D01*
X161138195Y-104232463D01*
X160747463Y-104623195D01*
X160655000Y-104846420D01*
X160562537Y-104623195D01*
X160171805Y-104232463D01*
X159948580Y-104140000D01*
X160171805Y-104047537D01*
X160562537Y-103656805D01*
X160774000Y-103146289D01*
X160774000Y-102593711D01*
X160562537Y-102083195D01*
X160171805Y-101692463D01*
X159948580Y-101600000D01*
X160171805Y-101507537D01*
X160562537Y-101116805D01*
X160774000Y-100606289D01*
X160774000Y-100053711D01*
X160562537Y-99543195D01*
X160171805Y-99152463D01*
X159948580Y-99060000D01*
X160171805Y-98967537D01*
X160562537Y-98576805D01*
X160774000Y-98066289D01*
X160774000Y-97513711D01*
X160562537Y-97003195D01*
X160171805Y-96612463D01*
X159661289Y-96401000D01*
X159108711Y-96401000D01*
X158598195Y-96612463D01*
X158207463Y-97003195D01*
X157996000Y-97513711D01*
X157996000Y-98066289D01*
X158207463Y-98576805D01*
X158598195Y-98967537D01*
X158821420Y-99060000D01*
X158598195Y-99152463D01*
X158207463Y-99543195D01*
X157996000Y-100053711D01*
X157996000Y-100606289D01*
X158207463Y-101116805D01*
X158598195Y-101507537D01*
X158821420Y-101600000D01*
X158598195Y-101692463D01*
X158207463Y-102083195D01*
X157996000Y-102593711D01*
X157996000Y-103146289D01*
X158207463Y-103656805D01*
X158598195Y-104047537D01*
X158821420Y-104140000D01*
X158598195Y-104232463D01*
X158207463Y-104623195D01*
X157996000Y-105133711D01*
X157996000Y-105686289D01*
X158207463Y-106196805D01*
X158598195Y-106587537D01*
X159108711Y-106799000D01*
X159661289Y-106799000D01*
X160171805Y-106587537D01*
X160562537Y-106196805D01*
X160655000Y-105973580D01*
X160747463Y-106196805D01*
X161138195Y-106587537D01*
X161648711Y-106799000D01*
X162201289Y-106799000D01*
X162711805Y-106587537D01*
X163102537Y-106196805D01*
X163195000Y-105973580D01*
X163287463Y-106196805D01*
X163678195Y-106587537D01*
X164188711Y-106799000D01*
X164741289Y-106799000D01*
X164975001Y-106702193D01*
X164975000Y-112130387D01*
X164791565Y-112166875D01*
X164500414Y-112361415D01*
X164305874Y-112652566D01*
X164237560Y-112996001D01*
X164237560Y-114496001D01*
X164305874Y-114839436D01*
X164500414Y-115130587D01*
X164791565Y-115325127D01*
X165135000Y-115393441D01*
X166335000Y-115393441D01*
X166678435Y-115325127D01*
X166969586Y-115130587D01*
X167146648Y-114865594D01*
X167342955Y-115084665D01*
X167865740Y-115335554D01*
X167878110Y-115337477D01*
X168108000Y-115216156D01*
X168108000Y-113873001D01*
X168362000Y-113873001D01*
X168362000Y-115216156D01*
X168591890Y-115337477D01*
X168604260Y-115335554D01*
X169127045Y-115084665D01*
X169514024Y-114652813D01*
X169706284Y-114105743D01*
X169562231Y-113873001D01*
X168362000Y-113873001D01*
X168108000Y-113873001D01*
X168088000Y-113873001D01*
X168088000Y-113619001D01*
X168108000Y-113619001D01*
X168108000Y-112275846D01*
X168362000Y-112275846D01*
X168362000Y-113619001D01*
X169562231Y-113619001D01*
X169706284Y-113386259D01*
X169514024Y-112839189D01*
X169127045Y-112407337D01*
X168604260Y-112156448D01*
X168591890Y-112154525D01*
X168362000Y-112275846D01*
X168108000Y-112275846D01*
X167878110Y-112154525D01*
X167865740Y-112156448D01*
X167342955Y-112407337D01*
X167146648Y-112626408D01*
X166969586Y-112361415D01*
X166678435Y-112166875D01*
X166495000Y-112130387D01*
X166495000Y-106702194D01*
X166728711Y-106799000D01*
X167281289Y-106799000D01*
X167791805Y-106587537D01*
X168182537Y-106196805D01*
X168275000Y-105973580D01*
X168367463Y-106196805D01*
X168758195Y-106587537D01*
X169268711Y-106799000D01*
X169821289Y-106799000D01*
X170331805Y-106587537D01*
X170722537Y-106196805D01*
X170815000Y-105973580D01*
X170907463Y-106196805D01*
X171298195Y-106587537D01*
X171808711Y-106799000D01*
X172361289Y-106799000D01*
X172871805Y-106587537D01*
X173262537Y-106196805D01*
X173355000Y-105973580D01*
X173447463Y-106196805D01*
X173838195Y-106587537D01*
X174348711Y-106799000D01*
X174901289Y-106799000D01*
X175411805Y-106587537D01*
X175802537Y-106196805D01*
X175895000Y-105973580D01*
X175987463Y-106196805D01*
X176378195Y-106587537D01*
X176888711Y-106799000D01*
X177441289Y-106799000D01*
X177951805Y-106587537D01*
X178342537Y-106196805D01*
X178435000Y-105973580D01*
X178527463Y-106196805D01*
X178918195Y-106587537D01*
X179352724Y-106767525D01*
X179940000Y-107354802D01*
X179940000Y-107520874D01*
X180097569Y-107901280D01*
X180388720Y-108192431D01*
X180769126Y-108350000D01*
X180770198Y-108350000D01*
X177102639Y-112017560D01*
X175930000Y-112017560D01*
X175586565Y-112085874D01*
X175295414Y-112280414D01*
X175100874Y-112571565D01*
X175032560Y-112915000D01*
X175032560Y-114087637D01*
X172950198Y-116170001D01*
X156610000Y-116170001D01*
X156610000Y-115999126D01*
X156452431Y-115618720D01*
X156222720Y-115389009D01*
X156245000Y-115393441D01*
X157445000Y-115393441D01*
X157788435Y-115325127D01*
X158079586Y-115130587D01*
X158256648Y-114865594D01*
X158452955Y-115084665D01*
X158975740Y-115335554D01*
X158988110Y-115337477D01*
X159218000Y-115216156D01*
X159218000Y-113873001D01*
X159472000Y-113873001D01*
X159472000Y-115216156D01*
X159701890Y-115337477D01*
X159714260Y-115335554D01*
X160237045Y-115084665D01*
X160624024Y-114652813D01*
X160816284Y-114105743D01*
X160672231Y-113873001D01*
X159472000Y-113873001D01*
X159218000Y-113873001D01*
X159198000Y-113873001D01*
X159198000Y-113619001D01*
X159218000Y-113619001D01*
X159218000Y-112275846D01*
X159472000Y-112275846D01*
X159472000Y-113619001D01*
X160672231Y-113619001D01*
X160816284Y-113386259D01*
X160624024Y-112839189D01*
X160237045Y-112407337D01*
X159714260Y-112156448D01*
X159701890Y-112154525D01*
X159472000Y-112275846D01*
X159218000Y-112275846D01*
X158988110Y-112154525D01*
X158975740Y-112156448D01*
X158452955Y-112407337D01*
X158256648Y-112626408D01*
X158079586Y-112361415D01*
X157788435Y-112166875D01*
X157445000Y-112098561D01*
X156245000Y-112098561D01*
X155901565Y-112166875D01*
X155610414Y-112361415D01*
X155415874Y-112652566D01*
X155347560Y-112996001D01*
X155347560Y-114496001D01*
X155415874Y-114839436D01*
X155610414Y-115130587D01*
X155669400Y-115170000D01*
X155614802Y-115170000D01*
X149350000Y-108905199D01*
X149350000Y-108653711D01*
X149467431Y-108536280D01*
X149625000Y-108155874D01*
X149625000Y-107744126D01*
X149467431Y-107363720D01*
X149176280Y-107072569D01*
X148795874Y-106915000D01*
X148384126Y-106915000D01*
X148003720Y-107072569D01*
X147712569Y-107363720D01*
X147555000Y-107744126D01*
X147555000Y-108155874D01*
X147712569Y-108536280D01*
X147830001Y-108653712D01*
X147830001Y-109145149D01*
X147815112Y-109220000D01*
X147830001Y-109294852D01*
X147874097Y-109516537D01*
X148042072Y-109767929D01*
X148105528Y-109810329D01*
X150327998Y-112032799D01*
X150327998Y-112194844D01*
X150098110Y-112073524D01*
X150085740Y-112075447D01*
X149562955Y-112326336D01*
X149366648Y-112545407D01*
X149189586Y-112280414D01*
X148898435Y-112085874D01*
X148555000Y-112017560D01*
X147355000Y-112017560D01*
X147011565Y-112085874D01*
X146720414Y-112280414D01*
X146525874Y-112571565D01*
X146457560Y-112915000D01*
X146457560Y-114415000D01*
X146525874Y-114758435D01*
X146720414Y-115049586D01*
X147011565Y-115244126D01*
X147355000Y-115312440D01*
X148555000Y-115312440D01*
X148898435Y-115244126D01*
X149189586Y-115049586D01*
X149366648Y-114784593D01*
X149562955Y-115003664D01*
X150085740Y-115254553D01*
X150098110Y-115256476D01*
X150328000Y-115135155D01*
X150328000Y-113792000D01*
X150582000Y-113792000D01*
X150582000Y-115135155D01*
X150811890Y-115256476D01*
X150824260Y-115254553D01*
X151347045Y-115003664D01*
X151734024Y-114571812D01*
X151926284Y-114024742D01*
X151782231Y-113792000D01*
X150582000Y-113792000D01*
X150328000Y-113792000D01*
X150308000Y-113792000D01*
X150308000Y-113538000D01*
X150328000Y-113538000D01*
X150328000Y-113518000D01*
X150582000Y-113518000D01*
X150582000Y-113538000D01*
X151782231Y-113538000D01*
X151801716Y-113506518D01*
X154465199Y-116170001D01*
X139004803Y-116170001D01*
X137809574Y-114974773D01*
X137936648Y-114784593D01*
X138132955Y-115003664D01*
X138655740Y-115254553D01*
X138668110Y-115256476D01*
X138898000Y-115135155D01*
X138898000Y-113792000D01*
X139152000Y-113792000D01*
X139152000Y-115135155D01*
X139381890Y-115256476D01*
X139394260Y-115254553D01*
X139917045Y-115003664D01*
X140304024Y-114571812D01*
X140496284Y-114024742D01*
X140352231Y-113792000D01*
X139152000Y-113792000D01*
X138898000Y-113792000D01*
X138878000Y-113792000D01*
X138878000Y-113538000D01*
X138898000Y-113538000D01*
X138898000Y-112194845D01*
X139152000Y-112194845D01*
X139152000Y-113538000D01*
X140352231Y-113538000D01*
X140496284Y-113305258D01*
X140304024Y-112758188D01*
X139917045Y-112326336D01*
X139394260Y-112075447D01*
X139381890Y-112073524D01*
X139152000Y-112194845D01*
X138898000Y-112194845D01*
X138668110Y-112073524D01*
X138655740Y-112075447D01*
X138132955Y-112326336D01*
X137936648Y-112545407D01*
X137759586Y-112280414D01*
X137468435Y-112085874D01*
X137125000Y-112017560D01*
X135925000Y-112017560D01*
X135581565Y-112085874D01*
X135290414Y-112280414D01*
X135095874Y-112571565D01*
X135027560Y-112915000D01*
X135027560Y-114415000D01*
X135095874Y-114758435D01*
X135290414Y-115049586D01*
X135581565Y-115244126D01*
X135925000Y-115312440D01*
X135976745Y-115312440D01*
X135977072Y-115312929D01*
X136040528Y-115355329D01*
X138099672Y-117414474D01*
X138142072Y-117477930D01*
X138205528Y-117520330D01*
X138393463Y-117645905D01*
X138429922Y-117653157D01*
X138615149Y-117690001D01*
X138615153Y-117690001D01*
X138690001Y-117704889D01*
X138764849Y-117690001D01*
X173190152Y-117690001D01*
X173264999Y-117704889D01*
X173339846Y-117690001D01*
X173339851Y-117690001D01*
X173561536Y-117645905D01*
X173812928Y-117477930D01*
X173855330Y-117414471D01*
X175957363Y-115312440D01*
X177130000Y-115312440D01*
X177473435Y-115244126D01*
X177764586Y-115049586D01*
X177941648Y-114784593D01*
X178137955Y-115003664D01*
X178660740Y-115254553D01*
X178673110Y-115256476D01*
X178903000Y-115135155D01*
X178903000Y-113792000D01*
X179157000Y-113792000D01*
X179157000Y-115135155D01*
X179386890Y-115256476D01*
X179399260Y-115254553D01*
X179922045Y-115003664D01*
X180309024Y-114571812D01*
X180501284Y-114024742D01*
X180357231Y-113792000D01*
X179157000Y-113792000D01*
X178903000Y-113792000D01*
X178883000Y-113792000D01*
X178883000Y-113538000D01*
X178903000Y-113538000D01*
X178903000Y-113518000D01*
X179157000Y-113518000D01*
X179157000Y-113538000D01*
X180357231Y-113538000D01*
X180501284Y-113305258D01*
X180364134Y-112915000D01*
X184557560Y-112915000D01*
X184557560Y-114415000D01*
X184625874Y-114758435D01*
X184820414Y-115049586D01*
X185111565Y-115244126D01*
X185455000Y-115312440D01*
X186655000Y-115312440D01*
X186998435Y-115244126D01*
X187289586Y-115049586D01*
X187441758Y-114821844D01*
X187484375Y-114885625D01*
X187975583Y-115213839D01*
X188555000Y-115329092D01*
X189134418Y-115213839D01*
X189625625Y-114885625D01*
X189953839Y-114394417D01*
X190040000Y-113961255D01*
X190040000Y-113368744D01*
X189953839Y-112935582D01*
X189625625Y-112444375D01*
X189134417Y-112116161D01*
X188555000Y-112000908D01*
X187975582Y-112116161D01*
X187484375Y-112444375D01*
X187441758Y-112508156D01*
X187289586Y-112280414D01*
X186998435Y-112085874D01*
X186655000Y-112017560D01*
X186604755Y-112017560D01*
X186641280Y-112002431D01*
X186758711Y-111885000D01*
X198986904Y-111885000D01*
X200895000Y-113793098D01*
X200895000Y-113810001D01*
X196019845Y-113810001D01*
X195944998Y-113795113D01*
X195870151Y-113810001D01*
X195870147Y-113810001D01*
X195648462Y-113854097D01*
X195428971Y-114000756D01*
X195270222Y-113935000D01*
X194619778Y-113935000D01*
X194018847Y-114183914D01*
X193558914Y-114643847D01*
X193310000Y-115244778D01*
X193310000Y-115895222D01*
X193558914Y-116496153D01*
X194018847Y-116956086D01*
X194619778Y-117205000D01*
X195270222Y-117205000D01*
X195871153Y-116956086D01*
X196265347Y-116561892D01*
X199218514Y-116561892D01*
X199464817Y-117086358D01*
X199893076Y-117476645D01*
X200303110Y-117646476D01*
X200533000Y-117525155D01*
X200533000Y-116332000D01*
X199339181Y-116332000D01*
X199218514Y-116561892D01*
X196265347Y-116561892D01*
X196331086Y-116496153D01*
X196580000Y-115895222D01*
X196580000Y-115330001D01*
X199461831Y-115330001D01*
X199218514Y-115848108D01*
X199339181Y-116078000D01*
X200533000Y-116078000D01*
X200533000Y-116058000D01*
X200787000Y-116058000D01*
X200787000Y-116078000D01*
X200807000Y-116078000D01*
X200807000Y-116332000D01*
X200787000Y-116332000D01*
X200787000Y-117525155D01*
X201016890Y-117646476D01*
X201426924Y-117476645D01*
X201855183Y-117086358D01*
X201916157Y-116956522D01*
X202129375Y-117275625D01*
X202620582Y-117603839D01*
X203053744Y-117690000D01*
X203346256Y-117690000D01*
X203779418Y-117603839D01*
X204270625Y-117275625D01*
X204470000Y-116977239D01*
X204669375Y-117275625D01*
X205160582Y-117603839D01*
X205593744Y-117690000D01*
X205886256Y-117690000D01*
X206319418Y-117603839D01*
X206810625Y-117275625D01*
X207010000Y-116977239D01*
X207209375Y-117275625D01*
X207700582Y-117603839D01*
X208133744Y-117690000D01*
X208426256Y-117690000D01*
X208859418Y-117603839D01*
X209350625Y-117275625D01*
X209550000Y-116977239D01*
X209749375Y-117275625D01*
X210240582Y-117603839D01*
X210673744Y-117690000D01*
X210966256Y-117690000D01*
X211399418Y-117603839D01*
X211890625Y-117275625D01*
X211902816Y-117257381D01*
X211911843Y-117302765D01*
X212052191Y-117512809D01*
X212262235Y-117653157D01*
X212510000Y-117702440D01*
X214210000Y-117702440D01*
X214457765Y-117653157D01*
X214667809Y-117512809D01*
X214808157Y-117302765D01*
X214857440Y-117055000D01*
X214857440Y-115355000D01*
X214808157Y-115107235D01*
X214667809Y-114897191D01*
X214457765Y-114756843D01*
X214210000Y-114707560D01*
X212510000Y-114707560D01*
X212262235Y-114756843D01*
X212052191Y-114897191D01*
X211911843Y-115107235D01*
X211902816Y-115152619D01*
X211890625Y-115134375D01*
X211399418Y-114806161D01*
X210966256Y-114720000D01*
X210673744Y-114720000D01*
X210240582Y-114806161D01*
X209749375Y-115134375D01*
X209550000Y-115432761D01*
X209350625Y-115134375D01*
X208859418Y-114806161D01*
X208426256Y-114720000D01*
X208133744Y-114720000D01*
X207700582Y-114806161D01*
X207209375Y-115134375D01*
X207010000Y-115432761D01*
X206810625Y-115134375D01*
X206319418Y-114806161D01*
X205886256Y-114720000D01*
X205593744Y-114720000D01*
X205160582Y-114806161D01*
X204669375Y-115134375D01*
X204470000Y-115432761D01*
X204270625Y-115134375D01*
X203801431Y-114820870D01*
X205921424Y-112700878D01*
X206375000Y-112791100D01*
X206994410Y-112667891D01*
X207386491Y-112405912D01*
X207504691Y-112582809D01*
X207714735Y-112723157D01*
X207962500Y-112772440D01*
X209867500Y-112772440D01*
X210115265Y-112723157D01*
X210325309Y-112582809D01*
X210465657Y-112372765D01*
X210514940Y-112125000D01*
X210514940Y-110125000D01*
X210465657Y-109877235D01*
X210325309Y-109667191D01*
X210115265Y-109526843D01*
X209867500Y-109477560D01*
X209675000Y-109477560D01*
X209675000Y-107383711D01*
X209792431Y-107266280D01*
X209950000Y-106885874D01*
X209950000Y-106474126D01*
X209792431Y-106093720D01*
X209501280Y-105802569D01*
X209120874Y-105645000D01*
X208709126Y-105645000D01*
X208328720Y-105802569D01*
X208037569Y-106093720D01*
X207880000Y-106474126D01*
X207880000Y-106885874D01*
X208037569Y-107266280D01*
X208155000Y-107383711D01*
X208155001Y-109477560D01*
X207962500Y-109477560D01*
X207714735Y-109526843D01*
X207504691Y-109667191D01*
X207386491Y-109844088D01*
X206994411Y-109582109D01*
X206375000Y-109458900D01*
X205755590Y-109582109D01*
X205230477Y-109932977D01*
X205095841Y-110134474D01*
X204701924Y-109749027D01*
X204207980Y-109534437D01*
X203962000Y-109654406D01*
X203962000Y-110998000D01*
X203982000Y-110998000D01*
X203982000Y-111252000D01*
X203962000Y-111252000D01*
X203962000Y-111272000D01*
X203708000Y-111272000D01*
X203708000Y-111252000D01*
X202409428Y-111252000D01*
X202282620Y-111498864D01*
X202525682Y-112068091D01*
X202968076Y-112500973D01*
X203462020Y-112715563D01*
X203707998Y-112595595D01*
X203707998Y-112760000D01*
X203712699Y-112760000D01*
X202953366Y-113519333D01*
X202807431Y-113167015D01*
X202516280Y-112875864D01*
X202135874Y-112718295D01*
X201969803Y-112718295D01*
X200002643Y-110751136D01*
X202282620Y-110751136D01*
X202409428Y-110998000D01*
X203708000Y-110998000D01*
X203708000Y-109654406D01*
X203462020Y-109534437D01*
X202968076Y-109749027D01*
X202525682Y-110181909D01*
X202282620Y-110751136D01*
X200002643Y-110751136D01*
X199892036Y-110640530D01*
X199849634Y-110577071D01*
X199598242Y-110409096D01*
X199376557Y-110365000D01*
X199376552Y-110365000D01*
X199301705Y-110350112D01*
X199226858Y-110365000D01*
X196419550Y-110365000D01*
X196830010Y-109954540D01*
X197160962Y-109305010D01*
X197275000Y-108585000D01*
X197160962Y-107864990D01*
X196830010Y-107215460D01*
X196314540Y-106699990D01*
X195665010Y-106369038D01*
X194945000Y-106255000D01*
X194224990Y-106369038D01*
X193575460Y-106699990D01*
X193059990Y-107215460D01*
X192729038Y-107864990D01*
X192615000Y-108585000D01*
X192729038Y-109305010D01*
X193059990Y-109954540D01*
X193470450Y-110365000D01*
X186758711Y-110365000D01*
X186641280Y-110247569D01*
X186260874Y-110090000D01*
X185849126Y-110090000D01*
X185468720Y-110247569D01*
X185177569Y-110538720D01*
X185020000Y-110919126D01*
X185020000Y-111330874D01*
X185177569Y-111711280D01*
X185468720Y-112002431D01*
X185505245Y-112017560D01*
X185455000Y-112017560D01*
X185111565Y-112085874D01*
X184820414Y-112280414D01*
X184625874Y-112571565D01*
X184557560Y-112915000D01*
X180364134Y-112915000D01*
X180309024Y-112758188D01*
X179922045Y-112326336D01*
X179399260Y-112075447D01*
X179386890Y-112073524D01*
X179157002Y-112194844D01*
X179157002Y-112112799D01*
X184020801Y-107249001D01*
X186171152Y-107249001D01*
X186245999Y-107263889D01*
X186320846Y-107249001D01*
X186320851Y-107249001D01*
X186542536Y-107204905D01*
X186793928Y-107036930D01*
X186836330Y-106973471D01*
X187021905Y-106787896D01*
X187048711Y-106799000D01*
X187601289Y-106799000D01*
X188111805Y-106587537D01*
X188502537Y-106196805D01*
X188714000Y-105686289D01*
X188714000Y-105133711D01*
X188502537Y-104623195D01*
X188111805Y-104232463D01*
X187601289Y-104021000D01*
X187048711Y-104021000D01*
X186538195Y-104232463D01*
X186147463Y-104623195D01*
X186061592Y-104830505D01*
X186000772Y-104683671D01*
X185759416Y-104615189D01*
X184964605Y-105410000D01*
X184978748Y-105424143D01*
X184799143Y-105603748D01*
X184785000Y-105589605D01*
X184770858Y-105603748D01*
X184591253Y-105424143D01*
X184605395Y-105410000D01*
X183810584Y-104615189D01*
X183569228Y-104683671D01*
X183512989Y-104841565D01*
X183422537Y-104623195D01*
X183234926Y-104435584D01*
X183990189Y-104435584D01*
X184785000Y-105230395D01*
X185579811Y-104435584D01*
X185511329Y-104194228D01*
X184990786Y-104008819D01*
X184438912Y-104036727D01*
X184058671Y-104194228D01*
X183990189Y-104435584D01*
X183234926Y-104435584D01*
X183031805Y-104232463D01*
X182521289Y-104021000D01*
X182168801Y-104021000D01*
X184190472Y-101999330D01*
X184253928Y-101956930D01*
X184421903Y-101705538D01*
X184465999Y-101483853D01*
X184465999Y-101483849D01*
X184480887Y-101409002D01*
X184465999Y-101334155D01*
X184465999Y-91541308D01*
X184508711Y-91559000D01*
X185061289Y-91559000D01*
X185571805Y-91347537D01*
X185962537Y-90956805D01*
X186055000Y-90733580D01*
X186147463Y-90956805D01*
X186538195Y-91347537D01*
X187048711Y-91559000D01*
X187601289Y-91559000D01*
X188111805Y-91347537D01*
X188295631Y-91163711D01*
X188476000Y-91163711D01*
X188476000Y-91716289D01*
X188687463Y-92226805D01*
X189078195Y-92617537D01*
X189301420Y-92710000D01*
X189078195Y-92802463D01*
X188687463Y-93193195D01*
X188476000Y-93703711D01*
X188476000Y-94256289D01*
X188687463Y-94766805D01*
X189078195Y-95157537D01*
X189301420Y-95250000D01*
X189078195Y-95342463D01*
X188687463Y-95733195D01*
X188476000Y-96243711D01*
X188476000Y-96796289D01*
X188687463Y-97306805D01*
X189078195Y-97697537D01*
X189301420Y-97790000D01*
X189078195Y-97882463D01*
X188687463Y-98273195D01*
X188476000Y-98783711D01*
X188476000Y-99336289D01*
X188687463Y-99846805D01*
X189078195Y-100237537D01*
X189301420Y-100330000D01*
X189078195Y-100422463D01*
X188687463Y-100813195D01*
X188476000Y-101323711D01*
X188476000Y-101876289D01*
X188687463Y-102386805D01*
X189078195Y-102777537D01*
X189301420Y-102870000D01*
X189078195Y-102962463D01*
X188687463Y-103353195D01*
X188476000Y-103863711D01*
X188476000Y-104416289D01*
X188687463Y-104926805D01*
X189078195Y-105317537D01*
X189588711Y-105529000D01*
X190141289Y-105529000D01*
X190651805Y-105317537D01*
X191042537Y-104926805D01*
X191254000Y-104416289D01*
X191254000Y-103863711D01*
X191242897Y-103836905D01*
X191449802Y-103630000D01*
X193666822Y-103630000D01*
X193874375Y-103940625D01*
X194365582Y-104268839D01*
X194798744Y-104355000D01*
X195091256Y-104355000D01*
X195524418Y-104268839D01*
X196015625Y-103940625D01*
X196343839Y-103449418D01*
X196459092Y-102870000D01*
X196343839Y-102290582D01*
X196015625Y-101799375D01*
X195717239Y-101600000D01*
X196015625Y-101400625D01*
X196343839Y-100909418D01*
X196459092Y-100330000D01*
X196343839Y-99750582D01*
X196015625Y-99259375D01*
X195717239Y-99060000D01*
X196015625Y-98860625D01*
X196343839Y-98369418D01*
X196459092Y-97790000D01*
X196343839Y-97210582D01*
X196015625Y-96719375D01*
X195717239Y-96520000D01*
X196015625Y-96320625D01*
X196343839Y-95829418D01*
X196459092Y-95250000D01*
X196343839Y-94670582D01*
X196015625Y-94179375D01*
X195717239Y-93980000D01*
X196015625Y-93780625D01*
X196343839Y-93289418D01*
X196459092Y-92710000D01*
X196343839Y-92130582D01*
X196015625Y-91639375D01*
X195997381Y-91627184D01*
X196042765Y-91618157D01*
X196252809Y-91477809D01*
X196393157Y-91267765D01*
X196442440Y-91020000D01*
X196442440Y-89320000D01*
X196393157Y-89072235D01*
X196252809Y-88862191D01*
X196042765Y-88721843D01*
X195795000Y-88672560D01*
X194095000Y-88672560D01*
X193847235Y-88721843D01*
X193637191Y-88862191D01*
X193496843Y-89072235D01*
X193447560Y-89320000D01*
X193447560Y-89410000D01*
X191209846Y-89410000D01*
X191134999Y-89395112D01*
X191060152Y-89410000D01*
X191060148Y-89410000D01*
X190838463Y-89454096D01*
X190587071Y-89622071D01*
X190544671Y-89685527D01*
X190168095Y-90062103D01*
X190141289Y-90051000D01*
X189588711Y-90051000D01*
X189078195Y-90262463D01*
X188687463Y-90653195D01*
X188476000Y-91163711D01*
X188295631Y-91163711D01*
X188502537Y-90956805D01*
X188714000Y-90446289D01*
X188714000Y-89893711D01*
X188502537Y-89383195D01*
X188111805Y-88992463D01*
X187601289Y-88781000D01*
X187048711Y-88781000D01*
X186538195Y-88992463D01*
X186147463Y-89383195D01*
X186055000Y-89606420D01*
X185962537Y-89383195D01*
X185571805Y-88992463D01*
X185061289Y-88781000D01*
X184508711Y-88781000D01*
X184465999Y-88798692D01*
X184465999Y-79535357D01*
X184480887Y-79460509D01*
X184465999Y-79385661D01*
X184465999Y-79385657D01*
X184421903Y-79163972D01*
X184421903Y-79163971D01*
X184296328Y-78976036D01*
X184253928Y-78912580D01*
X184190472Y-78870180D01*
X184060292Y-78740000D01*
X194520000Y-78740000D01*
X194634038Y-79460010D01*
X194964990Y-80109540D01*
X195480460Y-80625010D01*
X196129990Y-80955962D01*
X196850000Y-81070000D01*
X197570010Y-80955962D01*
X198219540Y-80625010D01*
X198735010Y-80109540D01*
X199065962Y-79460010D01*
X199180000Y-78740000D01*
X199065962Y-78019990D01*
X198735010Y-77370460D01*
X198219540Y-76854990D01*
X197570010Y-76524038D01*
X196850000Y-76410000D01*
X196129990Y-76524038D01*
X195480460Y-76854990D01*
X194964990Y-77370460D01*
X194634038Y-78019990D01*
X194520000Y-78740000D01*
X184060292Y-78740000D01*
X183142831Y-77822540D01*
X183142831Y-77296793D01*
X182939589Y-76806124D01*
X182564048Y-76430583D01*
X182073379Y-76227341D01*
X181542283Y-76227341D01*
X181051614Y-76430583D01*
X180679856Y-76802341D01*
X179125806Y-76802341D01*
X178754048Y-76430583D01*
X178263379Y-76227341D01*
X177732283Y-76227341D01*
X177241614Y-76430583D01*
X176869856Y-76802341D01*
X175315806Y-76802341D01*
X174944048Y-76430583D01*
X174453379Y-76227341D01*
X173922283Y-76227341D01*
X173431614Y-76430583D01*
X173056073Y-76806124D01*
X172852831Y-77296793D01*
X172852831Y-77822539D01*
X168885371Y-81790000D01*
X159393178Y-81790000D01*
X159185625Y-81479375D01*
X158887239Y-81280000D01*
X159185625Y-81080625D01*
X159513839Y-80589418D01*
X159629092Y-80010000D01*
X159513839Y-79430582D01*
X159185625Y-78939375D01*
X159167381Y-78927184D01*
X159212765Y-78918157D01*
X159422809Y-78777809D01*
X159563157Y-78567765D01*
X159612440Y-78320000D01*
X159612440Y-77296793D01*
X169042831Y-77296793D01*
X169042831Y-77827889D01*
X169246073Y-78318558D01*
X169621614Y-78694099D01*
X170112283Y-78897341D01*
X170643379Y-78897341D01*
X171134048Y-78694099D01*
X171509589Y-78318558D01*
X171712831Y-77827889D01*
X171712831Y-77296793D01*
X171509589Y-76806124D01*
X171134048Y-76430583D01*
X170643379Y-76227341D01*
X170112283Y-76227341D01*
X169621614Y-76430583D01*
X169246073Y-76806124D01*
X169042831Y-77296793D01*
X159612440Y-77296793D01*
X159612440Y-76620000D01*
X159563157Y-76372235D01*
X159422809Y-76162191D01*
X159212765Y-76021843D01*
X158965000Y-75972560D01*
X157265000Y-75972560D01*
X157017235Y-76021843D01*
X156807191Y-76162191D01*
X156666843Y-76372235D01*
X156617560Y-76620000D01*
X156617560Y-78320000D01*
X156666843Y-78567765D01*
X156807191Y-78777809D01*
X157017235Y-78918157D01*
X157062619Y-78927184D01*
X157044375Y-78939375D01*
X156716161Y-79430582D01*
X156609020Y-79969218D01*
X154205321Y-77565520D01*
X154162919Y-77502061D01*
X153911527Y-77334086D01*
X153689842Y-77289990D01*
X153689837Y-77289990D01*
X153614990Y-77275102D01*
X153540143Y-77289990D01*
X145678143Y-77289990D01*
X145603295Y-77275102D01*
X145528447Y-77289990D01*
X145528443Y-77289990D01*
X145306758Y-77334086D01*
X145055366Y-77502061D01*
X145012966Y-77565517D01*
X138022440Y-84556044D01*
X138022440Y-84240000D01*
X137973157Y-83992235D01*
X137832809Y-83782191D01*
X137622765Y-83641843D01*
X137375000Y-83592560D01*
X135675000Y-83592560D01*
X135427235Y-83641843D01*
X135217191Y-83782191D01*
X135076843Y-83992235D01*
X135027560Y-84240000D01*
X135027560Y-85940000D01*
X135076843Y-86187765D01*
X135217191Y-86397809D01*
X135427235Y-86538157D01*
X135472619Y-86547184D01*
X135454375Y-86559375D01*
X135126161Y-87050582D01*
X135010908Y-87630000D01*
X132790000Y-87630000D01*
X132790000Y-78359000D01*
X132976000Y-78359000D01*
X133090038Y-79079010D01*
X133420990Y-79728540D01*
X133936460Y-80244010D01*
X134585990Y-80574962D01*
X135306000Y-80689000D01*
X136026010Y-80574962D01*
X136675540Y-80244010D01*
X137191010Y-79728540D01*
X137521962Y-79079010D01*
X137636000Y-78359000D01*
X137521962Y-77638990D01*
X137191010Y-76989460D01*
X136675540Y-76473990D01*
X136026010Y-76143038D01*
X135306000Y-76029000D01*
X134585990Y-76143038D01*
X133936460Y-76473990D01*
X133420990Y-76989460D01*
X133090038Y-77638990D01*
X132976000Y-78359000D01*
X132790000Y-78359000D01*
X132790000Y-76262119D01*
X132834065Y-76012213D01*
X132929405Y-75847080D01*
X133075477Y-75724512D01*
X133284465Y-75648445D01*
X133380996Y-75640000D01*
X215837881Y-75640000D01*
X216087787Y-75684065D01*
X216087787Y-75684065D01*
G37*
X216087787Y-75684065D02*
X216252920Y-75779405D01*
X216375488Y-75925477D01*
X216451555Y-76134465D01*
X216460001Y-76231007D01*
X216460000Y-117412881D01*
X216415935Y-117662787D01*
X216320596Y-117827919D01*
X216174524Y-117950488D01*
X215965532Y-118026555D01*
X215869004Y-118035000D01*
X133412119Y-118035000D01*
X133162213Y-117990935D01*
X132997081Y-117895596D01*
X132874512Y-117749524D01*
X132798445Y-117540532D01*
X132790000Y-117444004D01*
X132790000Y-107823000D01*
X133001000Y-107823000D01*
X133115038Y-108543010D01*
X133445990Y-109192540D01*
X133961460Y-109708010D01*
X134610990Y-110038962D01*
X135331000Y-110153000D01*
X136051010Y-110038962D01*
X136700540Y-109708010D01*
X137216010Y-109192540D01*
X137546962Y-108543010D01*
X137661000Y-107823000D01*
X137546962Y-107102990D01*
X137216010Y-106453460D01*
X136700540Y-105937990D01*
X136051010Y-105607038D01*
X135331000Y-105493000D01*
X134610990Y-105607038D01*
X133961460Y-105937990D01*
X133445990Y-106453460D01*
X133115038Y-107102990D01*
X133001000Y-107823000D01*
X132790000Y-107823000D01*
X132790000Y-103226890D01*
X135083524Y-103226890D01*
X135253355Y-103636924D01*
X135643642Y-104065183D01*
X136168108Y-104311486D01*
X136398000Y-104190819D01*
X136398000Y-102997000D01*
X136652000Y-102997000D01*
X136652000Y-104190819D01*
X136881892Y-104311486D01*
X137406358Y-104065183D01*
X137796645Y-103636924D01*
X137966476Y-103226890D01*
X137845155Y-102997000D01*
X136652000Y-102997000D01*
X136398000Y-102997000D01*
X135204845Y-102997000D01*
X135083524Y-103226890D01*
X132790000Y-103226890D01*
X132790000Y-87630000D01*
X135010908Y-87630000D01*
X135126161Y-88209418D01*
X135454375Y-88700625D01*
X135752761Y-88900000D01*
X135454375Y-89099375D01*
X135126161Y-89590582D01*
X135010908Y-90170000D01*
X135126161Y-90749418D01*
X135454375Y-91240625D01*
X135752761Y-91440000D01*
X135454375Y-91639375D01*
X135126161Y-92130582D01*
X135010908Y-92710000D01*
X135126161Y-93289418D01*
X135454375Y-93780625D01*
X135752761Y-93980000D01*
X135454375Y-94179375D01*
X135126161Y-94670582D01*
X135010908Y-95250000D01*
X135126161Y-95829418D01*
X135454375Y-96320625D01*
X135752761Y-96520000D01*
X135454375Y-96719375D01*
X135126161Y-97210582D01*
X135010908Y-97790000D01*
X135126161Y-98369418D01*
X135454375Y-98860625D01*
X135752761Y-99060000D01*
X135454375Y-99259375D01*
X135126161Y-99750582D01*
X135010908Y-100330000D01*
X135126161Y-100909418D01*
X135454375Y-101400625D01*
X135773478Y-101613843D01*
X135643642Y-101674817D01*
X135253355Y-102103076D01*
X135083524Y-102513110D01*
X135204845Y-102743000D01*
X136398000Y-102743000D01*
X136398000Y-102723000D01*
X136652000Y-102723000D01*
X136652000Y-102743000D01*
X137845155Y-102743000D01*
X137966476Y-102513110D01*
X137796645Y-102103076D01*
X137406358Y-101674817D01*
X137276522Y-101613843D01*
X137595625Y-101400625D01*
X137923839Y-100909418D01*
X138039092Y-100330000D01*
X137923839Y-99750582D01*
X137595625Y-99259375D01*
X137297239Y-99060000D01*
X137595625Y-98860625D01*
X137923839Y-98369418D01*
X138039092Y-97790000D01*
X137923839Y-97210582D01*
X137595625Y-96719375D01*
X137297239Y-96520000D01*
X137595625Y-96320625D01*
X137923839Y-95829418D01*
X137953733Y-95679126D01*
X147555000Y-95679126D01*
X147555000Y-96090874D01*
X147712569Y-96471280D01*
X147830000Y-96588711D01*
X147830001Y-101599150D01*
X147815112Y-101674002D01*
X147874097Y-101970539D01*
X147996747Y-102154097D01*
X148042072Y-102221931D01*
X148105528Y-102264331D01*
X155545668Y-109704472D01*
X155588069Y-109767929D01*
X155651525Y-109810329D01*
X155839460Y-109935904D01*
X155887603Y-109945480D01*
X156061146Y-109980000D01*
X156061150Y-109980000D01*
X156135998Y-109994888D01*
X156210846Y-109980000D01*
X162491289Y-109980000D01*
X162608720Y-110097431D01*
X162989126Y-110255000D01*
X163400874Y-110255000D01*
X163781280Y-110097431D01*
X164072431Y-109806280D01*
X164230000Y-109425874D01*
X164230000Y-109014126D01*
X164072431Y-108633720D01*
X163781280Y-108342569D01*
X163400874Y-108185000D01*
X162989126Y-108185000D01*
X162608720Y-108342569D01*
X162491289Y-108460000D01*
X156450800Y-108460000D01*
X152197466Y-104206666D01*
X152595625Y-103940625D01*
X152923839Y-103449418D01*
X153039092Y-102870000D01*
X152923839Y-102290582D01*
X152595625Y-101799375D01*
X152297239Y-101600000D01*
X152595625Y-101400625D01*
X152923839Y-100909418D01*
X153039092Y-100330000D01*
X152923839Y-99750582D01*
X152595625Y-99259375D01*
X152297239Y-99060000D01*
X152595625Y-98860625D01*
X152923839Y-98369418D01*
X153039092Y-97790000D01*
X152923839Y-97210582D01*
X152595625Y-96719375D01*
X152297239Y-96520000D01*
X152595625Y-96320625D01*
X152923839Y-95829418D01*
X153039092Y-95250000D01*
X152923839Y-94670582D01*
X152595625Y-94179375D01*
X152297239Y-93980000D01*
X152595625Y-93780625D01*
X152923839Y-93289418D01*
X153039092Y-92710000D01*
X152923839Y-92130582D01*
X152595625Y-91639375D01*
X152297239Y-91440000D01*
X152595625Y-91240625D01*
X152923839Y-90749418D01*
X153039092Y-90170000D01*
X152923839Y-89590582D01*
X152595625Y-89099375D01*
X152297239Y-88900000D01*
X152595625Y-88700625D01*
X152923839Y-88209418D01*
X153039092Y-87630000D01*
X152923839Y-87050582D01*
X152595625Y-86559375D01*
X152313389Y-86370791D01*
X152366185Y-86348922D01*
X152783922Y-85931185D01*
X152984523Y-85446890D01*
X156673524Y-85446890D01*
X156843355Y-85856924D01*
X157233642Y-86285183D01*
X157758108Y-86531486D01*
X157988000Y-86410819D01*
X157988000Y-85217000D01*
X158242000Y-85217000D01*
X158242000Y-86410819D01*
X158471892Y-86531486D01*
X158996358Y-86285183D01*
X159386645Y-85856924D01*
X159556476Y-85446890D01*
X159435155Y-85217000D01*
X158242000Y-85217000D01*
X157988000Y-85217000D01*
X156794845Y-85217000D01*
X156673524Y-85446890D01*
X152984523Y-85446890D01*
X153010000Y-85385385D01*
X153010000Y-84794615D01*
X152783922Y-84248815D01*
X152366185Y-83831078D01*
X151820385Y-83605000D01*
X151229615Y-83605000D01*
X150683815Y-83831078D01*
X150266078Y-84248815D01*
X150040000Y-84794615D01*
X150040000Y-85385385D01*
X150266078Y-85931185D01*
X150683815Y-86348922D01*
X150736611Y-86370791D01*
X150454375Y-86559375D01*
X150126161Y-87050582D01*
X150010908Y-87630000D01*
X150126161Y-88209418D01*
X150454375Y-88700625D01*
X150752761Y-88900000D01*
X150454375Y-89099375D01*
X150126161Y-89590582D01*
X150010908Y-90170000D01*
X150126161Y-90749418D01*
X150454375Y-91240625D01*
X150752761Y-91440000D01*
X150454375Y-91639375D01*
X150126161Y-92130582D01*
X150010908Y-92710000D01*
X150126161Y-93289418D01*
X150454375Y-93780625D01*
X150752761Y-93980000D01*
X150454375Y-94179375D01*
X150126161Y-94670582D01*
X150010908Y-95250000D01*
X150126161Y-95829418D01*
X150454375Y-96320625D01*
X150752761Y-96520000D01*
X150454375Y-96719375D01*
X150126161Y-97210582D01*
X150010908Y-97790000D01*
X150126161Y-98369418D01*
X150454375Y-98860625D01*
X150752761Y-99060000D01*
X150454375Y-99259375D01*
X150126161Y-99750582D01*
X150010908Y-100330000D01*
X150126161Y-100909418D01*
X150454375Y-101400625D01*
X150752761Y-101600000D01*
X150454375Y-101799375D01*
X150188333Y-102197534D01*
X149350000Y-101359201D01*
X149350000Y-96588711D01*
X149467431Y-96471280D01*
X149625000Y-96090874D01*
X149625000Y-95679126D01*
X149467431Y-95298720D01*
X149176280Y-95007569D01*
X148795874Y-94850000D01*
X148384126Y-94850000D01*
X148003720Y-95007569D01*
X147712569Y-95298720D01*
X147555000Y-95679126D01*
X137953733Y-95679126D01*
X138039092Y-95250000D01*
X137966209Y-94883592D01*
X146574473Y-86275329D01*
X146637929Y-86232929D01*
X146696800Y-86144822D01*
X146805904Y-85981538D01*
X146830691Y-85856924D01*
X146850000Y-85759852D01*
X146850000Y-85759848D01*
X146864888Y-85685000D01*
X146850000Y-85610152D01*
X146850000Y-80803178D01*
X147160625Y-80595625D01*
X147203242Y-80531844D01*
X147355414Y-80759586D01*
X147646565Y-80954126D01*
X147990000Y-81022440D01*
X149190000Y-81022440D01*
X149533435Y-80954126D01*
X149824586Y-80759586D01*
X150019126Y-80468435D01*
X150087440Y-80125000D01*
X150087440Y-78809990D01*
X153300189Y-78809990D01*
X156673791Y-82183593D01*
X156600908Y-82550000D01*
X156716161Y-83129418D01*
X157044375Y-83620625D01*
X157363478Y-83833843D01*
X157233642Y-83894817D01*
X156843355Y-84323076D01*
X156673524Y-84733110D01*
X156794845Y-84963000D01*
X157988000Y-84963000D01*
X157988000Y-84943000D01*
X158242000Y-84943000D01*
X158242000Y-84963000D01*
X159435155Y-84963000D01*
X159556476Y-84733110D01*
X159386645Y-84323076D01*
X158996358Y-83894817D01*
X158866522Y-83833843D01*
X159185625Y-83620625D01*
X159393178Y-83310000D01*
X169125325Y-83310000D01*
X169200172Y-83324888D01*
X169275019Y-83310000D01*
X169275024Y-83310000D01*
X169496709Y-83265904D01*
X169748101Y-83097929D01*
X169790503Y-83034470D01*
X173927633Y-78897341D01*
X174453379Y-78897341D01*
X174944048Y-78694099D01*
X175315806Y-78322341D01*
X176869856Y-78322341D01*
X177241614Y-78694099D01*
X177732283Y-78897341D01*
X178263379Y-78897341D01*
X178754048Y-78694099D01*
X179125806Y-78322341D01*
X180679856Y-78322341D01*
X181051614Y-78694099D01*
X181542283Y-78897341D01*
X182068030Y-78897341D01*
X182946000Y-79775312D01*
X182946000Y-84482795D01*
X182770312Y-84219860D01*
X182328722Y-83924799D01*
X181939316Y-83847341D01*
X181676346Y-83847341D01*
X181286940Y-83924799D01*
X180845350Y-84219860D01*
X180550289Y-84661450D01*
X180446677Y-85182341D01*
X180494186Y-85421184D01*
X178410371Y-87505000D01*
X174064846Y-87505000D01*
X173989999Y-87490112D01*
X173915152Y-87505000D01*
X173915148Y-87505000D01*
X173693463Y-87549096D01*
X173442071Y-87717071D01*
X173399671Y-87780527D01*
X172388095Y-88792104D01*
X172361289Y-88781000D01*
X172008801Y-88781000D01*
X174272461Y-86517341D01*
X174319316Y-86517341D01*
X174708722Y-86439883D01*
X175150312Y-86144822D01*
X175445373Y-85703232D01*
X175548985Y-85182341D01*
X176636677Y-85182341D01*
X176740289Y-85703232D01*
X177035350Y-86144822D01*
X177476940Y-86439883D01*
X177866346Y-86517341D01*
X178129316Y-86517341D01*
X178518722Y-86439883D01*
X178960312Y-86144822D01*
X179255373Y-85703232D01*
X179358985Y-85182341D01*
X179255373Y-84661450D01*
X178960312Y-84219860D01*
X178518722Y-83924799D01*
X178129316Y-83847341D01*
X177866346Y-83847341D01*
X177476940Y-83924799D01*
X177035350Y-84219860D01*
X176740289Y-84661450D01*
X176636677Y-85182341D01*
X175548985Y-85182341D01*
X175445373Y-84661450D01*
X175150312Y-84219860D01*
X174708722Y-83924799D01*
X174319316Y-83847341D01*
X174056346Y-83847341D01*
X173666940Y-83924799D01*
X173225350Y-84219860D01*
X172930289Y-84661450D01*
X172826677Y-85182341D01*
X172930289Y-85703232D01*
X172932963Y-85707235D01*
X169848095Y-88792104D01*
X169821289Y-88781000D01*
X169310000Y-88781000D01*
X169310000Y-88694126D01*
X169152431Y-88313720D01*
X169035000Y-88196289D01*
X169035000Y-87599973D01*
X170138988Y-86495986D01*
X170246346Y-86517341D01*
X170509316Y-86517341D01*
X170898722Y-86439883D01*
X171340312Y-86144822D01*
X171635373Y-85703232D01*
X171738985Y-85182341D01*
X171635373Y-84661450D01*
X171340312Y-84219860D01*
X170898722Y-83924799D01*
X170509316Y-83847341D01*
X170246346Y-83847341D01*
X169856940Y-83924799D01*
X169415350Y-84219860D01*
X169120289Y-84661450D01*
X169016677Y-85182341D01*
X169064186Y-85421184D01*
X167790528Y-86694843D01*
X167727072Y-86737243D01*
X167684672Y-86800699D01*
X167684671Y-86800700D01*
X167559097Y-86988635D01*
X167500112Y-87285172D01*
X167515001Y-87360023D01*
X167515000Y-88196289D01*
X167397569Y-88313720D01*
X167240000Y-88694126D01*
X167240000Y-88781000D01*
X166728711Y-88781000D01*
X166218195Y-88992463D01*
X165827463Y-89383195D01*
X165735000Y-89606420D01*
X165642537Y-89383195D01*
X165251805Y-88992463D01*
X164741289Y-88781000D01*
X164188711Y-88781000D01*
X163678195Y-88992463D01*
X163287463Y-89383195D01*
X163195000Y-89606420D01*
X163102537Y-89383195D01*
X162711805Y-88992463D01*
X162201289Y-88781000D01*
X161648711Y-88781000D01*
X161138195Y-88992463D01*
X160747463Y-89383195D01*
X160655000Y-89606420D01*
X160562537Y-89383195D01*
X160171805Y-88992463D01*
X159661289Y-88781000D01*
X159108711Y-88781000D01*
X158598195Y-88992463D01*
X158207463Y-89383195D01*
X157996000Y-89893711D01*
X157996000Y-90446289D01*
X158207463Y-90956805D01*
X158598195Y-91347537D01*
X159108711Y-91559000D01*
X159661289Y-91559000D01*
X160171805Y-91347537D01*
X160562537Y-90956805D01*
X160655000Y-90733580D01*
X160747463Y-90956805D01*
X161138195Y-91347537D01*
X161648711Y-91559000D01*
X162201289Y-91559000D01*
X162711805Y-91347537D01*
X163102537Y-90956805D01*
X163195000Y-90733580D01*
X163287463Y-90956805D01*
X163678195Y-91347537D01*
X164188711Y-91559000D01*
X164741289Y-91559000D01*
X165251805Y-91347537D01*
X165642537Y-90956805D01*
X165735000Y-90733580D01*
X165827463Y-90956805D01*
X166218195Y-91347537D01*
X166728711Y-91559000D01*
X167081198Y-91559000D01*
X166520528Y-92119671D01*
X166457072Y-92162071D01*
X166289096Y-92413463D01*
X166245000Y-92635148D01*
X166245000Y-92635153D01*
X166243476Y-92642813D01*
X166127569Y-92758720D01*
X165970000Y-93139126D01*
X165970000Y-93550874D01*
X166127569Y-93931280D01*
X166418720Y-94222431D01*
X166799126Y-94380000D01*
X167210874Y-94380000D01*
X167591280Y-94222431D01*
X167882431Y-93931280D01*
X168040000Y-93550874D01*
X168040000Y-93139126D01*
X167925970Y-92863832D01*
X169241906Y-91547897D01*
X169268711Y-91559000D01*
X169821289Y-91559000D01*
X170331805Y-91347537D01*
X170722537Y-90956805D01*
X170815000Y-90733580D01*
X170907463Y-90956805D01*
X171298195Y-91347537D01*
X171808711Y-91559000D01*
X172161198Y-91559000D01*
X169505199Y-94215000D01*
X169339126Y-94215000D01*
X168958720Y-94372569D01*
X168667569Y-94663720D01*
X168510000Y-95044126D01*
X168510000Y-95455874D01*
X168667569Y-95836280D01*
X168958720Y-96127431D01*
X169339126Y-96285000D01*
X169340198Y-96285000D01*
X165250528Y-100374671D01*
X165187072Y-100417071D01*
X165019097Y-100668463D01*
X164989219Y-100818672D01*
X164960112Y-100965000D01*
X164975001Y-101039852D01*
X164975001Y-104117807D01*
X164741289Y-104021000D01*
X164188711Y-104021000D01*
X163678195Y-104232463D01*
X163287463Y-104623195D01*
X163195000Y-104846420D01*
X163102537Y-104623195D01*
X162711805Y-104232463D01*
X162201289Y-104021000D01*
X161648711Y-104021000D01*
X161138195Y-104232463D01*
X160747463Y-104623195D01*
X160655000Y-104846420D01*
X160562537Y-104623195D01*
X160171805Y-104232463D01*
X159948580Y-104140000D01*
X160171805Y-104047537D01*
X160562537Y-103656805D01*
X160774000Y-103146289D01*
X160774000Y-102593711D01*
X160562537Y-102083195D01*
X160171805Y-101692463D01*
X159948580Y-101600000D01*
X160171805Y-101507537D01*
X160562537Y-101116805D01*
X160774000Y-100606289D01*
X160774000Y-100053711D01*
X160562537Y-99543195D01*
X160171805Y-99152463D01*
X159948580Y-99060000D01*
X160171805Y-98967537D01*
X160562537Y-98576805D01*
X160774000Y-98066289D01*
X160774000Y-97513711D01*
X160562537Y-97003195D01*
X160171805Y-96612463D01*
X159661289Y-96401000D01*
X159108711Y-96401000D01*
X158598195Y-96612463D01*
X158207463Y-97003195D01*
X157996000Y-97513711D01*
X157996000Y-98066289D01*
X158207463Y-98576805D01*
X158598195Y-98967537D01*
X158821420Y-99060000D01*
X158598195Y-99152463D01*
X158207463Y-99543195D01*
X157996000Y-100053711D01*
X157996000Y-100606289D01*
X158207463Y-101116805D01*
X158598195Y-101507537D01*
X158821420Y-101600000D01*
X158598195Y-101692463D01*
X158207463Y-102083195D01*
X157996000Y-102593711D01*
X157996000Y-103146289D01*
X158207463Y-103656805D01*
X158598195Y-104047537D01*
X158821420Y-104140000D01*
X158598195Y-104232463D01*
X158207463Y-104623195D01*
X157996000Y-105133711D01*
X157996000Y-105686289D01*
X158207463Y-106196805D01*
X158598195Y-106587537D01*
X159108711Y-106799000D01*
X159661289Y-106799000D01*
X160171805Y-106587537D01*
X160562537Y-106196805D01*
X160655000Y-105973580D01*
X160747463Y-106196805D01*
X161138195Y-106587537D01*
X161648711Y-106799000D01*
X162201289Y-106799000D01*
X162711805Y-106587537D01*
X163102537Y-106196805D01*
X163195000Y-105973580D01*
X163287463Y-106196805D01*
X163678195Y-106587537D01*
X164188711Y-106799000D01*
X164741289Y-106799000D01*
X164975001Y-106702193D01*
X164975000Y-112130387D01*
X164791565Y-112166875D01*
X164500414Y-112361415D01*
X164305874Y-112652566D01*
X164237560Y-112996001D01*
X164237560Y-114496001D01*
X164305874Y-114839436D01*
X164500414Y-115130587D01*
X164791565Y-115325127D01*
X165135000Y-115393441D01*
X166335000Y-115393441D01*
X166678435Y-115325127D01*
X166969586Y-115130587D01*
X167146648Y-114865594D01*
X167342955Y-115084665D01*
X167865740Y-115335554D01*
X167878110Y-115337477D01*
X168108000Y-115216156D01*
X168108000Y-113873001D01*
X168362000Y-113873001D01*
X168362000Y-115216156D01*
X168591890Y-115337477D01*
X168604260Y-115335554D01*
X169127045Y-115084665D01*
X169514024Y-114652813D01*
X169706284Y-114105743D01*
X169562231Y-113873001D01*
X168362000Y-113873001D01*
X168108000Y-113873001D01*
X168088000Y-113873001D01*
X168088000Y-113619001D01*
X168108000Y-113619001D01*
X168108000Y-112275846D01*
X168362000Y-112275846D01*
X168362000Y-113619001D01*
X169562231Y-113619001D01*
X169706284Y-113386259D01*
X169514024Y-112839189D01*
X169127045Y-112407337D01*
X168604260Y-112156448D01*
X168591890Y-112154525D01*
X168362000Y-112275846D01*
X168108000Y-112275846D01*
X167878110Y-112154525D01*
X167865740Y-112156448D01*
X167342955Y-112407337D01*
X167146648Y-112626408D01*
X166969586Y-112361415D01*
X166678435Y-112166875D01*
X166495000Y-112130387D01*
X166495000Y-106702194D01*
X166728711Y-106799000D01*
X167281289Y-106799000D01*
X167791805Y-106587537D01*
X168182537Y-106196805D01*
X168275000Y-105973580D01*
X168367463Y-106196805D01*
X168758195Y-106587537D01*
X169268711Y-106799000D01*
X169821289Y-106799000D01*
X170331805Y-106587537D01*
X170722537Y-106196805D01*
X170815000Y-105973580D01*
X170907463Y-106196805D01*
X171298195Y-106587537D01*
X171808711Y-106799000D01*
X172361289Y-106799000D01*
X172871805Y-106587537D01*
X173262537Y-106196805D01*
X173355000Y-105973580D01*
X173447463Y-106196805D01*
X173838195Y-106587537D01*
X174348711Y-106799000D01*
X174901289Y-106799000D01*
X175411805Y-106587537D01*
X175802537Y-106196805D01*
X175895000Y-105973580D01*
X175987463Y-106196805D01*
X176378195Y-106587537D01*
X176888711Y-106799000D01*
X177441289Y-106799000D01*
X177951805Y-106587537D01*
X178342537Y-106196805D01*
X178435000Y-105973580D01*
X178527463Y-106196805D01*
X178918195Y-106587537D01*
X179352724Y-106767525D01*
X179940000Y-107354802D01*
X179940000Y-107520874D01*
X180097569Y-107901280D01*
X180388720Y-108192431D01*
X180769126Y-108350000D01*
X180770198Y-108350000D01*
X177102639Y-112017560D01*
X175930000Y-112017560D01*
X175586565Y-112085874D01*
X175295414Y-112280414D01*
X175100874Y-112571565D01*
X175032560Y-112915000D01*
X175032560Y-114087637D01*
X172950198Y-116170001D01*
X156610000Y-116170001D01*
X156610000Y-115999126D01*
X156452431Y-115618720D01*
X156222720Y-115389009D01*
X156245000Y-115393441D01*
X157445000Y-115393441D01*
X157788435Y-115325127D01*
X158079586Y-115130587D01*
X158256648Y-114865594D01*
X158452955Y-115084665D01*
X158975740Y-115335554D01*
X158988110Y-115337477D01*
X159218000Y-115216156D01*
X159218000Y-113873001D01*
X159472000Y-113873001D01*
X159472000Y-115216156D01*
X159701890Y-115337477D01*
X159714260Y-115335554D01*
X160237045Y-115084665D01*
X160624024Y-114652813D01*
X160816284Y-114105743D01*
X160672231Y-113873001D01*
X159472000Y-113873001D01*
X159218000Y-113873001D01*
X159198000Y-113873001D01*
X159198000Y-113619001D01*
X159218000Y-113619001D01*
X159218000Y-112275846D01*
X159472000Y-112275846D01*
X159472000Y-113619001D01*
X160672231Y-113619001D01*
X160816284Y-113386259D01*
X160624024Y-112839189D01*
X160237045Y-112407337D01*
X159714260Y-112156448D01*
X159701890Y-112154525D01*
X159472000Y-112275846D01*
X159218000Y-112275846D01*
X158988110Y-112154525D01*
X158975740Y-112156448D01*
X158452955Y-112407337D01*
X158256648Y-112626408D01*
X158079586Y-112361415D01*
X157788435Y-112166875D01*
X157445000Y-112098561D01*
X156245000Y-112098561D01*
X155901565Y-112166875D01*
X155610414Y-112361415D01*
X155415874Y-112652566D01*
X155347560Y-112996001D01*
X155347560Y-114496001D01*
X155415874Y-114839436D01*
X155610414Y-115130587D01*
X155669400Y-115170000D01*
X155614802Y-115170000D01*
X149350000Y-108905199D01*
X149350000Y-108653711D01*
X149467431Y-108536280D01*
X149625000Y-108155874D01*
X149625000Y-107744126D01*
X149467431Y-107363720D01*
X149176280Y-107072569D01*
X148795874Y-106915000D01*
X148384126Y-106915000D01*
X148003720Y-107072569D01*
X147712569Y-107363720D01*
X147555000Y-107744126D01*
X147555000Y-108155874D01*
X147712569Y-108536280D01*
X147830001Y-108653712D01*
X147830001Y-109145149D01*
X147815112Y-109220000D01*
X147830001Y-109294852D01*
X147874097Y-109516537D01*
X148042072Y-109767929D01*
X148105528Y-109810329D01*
X150327998Y-112032799D01*
X150327998Y-112194844D01*
X150098110Y-112073524D01*
X150085740Y-112075447D01*
X149562955Y-112326336D01*
X149366648Y-112545407D01*
X149189586Y-112280414D01*
X148898435Y-112085874D01*
X148555000Y-112017560D01*
X147355000Y-112017560D01*
X147011565Y-112085874D01*
X146720414Y-112280414D01*
X146525874Y-112571565D01*
X146457560Y-112915000D01*
X146457560Y-114415000D01*
X146525874Y-114758435D01*
X146720414Y-115049586D01*
X147011565Y-115244126D01*
X147355000Y-115312440D01*
X148555000Y-115312440D01*
X148898435Y-115244126D01*
X149189586Y-115049586D01*
X149366648Y-114784593D01*
X149562955Y-115003664D01*
X150085740Y-115254553D01*
X150098110Y-115256476D01*
X150328000Y-115135155D01*
X150328000Y-113792000D01*
X150582000Y-113792000D01*
X150582000Y-115135155D01*
X150811890Y-115256476D01*
X150824260Y-115254553D01*
X151347045Y-115003664D01*
X151734024Y-114571812D01*
X151926284Y-114024742D01*
X151782231Y-113792000D01*
X150582000Y-113792000D01*
X150328000Y-113792000D01*
X150308000Y-113792000D01*
X150308000Y-113538000D01*
X150328000Y-113538000D01*
X150328000Y-113518000D01*
X150582000Y-113518000D01*
X150582000Y-113538000D01*
X151782231Y-113538000D01*
X151801716Y-113506518D01*
X154465199Y-116170001D01*
X139004803Y-116170001D01*
X137809574Y-114974773D01*
X137936648Y-114784593D01*
X138132955Y-115003664D01*
X138655740Y-115254553D01*
X138668110Y-115256476D01*
X138898000Y-115135155D01*
X138898000Y-113792000D01*
X139152000Y-113792000D01*
X139152000Y-115135155D01*
X139381890Y-115256476D01*
X139394260Y-115254553D01*
X139917045Y-115003664D01*
X140304024Y-114571812D01*
X140496284Y-114024742D01*
X140352231Y-113792000D01*
X139152000Y-113792000D01*
X138898000Y-113792000D01*
X138878000Y-113792000D01*
X138878000Y-113538000D01*
X138898000Y-113538000D01*
X138898000Y-112194845D01*
X139152000Y-112194845D01*
X139152000Y-113538000D01*
X140352231Y-113538000D01*
X140496284Y-113305258D01*
X140304024Y-112758188D01*
X139917045Y-112326336D01*
X139394260Y-112075447D01*
X139381890Y-112073524D01*
X139152000Y-112194845D01*
X138898000Y-112194845D01*
X138668110Y-112073524D01*
X138655740Y-112075447D01*
X138132955Y-112326336D01*
X137936648Y-112545407D01*
X137759586Y-112280414D01*
X137468435Y-112085874D01*
X137125000Y-112017560D01*
X135925000Y-112017560D01*
X135581565Y-112085874D01*
X135290414Y-112280414D01*
X135095874Y-112571565D01*
X135027560Y-112915000D01*
X135027560Y-114415000D01*
X135095874Y-114758435D01*
X135290414Y-115049586D01*
X135581565Y-115244126D01*
X135925000Y-115312440D01*
X135976745Y-115312440D01*
X135977072Y-115312929D01*
X136040528Y-115355329D01*
X138099672Y-117414474D01*
X138142072Y-117477930D01*
X138205528Y-117520330D01*
X138393463Y-117645905D01*
X138429922Y-117653157D01*
X138615149Y-117690001D01*
X138615153Y-117690001D01*
X138690001Y-117704889D01*
X138764849Y-117690001D01*
X173190152Y-117690001D01*
X173264999Y-117704889D01*
X173339846Y-117690001D01*
X173339851Y-117690001D01*
X173561536Y-117645905D01*
X173812928Y-117477930D01*
X173855330Y-117414471D01*
X175957363Y-115312440D01*
X177130000Y-115312440D01*
X177473435Y-115244126D01*
X177764586Y-115049586D01*
X177941648Y-114784593D01*
X178137955Y-115003664D01*
X178660740Y-115254553D01*
X178673110Y-115256476D01*
X178903000Y-115135155D01*
X178903000Y-113792000D01*
X179157000Y-113792000D01*
X179157000Y-115135155D01*
X179386890Y-115256476D01*
X179399260Y-115254553D01*
X179922045Y-115003664D01*
X180309024Y-114571812D01*
X180501284Y-114024742D01*
X180357231Y-113792000D01*
X179157000Y-113792000D01*
X178903000Y-113792000D01*
X178883000Y-113792000D01*
X178883000Y-113538000D01*
X178903000Y-113538000D01*
X178903000Y-113518000D01*
X179157000Y-113518000D01*
X179157000Y-113538000D01*
X180357231Y-113538000D01*
X180501284Y-113305258D01*
X180364134Y-112915000D01*
X184557560Y-112915000D01*
X184557560Y-114415000D01*
X184625874Y-114758435D01*
X184820414Y-115049586D01*
X185111565Y-115244126D01*
X185455000Y-115312440D01*
X186655000Y-115312440D01*
X186998435Y-115244126D01*
X187289586Y-115049586D01*
X187441758Y-114821844D01*
X187484375Y-114885625D01*
X187975583Y-115213839D01*
X188555000Y-115329092D01*
X189134418Y-115213839D01*
X189625625Y-114885625D01*
X189953839Y-114394417D01*
X190040000Y-113961255D01*
X190040000Y-113368744D01*
X189953839Y-112935582D01*
X189625625Y-112444375D01*
X189134417Y-112116161D01*
X188555000Y-112000908D01*
X187975582Y-112116161D01*
X187484375Y-112444375D01*
X187441758Y-112508156D01*
X187289586Y-112280414D01*
X186998435Y-112085874D01*
X186655000Y-112017560D01*
X186604755Y-112017560D01*
X186641280Y-112002431D01*
X186758711Y-111885000D01*
X198986904Y-111885000D01*
X200895000Y-113793098D01*
X200895000Y-113810001D01*
X196019845Y-113810001D01*
X195944998Y-113795113D01*
X195870151Y-113810001D01*
X195870147Y-113810001D01*
X195648462Y-113854097D01*
X195428971Y-114000756D01*
X195270222Y-113935000D01*
X194619778Y-113935000D01*
X194018847Y-114183914D01*
X193558914Y-114643847D01*
X193310000Y-115244778D01*
X193310000Y-115895222D01*
X193558914Y-116496153D01*
X194018847Y-116956086D01*
X194619778Y-117205000D01*
X195270222Y-117205000D01*
X195871153Y-116956086D01*
X196265347Y-116561892D01*
X199218514Y-116561892D01*
X199464817Y-117086358D01*
X199893076Y-117476645D01*
X200303110Y-117646476D01*
X200533000Y-117525155D01*
X200533000Y-116332000D01*
X199339181Y-116332000D01*
X199218514Y-116561892D01*
X196265347Y-116561892D01*
X196331086Y-116496153D01*
X196580000Y-115895222D01*
X196580000Y-115330001D01*
X199461831Y-115330001D01*
X199218514Y-115848108D01*
X199339181Y-116078000D01*
X200533000Y-116078000D01*
X200533000Y-116058000D01*
X200787000Y-116058000D01*
X200787000Y-116078000D01*
X200807000Y-116078000D01*
X200807000Y-116332000D01*
X200787000Y-116332000D01*
X200787000Y-117525155D01*
X201016890Y-117646476D01*
X201426924Y-117476645D01*
X201855183Y-117086358D01*
X201916157Y-116956522D01*
X202129375Y-117275625D01*
X202620582Y-117603839D01*
X203053744Y-117690000D01*
X203346256Y-117690000D01*
X203779418Y-117603839D01*
X204270625Y-117275625D01*
X204470000Y-116977239D01*
X204669375Y-117275625D01*
X205160582Y-117603839D01*
X205593744Y-117690000D01*
X205886256Y-117690000D01*
X206319418Y-117603839D01*
X206810625Y-117275625D01*
X207010000Y-116977239D01*
X207209375Y-117275625D01*
X207700582Y-117603839D01*
X208133744Y-117690000D01*
X208426256Y-117690000D01*
X208859418Y-117603839D01*
X209350625Y-117275625D01*
X209550000Y-116977239D01*
X209749375Y-117275625D01*
X210240582Y-117603839D01*
X210673744Y-117690000D01*
X210966256Y-117690000D01*
X211399418Y-117603839D01*
X211890625Y-117275625D01*
X211902816Y-117257381D01*
X211911843Y-117302765D01*
X212052191Y-117512809D01*
X212262235Y-117653157D01*
X212510000Y-117702440D01*
X214210000Y-117702440D01*
X214457765Y-117653157D01*
X214667809Y-117512809D01*
X214808157Y-117302765D01*
X214857440Y-117055000D01*
X214857440Y-115355000D01*
X214808157Y-115107235D01*
X214667809Y-114897191D01*
X214457765Y-114756843D01*
X214210000Y-114707560D01*
X212510000Y-114707560D01*
X212262235Y-114756843D01*
X212052191Y-114897191D01*
X211911843Y-115107235D01*
X211902816Y-115152619D01*
X211890625Y-115134375D01*
X211399418Y-114806161D01*
X210966256Y-114720000D01*
X210673744Y-114720000D01*
X210240582Y-114806161D01*
X209749375Y-115134375D01*
X209550000Y-115432761D01*
X209350625Y-115134375D01*
X208859418Y-114806161D01*
X208426256Y-114720000D01*
X208133744Y-114720000D01*
X207700582Y-114806161D01*
X207209375Y-115134375D01*
X207010000Y-115432761D01*
X206810625Y-115134375D01*
X206319418Y-114806161D01*
X205886256Y-114720000D01*
X205593744Y-114720000D01*
X205160582Y-114806161D01*
X204669375Y-115134375D01*
X204470000Y-115432761D01*
X204270625Y-115134375D01*
X203801431Y-114820870D01*
X205921424Y-112700878D01*
X206375000Y-112791100D01*
X206994410Y-112667891D01*
X207386491Y-112405912D01*
X207504691Y-112582809D01*
X207714735Y-112723157D01*
X207962500Y-112772440D01*
X209867500Y-112772440D01*
X210115265Y-112723157D01*
X210325309Y-112582809D01*
X210465657Y-112372765D01*
X210514940Y-112125000D01*
X210514940Y-110125000D01*
X210465657Y-109877235D01*
X210325309Y-109667191D01*
X210115265Y-109526843D01*
X209867500Y-109477560D01*
X209675000Y-109477560D01*
X209675000Y-107383711D01*
X209792431Y-107266280D01*
X209950000Y-106885874D01*
X209950000Y-106474126D01*
X209792431Y-106093720D01*
X209501280Y-105802569D01*
X209120874Y-105645000D01*
X208709126Y-105645000D01*
X208328720Y-105802569D01*
X208037569Y-106093720D01*
X207880000Y-106474126D01*
X207880000Y-106885874D01*
X208037569Y-107266280D01*
X208155000Y-107383711D01*
X208155001Y-109477560D01*
X207962500Y-109477560D01*
X207714735Y-109526843D01*
X207504691Y-109667191D01*
X207386491Y-109844088D01*
X206994411Y-109582109D01*
X206375000Y-109458900D01*
X205755590Y-109582109D01*
X205230477Y-109932977D01*
X205095841Y-110134474D01*
X204701924Y-109749027D01*
X204207980Y-109534437D01*
X203962000Y-109654406D01*
X203962000Y-110998000D01*
X203982000Y-110998000D01*
X203982000Y-111252000D01*
X203962000Y-111252000D01*
X203962000Y-111272000D01*
X203708000Y-111272000D01*
X203708000Y-111252000D01*
X202409428Y-111252000D01*
X202282620Y-111498864D01*
X202525682Y-112068091D01*
X202968076Y-112500973D01*
X203462020Y-112715563D01*
X203707998Y-112595595D01*
X203707998Y-112760000D01*
X203712699Y-112760000D01*
X202953366Y-113519333D01*
X202807431Y-113167015D01*
X202516280Y-112875864D01*
X202135874Y-112718295D01*
X201969803Y-112718295D01*
X200002643Y-110751136D01*
X202282620Y-110751136D01*
X202409428Y-110998000D01*
X203708000Y-110998000D01*
X203708000Y-109654406D01*
X203462020Y-109534437D01*
X202968076Y-109749027D01*
X202525682Y-110181909D01*
X202282620Y-110751136D01*
X200002643Y-110751136D01*
X199892036Y-110640530D01*
X199849634Y-110577071D01*
X199598242Y-110409096D01*
X199376557Y-110365000D01*
X199376552Y-110365000D01*
X199301705Y-110350112D01*
X199226858Y-110365000D01*
X196419550Y-110365000D01*
X196830010Y-109954540D01*
X197160962Y-109305010D01*
X197275000Y-108585000D01*
X197160962Y-107864990D01*
X196830010Y-107215460D01*
X196314540Y-106699990D01*
X195665010Y-106369038D01*
X194945000Y-106255000D01*
X194224990Y-106369038D01*
X193575460Y-106699990D01*
X193059990Y-107215460D01*
X192729038Y-107864990D01*
X192615000Y-108585000D01*
X192729038Y-109305010D01*
X193059990Y-109954540D01*
X193470450Y-110365000D01*
X186758711Y-110365000D01*
X186641280Y-110247569D01*
X186260874Y-110090000D01*
X185849126Y-110090000D01*
X185468720Y-110247569D01*
X185177569Y-110538720D01*
X185020000Y-110919126D01*
X185020000Y-111330874D01*
X185177569Y-111711280D01*
X185468720Y-112002431D01*
X185505245Y-112017560D01*
X185455000Y-112017560D01*
X185111565Y-112085874D01*
X184820414Y-112280414D01*
X184625874Y-112571565D01*
X184557560Y-112915000D01*
X180364134Y-112915000D01*
X180309024Y-112758188D01*
X179922045Y-112326336D01*
X179399260Y-112075447D01*
X179386890Y-112073524D01*
X179157002Y-112194844D01*
X179157002Y-112112799D01*
X184020801Y-107249001D01*
X186171152Y-107249001D01*
X186245999Y-107263889D01*
X186320846Y-107249001D01*
X186320851Y-107249001D01*
X186542536Y-107204905D01*
X186793928Y-107036930D01*
X186836330Y-106973471D01*
X187021905Y-106787896D01*
X187048711Y-106799000D01*
X187601289Y-106799000D01*
X188111805Y-106587537D01*
X188502537Y-106196805D01*
X188714000Y-105686289D01*
X188714000Y-105133711D01*
X188502537Y-104623195D01*
X188111805Y-104232463D01*
X187601289Y-104021000D01*
X187048711Y-104021000D01*
X186538195Y-104232463D01*
X186147463Y-104623195D01*
X186061592Y-104830505D01*
X186000772Y-104683671D01*
X185759416Y-104615189D01*
X184964605Y-105410000D01*
X184978748Y-105424143D01*
X184799143Y-105603748D01*
X184785000Y-105589605D01*
X184770858Y-105603748D01*
X184591253Y-105424143D01*
X184605395Y-105410000D01*
X183810584Y-104615189D01*
X183569228Y-104683671D01*
X183512989Y-104841565D01*
X183422537Y-104623195D01*
X183234926Y-104435584D01*
X183990189Y-104435584D01*
X184785000Y-105230395D01*
X185579811Y-104435584D01*
X185511329Y-104194228D01*
X184990786Y-104008819D01*
X184438912Y-104036727D01*
X184058671Y-104194228D01*
X183990189Y-104435584D01*
X183234926Y-104435584D01*
X183031805Y-104232463D01*
X182521289Y-104021000D01*
X182168801Y-104021000D01*
X184190472Y-101999330D01*
X184253928Y-101956930D01*
X184421903Y-101705538D01*
X184465999Y-101483853D01*
X184465999Y-101483849D01*
X184480887Y-101409002D01*
X184465999Y-101334155D01*
X184465999Y-91541308D01*
X184508711Y-91559000D01*
X185061289Y-91559000D01*
X185571805Y-91347537D01*
X185962537Y-90956805D01*
X186055000Y-90733580D01*
X186147463Y-90956805D01*
X186538195Y-91347537D01*
X187048711Y-91559000D01*
X187601289Y-91559000D01*
X188111805Y-91347537D01*
X188295631Y-91163711D01*
X188476000Y-91163711D01*
X188476000Y-91716289D01*
X188687463Y-92226805D01*
X189078195Y-92617537D01*
X189301420Y-92710000D01*
X189078195Y-92802463D01*
X188687463Y-93193195D01*
X188476000Y-93703711D01*
X188476000Y-94256289D01*
X188687463Y-94766805D01*
X189078195Y-95157537D01*
X189301420Y-95250000D01*
X189078195Y-95342463D01*
X188687463Y-95733195D01*
X188476000Y-96243711D01*
X188476000Y-96796289D01*
X188687463Y-97306805D01*
X189078195Y-97697537D01*
X189301420Y-97790000D01*
X189078195Y-97882463D01*
X188687463Y-98273195D01*
X188476000Y-98783711D01*
X188476000Y-99336289D01*
X188687463Y-99846805D01*
X189078195Y-100237537D01*
X189301420Y-100330000D01*
X189078195Y-100422463D01*
X188687463Y-100813195D01*
X188476000Y-101323711D01*
X188476000Y-101876289D01*
X188687463Y-102386805D01*
X189078195Y-102777537D01*
X189301420Y-102870000D01*
X189078195Y-102962463D01*
X188687463Y-103353195D01*
X188476000Y-103863711D01*
X188476000Y-104416289D01*
X188687463Y-104926805D01*
X189078195Y-105317537D01*
X189588711Y-105529000D01*
X190141289Y-105529000D01*
X190651805Y-105317537D01*
X191042537Y-104926805D01*
X191254000Y-104416289D01*
X191254000Y-103863711D01*
X191242897Y-103836905D01*
X191449802Y-103630000D01*
X193666822Y-103630000D01*
X193874375Y-103940625D01*
X194365582Y-104268839D01*
X194798744Y-104355000D01*
X195091256Y-104355000D01*
X195524418Y-104268839D01*
X196015625Y-103940625D01*
X196343839Y-103449418D01*
X196459092Y-102870000D01*
X196343839Y-102290582D01*
X196015625Y-101799375D01*
X195717239Y-101600000D01*
X196015625Y-101400625D01*
X196343839Y-100909418D01*
X196459092Y-100330000D01*
X196343839Y-99750582D01*
X196015625Y-99259375D01*
X195717239Y-99060000D01*
X196015625Y-98860625D01*
X196343839Y-98369418D01*
X196459092Y-97790000D01*
X196343839Y-97210582D01*
X196015625Y-96719375D01*
X195717239Y-96520000D01*
X196015625Y-96320625D01*
X196343839Y-95829418D01*
X196459092Y-95250000D01*
X196343839Y-94670582D01*
X196015625Y-94179375D01*
X195717239Y-93980000D01*
X196015625Y-93780625D01*
X196343839Y-93289418D01*
X196459092Y-92710000D01*
X196343839Y-92130582D01*
X196015625Y-91639375D01*
X195997381Y-91627184D01*
X196042765Y-91618157D01*
X196252809Y-91477809D01*
X196393157Y-91267765D01*
X196442440Y-91020000D01*
X196442440Y-89320000D01*
X196393157Y-89072235D01*
X196252809Y-88862191D01*
X196042765Y-88721843D01*
X195795000Y-88672560D01*
X194095000Y-88672560D01*
X193847235Y-88721843D01*
X193637191Y-88862191D01*
X193496843Y-89072235D01*
X193447560Y-89320000D01*
X193447560Y-89410000D01*
X191209846Y-89410000D01*
X191134999Y-89395112D01*
X191060152Y-89410000D01*
X191060148Y-89410000D01*
X190838463Y-89454096D01*
X190587071Y-89622071D01*
X190544671Y-89685527D01*
X190168095Y-90062103D01*
X190141289Y-90051000D01*
X189588711Y-90051000D01*
X189078195Y-90262463D01*
X188687463Y-90653195D01*
X188476000Y-91163711D01*
X188295631Y-91163711D01*
X188502537Y-90956805D01*
X188714000Y-90446289D01*
X188714000Y-89893711D01*
X188502537Y-89383195D01*
X188111805Y-88992463D01*
X187601289Y-88781000D01*
X187048711Y-88781000D01*
X186538195Y-88992463D01*
X186147463Y-89383195D01*
X186055000Y-89606420D01*
X185962537Y-89383195D01*
X185571805Y-88992463D01*
X185061289Y-88781000D01*
X184508711Y-88781000D01*
X184465999Y-88798692D01*
X184465999Y-79535357D01*
X184480887Y-79460509D01*
X184465999Y-79385661D01*
X184465999Y-79385657D01*
X184421903Y-79163972D01*
X184421903Y-79163971D01*
X184296328Y-78976036D01*
X184253928Y-78912580D01*
X184190472Y-78870180D01*
X184060292Y-78740000D01*
X194520000Y-78740000D01*
X194634038Y-79460010D01*
X194964990Y-80109540D01*
X195480460Y-80625010D01*
X196129990Y-80955962D01*
X196850000Y-81070000D01*
X197570010Y-80955962D01*
X198219540Y-80625010D01*
X198735010Y-80109540D01*
X199065962Y-79460010D01*
X199180000Y-78740000D01*
X199065962Y-78019990D01*
X198735010Y-77370460D01*
X198219540Y-76854990D01*
X197570010Y-76524038D01*
X196850000Y-76410000D01*
X196129990Y-76524038D01*
X195480460Y-76854990D01*
X194964990Y-77370460D01*
X194634038Y-78019990D01*
X194520000Y-78740000D01*
X184060292Y-78740000D01*
X183142831Y-77822540D01*
X183142831Y-77296793D01*
X182939589Y-76806124D01*
X182564048Y-76430583D01*
X182073379Y-76227341D01*
X181542283Y-76227341D01*
X181051614Y-76430583D01*
X180679856Y-76802341D01*
X179125806Y-76802341D01*
X178754048Y-76430583D01*
X178263379Y-76227341D01*
X177732283Y-76227341D01*
X177241614Y-76430583D01*
X176869856Y-76802341D01*
X175315806Y-76802341D01*
X174944048Y-76430583D01*
X174453379Y-76227341D01*
X173922283Y-76227341D01*
X173431614Y-76430583D01*
X173056073Y-76806124D01*
X172852831Y-77296793D01*
X172852831Y-77822539D01*
X168885371Y-81790000D01*
X159393178Y-81790000D01*
X159185625Y-81479375D01*
X158887239Y-81280000D01*
X159185625Y-81080625D01*
X159513839Y-80589418D01*
X159629092Y-80010000D01*
X159513839Y-79430582D01*
X159185625Y-78939375D01*
X159167381Y-78927184D01*
X159212765Y-78918157D01*
X159422809Y-78777809D01*
X159563157Y-78567765D01*
X159612440Y-78320000D01*
X159612440Y-77296793D01*
X169042831Y-77296793D01*
X169042831Y-77827889D01*
X169246073Y-78318558D01*
X169621614Y-78694099D01*
X170112283Y-78897341D01*
X170643379Y-78897341D01*
X171134048Y-78694099D01*
X171509589Y-78318558D01*
X171712831Y-77827889D01*
X171712831Y-77296793D01*
X171509589Y-76806124D01*
X171134048Y-76430583D01*
X170643379Y-76227341D01*
X170112283Y-76227341D01*
X169621614Y-76430583D01*
X169246073Y-76806124D01*
X169042831Y-77296793D01*
X159612440Y-77296793D01*
X159612440Y-76620000D01*
X159563157Y-76372235D01*
X159422809Y-76162191D01*
X159212765Y-76021843D01*
X158965000Y-75972560D01*
X157265000Y-75972560D01*
X157017235Y-76021843D01*
X156807191Y-76162191D01*
X156666843Y-76372235D01*
X156617560Y-76620000D01*
X156617560Y-78320000D01*
X156666843Y-78567765D01*
X156807191Y-78777809D01*
X157017235Y-78918157D01*
X157062619Y-78927184D01*
X157044375Y-78939375D01*
X156716161Y-79430582D01*
X156609020Y-79969218D01*
X154205321Y-77565520D01*
X154162919Y-77502061D01*
X153911527Y-77334086D01*
X153689842Y-77289990D01*
X153689837Y-77289990D01*
X153614990Y-77275102D01*
X153540143Y-77289990D01*
X145678143Y-77289990D01*
X145603295Y-77275102D01*
X145528447Y-77289990D01*
X145528443Y-77289990D01*
X145306758Y-77334086D01*
X145055366Y-77502061D01*
X145012966Y-77565517D01*
X138022440Y-84556044D01*
X138022440Y-84240000D01*
X137973157Y-83992235D01*
X137832809Y-83782191D01*
X137622765Y-83641843D01*
X137375000Y-83592560D01*
X135675000Y-83592560D01*
X135427235Y-83641843D01*
X135217191Y-83782191D01*
X135076843Y-83992235D01*
X135027560Y-84240000D01*
X135027560Y-85940000D01*
X135076843Y-86187765D01*
X135217191Y-86397809D01*
X135427235Y-86538157D01*
X135472619Y-86547184D01*
X135454375Y-86559375D01*
X135126161Y-87050582D01*
X135010908Y-87630000D01*
X132790000Y-87630000D01*
X132790000Y-78359000D01*
X132976000Y-78359000D01*
X133090038Y-79079010D01*
X133420990Y-79728540D01*
X133936460Y-80244010D01*
X134585990Y-80574962D01*
X135306000Y-80689000D01*
X136026010Y-80574962D01*
X136675540Y-80244010D01*
X137191010Y-79728540D01*
X137521962Y-79079010D01*
X137636000Y-78359000D01*
X137521962Y-77638990D01*
X137191010Y-76989460D01*
X136675540Y-76473990D01*
X136026010Y-76143038D01*
X135306000Y-76029000D01*
X134585990Y-76143038D01*
X133936460Y-76473990D01*
X133420990Y-76989460D01*
X133090038Y-77638990D01*
X132976000Y-78359000D01*
X132790000Y-78359000D01*
X132790000Y-76262119D01*
X132834065Y-76012213D01*
X132929405Y-75847080D01*
X133075477Y-75724512D01*
X133284465Y-75648445D01*
X133380996Y-75640000D01*
X215837881Y-75640000D01*
X216087787Y-75684065D01*
G04 #@! TD*
M02*
