M48
;DRILL file {KiCad 5.0.2-bee76a0~70~ubuntu18.04.1} date Wed 13 May 2020 10:27:52 PM PDT
;FORMAT={-:-/ absolute / inch / decimal}
FMAT,2
INCH,TZ
T1C0.0157
T2C0.0276
T3C0.0394
T4C0.0433
%
G90
G05
T1
X5.7Y-3.325
X5.85Y-3.775
X5.85Y-4.25
X6.125Y-4.575
X6.425Y-4.3
X6.575Y-3.675
X6.625Y-3.5
X6.675Y-3.75
X6.775Y-3.725
X7.125Y-4.225
X7.325Y-4.375
X7.95Y-4.4785
X8.2427Y-4.1823
T2
X7.0078Y-3.0536
X7.0078Y-3.3536
X7.1578Y-3.0536
X7.1578Y-3.3536
X6.7078Y-3.0536
X6.7078Y-3.3536
X6.8578Y-3.0536
X6.8578Y-3.3536
T3
X6.95Y-4.475
X7.0484Y-4.475
X7.325Y-4.475
X7.4234Y-4.475
X7.9Y-4.575
X8.Y-4.575
X8.1Y-4.575
X8.2Y-4.575
X8.3Y-4.575
X8.4Y-4.575
X6.225Y-3.05
X6.225Y-3.15
X6.225Y-3.25
X6.225Y-3.35
X5.375Y-4.475
X5.4734Y-4.475
X7.675Y-3.55
X7.675Y-3.65
X7.675Y-3.75
X7.675Y-3.85
X7.675Y-3.95
X7.675Y-4.05
X5.375Y-3.35
X5.375Y-3.45
X5.375Y-3.55
X5.375Y-3.65
X5.375Y-3.75
X5.375Y-3.85
X5.375Y-3.95
X5.375Y-4.05
X5.9656Y-3.35
X5.9656Y-3.45
X5.9656Y-3.55
X5.9656Y-3.65
X5.9656Y-3.75
X5.9656Y-3.85
X5.9656Y-3.95
X5.9656Y-4.05
X5.825Y-4.475
X5.9234Y-4.475
X6.275Y-3.55
X6.275Y-3.85
X6.275Y-3.95
X6.275Y-4.05
X6.275Y-4.15
X6.375Y-3.55
X6.375Y-4.15
X6.475Y-3.55
X6.475Y-4.15
X6.575Y-3.55
X6.575Y-4.15
X6.675Y-3.55
X6.675Y-4.15
X6.775Y-3.55
X6.775Y-4.15
X6.875Y-3.55
X6.875Y-4.15
X6.925Y-4.05
X6.975Y-3.55
X6.975Y-4.15
X7.025Y-4.05
X7.075Y-3.55
X7.075Y-4.15
X7.175Y-3.55
X7.175Y-4.15
X7.275Y-3.55
X7.275Y-4.15
X7.375Y-3.55
X7.375Y-4.15
X7.475Y-3.6
X7.475Y-3.7
X7.475Y-3.8
X7.475Y-3.9
X7.475Y-4.
X7.475Y-4.1
X6.525Y-4.4782
X6.6234Y-4.4782
X5.7516Y-3.125
X5.85Y-3.125
X6.175Y-4.4782
X6.2734Y-4.4782
X7.675Y-4.55
T4
X8.025Y-4.375
X8.125Y-4.375
X8.225Y-4.375
T0
M30
