G04 #@! TF.GenerationSoftware,KiCad,Pcbnew,5.0.2-bee76a0~70~ubuntu18.04.1*
G04 #@! TF.CreationDate,2020-05-13T22:27:55-07:00*
G04 #@! TF.ProjectId,auto-chicken-coop-door,6175746f-2d63-4686-9963-6b656e2d636f,rev?*
G04 #@! TF.SameCoordinates,Original*
G04 #@! TF.FileFunction,Soldermask,Top*
G04 #@! TF.FilePolarity,Negative*
%FSLAX46Y46*%
G04 Gerber Fmt 4.6, Leading zero omitted, Abs format (unit mm)*
G04 Created by KiCad (PCBNEW 5.0.2-bee76a0~70~ubuntu18.04.1) date Wed 13 May 2020 10:27:55 PM PDT*
%MOMM*%
%LPD*%
G01*
G04 APERTURE LIST*
%ADD10C,1.100000*%
%ADD11C,0.100000*%
G04 APERTURE END LIST*
D10*
X196536305Y-108585000D02*
G75*
G03X196536305Y-108585000I-1591305J0D01*
G01*
X198441305Y-78740000D02*
G75*
G03X198441305Y-78740000I-1591305J0D01*
G01*
X136922305Y-107823000D02*
G75*
G03X136922305Y-107823000I-1591305J0D01*
G01*
X136897305Y-78359000D02*
G75*
G03X136897305Y-78359000I-1591305J0D01*
G01*
D11*
G36*
X214261000Y-117106000D02*
X212459000Y-117106000D01*
X212459000Y-115304000D01*
X214261000Y-115304000D01*
X214261000Y-117106000D01*
X214261000Y-117106000D01*
G37*
G36*
X210930442Y-115310518D02*
X210996627Y-115317037D01*
X211109853Y-115351384D01*
X211166467Y-115368557D01*
X211305087Y-115442652D01*
X211322991Y-115452222D01*
X211358729Y-115481552D01*
X211460186Y-115564814D01*
X211543448Y-115666271D01*
X211572778Y-115702009D01*
X211572779Y-115702011D01*
X211656443Y-115858533D01*
X211656443Y-115858534D01*
X211707963Y-116028373D01*
X211725359Y-116205000D01*
X211707963Y-116381627D01*
X211673616Y-116494853D01*
X211656443Y-116551467D01*
X211640865Y-116580611D01*
X211572778Y-116707991D01*
X211543448Y-116743729D01*
X211460186Y-116845186D01*
X211358729Y-116928448D01*
X211322991Y-116957778D01*
X211322989Y-116957779D01*
X211166467Y-117041443D01*
X211109853Y-117058616D01*
X210996627Y-117092963D01*
X210930443Y-117099481D01*
X210864260Y-117106000D01*
X210775740Y-117106000D01*
X210709557Y-117099481D01*
X210643373Y-117092963D01*
X210530147Y-117058616D01*
X210473533Y-117041443D01*
X210317011Y-116957779D01*
X210317009Y-116957778D01*
X210281271Y-116928448D01*
X210179814Y-116845186D01*
X210096552Y-116743729D01*
X210067222Y-116707991D01*
X209999135Y-116580611D01*
X209983557Y-116551467D01*
X209966384Y-116494853D01*
X209932037Y-116381627D01*
X209914641Y-116205000D01*
X209932037Y-116028373D01*
X209983557Y-115858534D01*
X209983557Y-115858533D01*
X210067221Y-115702011D01*
X210067222Y-115702009D01*
X210096552Y-115666271D01*
X210179814Y-115564814D01*
X210281271Y-115481552D01*
X210317009Y-115452222D01*
X210334913Y-115442652D01*
X210473533Y-115368557D01*
X210530147Y-115351384D01*
X210643373Y-115317037D01*
X210709558Y-115310518D01*
X210775740Y-115304000D01*
X210864260Y-115304000D01*
X210930442Y-115310518D01*
X210930442Y-115310518D01*
G37*
G36*
X200770442Y-115310518D02*
X200836627Y-115317037D01*
X200949853Y-115351384D01*
X201006467Y-115368557D01*
X201145087Y-115442652D01*
X201162991Y-115452222D01*
X201198729Y-115481552D01*
X201300186Y-115564814D01*
X201383448Y-115666271D01*
X201412778Y-115702009D01*
X201412779Y-115702011D01*
X201496443Y-115858533D01*
X201496443Y-115858534D01*
X201547963Y-116028373D01*
X201565359Y-116205000D01*
X201547963Y-116381627D01*
X201513616Y-116494853D01*
X201496443Y-116551467D01*
X201480865Y-116580611D01*
X201412778Y-116707991D01*
X201383448Y-116743729D01*
X201300186Y-116845186D01*
X201198729Y-116928448D01*
X201162991Y-116957778D01*
X201162989Y-116957779D01*
X201006467Y-117041443D01*
X200949853Y-117058616D01*
X200836627Y-117092963D01*
X200770443Y-117099481D01*
X200704260Y-117106000D01*
X200615740Y-117106000D01*
X200549557Y-117099481D01*
X200483373Y-117092963D01*
X200370147Y-117058616D01*
X200313533Y-117041443D01*
X200157011Y-116957779D01*
X200157009Y-116957778D01*
X200121271Y-116928448D01*
X200019814Y-116845186D01*
X199936552Y-116743729D01*
X199907222Y-116707991D01*
X199839135Y-116580611D01*
X199823557Y-116551467D01*
X199806384Y-116494853D01*
X199772037Y-116381627D01*
X199754641Y-116205000D01*
X199772037Y-116028373D01*
X199823557Y-115858534D01*
X199823557Y-115858533D01*
X199907221Y-115702011D01*
X199907222Y-115702009D01*
X199936552Y-115666271D01*
X200019814Y-115564814D01*
X200121271Y-115481552D01*
X200157009Y-115452222D01*
X200174913Y-115442652D01*
X200313533Y-115368557D01*
X200370147Y-115351384D01*
X200483373Y-115317037D01*
X200549558Y-115310518D01*
X200615740Y-115304000D01*
X200704260Y-115304000D01*
X200770442Y-115310518D01*
X200770442Y-115310518D01*
G37*
G36*
X203310442Y-115310518D02*
X203376627Y-115317037D01*
X203489853Y-115351384D01*
X203546467Y-115368557D01*
X203685087Y-115442652D01*
X203702991Y-115452222D01*
X203738729Y-115481552D01*
X203840186Y-115564814D01*
X203923448Y-115666271D01*
X203952778Y-115702009D01*
X203952779Y-115702011D01*
X204036443Y-115858533D01*
X204036443Y-115858534D01*
X204087963Y-116028373D01*
X204105359Y-116205000D01*
X204087963Y-116381627D01*
X204053616Y-116494853D01*
X204036443Y-116551467D01*
X204020865Y-116580611D01*
X203952778Y-116707991D01*
X203923448Y-116743729D01*
X203840186Y-116845186D01*
X203738729Y-116928448D01*
X203702991Y-116957778D01*
X203702989Y-116957779D01*
X203546467Y-117041443D01*
X203489853Y-117058616D01*
X203376627Y-117092963D01*
X203310443Y-117099481D01*
X203244260Y-117106000D01*
X203155740Y-117106000D01*
X203089557Y-117099481D01*
X203023373Y-117092963D01*
X202910147Y-117058616D01*
X202853533Y-117041443D01*
X202697011Y-116957779D01*
X202697009Y-116957778D01*
X202661271Y-116928448D01*
X202559814Y-116845186D01*
X202476552Y-116743729D01*
X202447222Y-116707991D01*
X202379135Y-116580611D01*
X202363557Y-116551467D01*
X202346384Y-116494853D01*
X202312037Y-116381627D01*
X202294641Y-116205000D01*
X202312037Y-116028373D01*
X202363557Y-115858534D01*
X202363557Y-115858533D01*
X202447221Y-115702011D01*
X202447222Y-115702009D01*
X202476552Y-115666271D01*
X202559814Y-115564814D01*
X202661271Y-115481552D01*
X202697009Y-115452222D01*
X202714913Y-115442652D01*
X202853533Y-115368557D01*
X202910147Y-115351384D01*
X203023373Y-115317037D01*
X203089558Y-115310518D01*
X203155740Y-115304000D01*
X203244260Y-115304000D01*
X203310442Y-115310518D01*
X203310442Y-115310518D01*
G37*
G36*
X208390442Y-115310518D02*
X208456627Y-115317037D01*
X208569853Y-115351384D01*
X208626467Y-115368557D01*
X208765087Y-115442652D01*
X208782991Y-115452222D01*
X208818729Y-115481552D01*
X208920186Y-115564814D01*
X209003448Y-115666271D01*
X209032778Y-115702009D01*
X209032779Y-115702011D01*
X209116443Y-115858533D01*
X209116443Y-115858534D01*
X209167963Y-116028373D01*
X209185359Y-116205000D01*
X209167963Y-116381627D01*
X209133616Y-116494853D01*
X209116443Y-116551467D01*
X209100865Y-116580611D01*
X209032778Y-116707991D01*
X209003448Y-116743729D01*
X208920186Y-116845186D01*
X208818729Y-116928448D01*
X208782991Y-116957778D01*
X208782989Y-116957779D01*
X208626467Y-117041443D01*
X208569853Y-117058616D01*
X208456627Y-117092963D01*
X208390443Y-117099481D01*
X208324260Y-117106000D01*
X208235740Y-117106000D01*
X208169557Y-117099481D01*
X208103373Y-117092963D01*
X207990147Y-117058616D01*
X207933533Y-117041443D01*
X207777011Y-116957779D01*
X207777009Y-116957778D01*
X207741271Y-116928448D01*
X207639814Y-116845186D01*
X207556552Y-116743729D01*
X207527222Y-116707991D01*
X207459135Y-116580611D01*
X207443557Y-116551467D01*
X207426384Y-116494853D01*
X207392037Y-116381627D01*
X207374641Y-116205000D01*
X207392037Y-116028373D01*
X207443557Y-115858534D01*
X207443557Y-115858533D01*
X207527221Y-115702011D01*
X207527222Y-115702009D01*
X207556552Y-115666271D01*
X207639814Y-115564814D01*
X207741271Y-115481552D01*
X207777009Y-115452222D01*
X207794913Y-115442652D01*
X207933533Y-115368557D01*
X207990147Y-115351384D01*
X208103373Y-115317037D01*
X208169558Y-115310518D01*
X208235740Y-115304000D01*
X208324260Y-115304000D01*
X208390442Y-115310518D01*
X208390442Y-115310518D01*
G37*
G36*
X205850442Y-115310518D02*
X205916627Y-115317037D01*
X206029853Y-115351384D01*
X206086467Y-115368557D01*
X206225087Y-115442652D01*
X206242991Y-115452222D01*
X206278729Y-115481552D01*
X206380186Y-115564814D01*
X206463448Y-115666271D01*
X206492778Y-115702009D01*
X206492779Y-115702011D01*
X206576443Y-115858533D01*
X206576443Y-115858534D01*
X206627963Y-116028373D01*
X206645359Y-116205000D01*
X206627963Y-116381627D01*
X206593616Y-116494853D01*
X206576443Y-116551467D01*
X206560865Y-116580611D01*
X206492778Y-116707991D01*
X206463448Y-116743729D01*
X206380186Y-116845186D01*
X206278729Y-116928448D01*
X206242991Y-116957778D01*
X206242989Y-116957779D01*
X206086467Y-117041443D01*
X206029853Y-117058616D01*
X205916627Y-117092963D01*
X205850443Y-117099481D01*
X205784260Y-117106000D01*
X205695740Y-117106000D01*
X205629557Y-117099481D01*
X205563373Y-117092963D01*
X205450147Y-117058616D01*
X205393533Y-117041443D01*
X205237011Y-116957779D01*
X205237009Y-116957778D01*
X205201271Y-116928448D01*
X205099814Y-116845186D01*
X205016552Y-116743729D01*
X204987222Y-116707991D01*
X204919135Y-116580611D01*
X204903557Y-116551467D01*
X204886384Y-116494853D01*
X204852037Y-116381627D01*
X204834641Y-116205000D01*
X204852037Y-116028373D01*
X204903557Y-115858534D01*
X204903557Y-115858533D01*
X204987221Y-115702011D01*
X204987222Y-115702009D01*
X205016552Y-115666271D01*
X205099814Y-115564814D01*
X205201271Y-115481552D01*
X205237009Y-115452222D01*
X205254913Y-115442652D01*
X205393533Y-115368557D01*
X205450147Y-115351384D01*
X205563373Y-115317037D01*
X205629558Y-115310518D01*
X205695740Y-115304000D01*
X205784260Y-115304000D01*
X205850442Y-115310518D01*
X205850442Y-115310518D01*
G37*
G36*
X195251565Y-114559389D02*
X195442834Y-114638615D01*
X195614976Y-114753637D01*
X195761363Y-114900024D01*
X195876385Y-115072166D01*
X195955611Y-115263435D01*
X195996000Y-115466484D01*
X195996000Y-115673516D01*
X195955611Y-115876565D01*
X195876385Y-116067834D01*
X195761363Y-116239976D01*
X195614976Y-116386363D01*
X195442834Y-116501385D01*
X195251565Y-116580611D01*
X195048516Y-116621000D01*
X194841484Y-116621000D01*
X194638435Y-116580611D01*
X194447166Y-116501385D01*
X194275024Y-116386363D01*
X194128637Y-116239976D01*
X194013615Y-116067834D01*
X193934389Y-115876565D01*
X193894000Y-115673516D01*
X193894000Y-115466484D01*
X193934389Y-115263435D01*
X194013615Y-115072166D01*
X194128637Y-114900024D01*
X194275024Y-114753637D01*
X194447166Y-114638615D01*
X194638435Y-114559389D01*
X194841484Y-114519000D01*
X195048516Y-114519000D01*
X195251565Y-114559389D01*
X195251565Y-114559389D01*
G37*
G36*
X159521626Y-112708038D02*
X159634852Y-112742385D01*
X159691466Y-112759558D01*
X159847989Y-112843222D01*
X159985186Y-112955815D01*
X160068448Y-113057272D01*
X160097778Y-113093010D01*
X160097779Y-113093012D01*
X160181443Y-113249534D01*
X160198616Y-113306148D01*
X160232963Y-113419374D01*
X160246000Y-113551743D01*
X160246000Y-113940258D01*
X160232963Y-114072627D01*
X160181443Y-114242467D01*
X160097778Y-114398992D01*
X160097777Y-114398993D01*
X159985186Y-114536187D01*
X159890251Y-114614097D01*
X159847991Y-114648779D01*
X159847989Y-114648780D01*
X159691467Y-114732444D01*
X159650734Y-114744800D01*
X159521627Y-114783964D01*
X159345000Y-114801360D01*
X159168374Y-114783964D01*
X159039267Y-114744800D01*
X158998534Y-114732444D01*
X158842012Y-114648780D01*
X158842010Y-114648779D01*
X158704816Y-114536187D01*
X158704812Y-114536184D01*
X158592222Y-114398993D01*
X158508557Y-114242468D01*
X158483986Y-114161466D01*
X158457037Y-114072628D01*
X158444000Y-113940259D01*
X158444000Y-113551744D01*
X158457037Y-113419375D01*
X158508557Y-113249536D01*
X158508557Y-113249535D01*
X158592221Y-113093012D01*
X158704814Y-112955815D01*
X158806271Y-112872553D01*
X158842009Y-112843223D01*
X158871797Y-112827301D01*
X158998533Y-112759558D01*
X159055147Y-112742385D01*
X159168373Y-112708038D01*
X159345000Y-112690642D01*
X159521626Y-112708038D01*
X159521626Y-112708038D01*
G37*
G36*
X168411626Y-112708038D02*
X168524852Y-112742385D01*
X168581466Y-112759558D01*
X168737989Y-112843222D01*
X168875186Y-112955815D01*
X168958448Y-113057272D01*
X168987778Y-113093010D01*
X168987779Y-113093012D01*
X169071443Y-113249534D01*
X169088616Y-113306148D01*
X169122963Y-113419374D01*
X169136000Y-113551743D01*
X169136000Y-113940258D01*
X169122963Y-114072627D01*
X169071443Y-114242467D01*
X168987778Y-114398992D01*
X168987777Y-114398993D01*
X168875186Y-114536187D01*
X168780251Y-114614097D01*
X168737991Y-114648779D01*
X168737989Y-114648780D01*
X168581467Y-114732444D01*
X168540734Y-114744800D01*
X168411627Y-114783964D01*
X168235000Y-114801360D01*
X168058374Y-114783964D01*
X167929267Y-114744800D01*
X167888534Y-114732444D01*
X167732012Y-114648780D01*
X167732010Y-114648779D01*
X167594816Y-114536187D01*
X167594812Y-114536184D01*
X167482222Y-114398993D01*
X167398557Y-114242468D01*
X167373986Y-114161466D01*
X167347037Y-114072628D01*
X167334000Y-113940259D01*
X167334000Y-113551744D01*
X167347037Y-113419375D01*
X167398557Y-113249536D01*
X167398557Y-113249535D01*
X167482221Y-113093012D01*
X167594814Y-112955815D01*
X167696271Y-112872553D01*
X167732009Y-112843223D01*
X167761797Y-112827301D01*
X167888533Y-112759558D01*
X167945147Y-112742385D01*
X168058373Y-112708038D01*
X168235000Y-112690642D01*
X168411626Y-112708038D01*
X168411626Y-112708038D01*
G37*
G36*
X157603600Y-112698990D02*
X157636649Y-112709015D01*
X157667106Y-112725295D01*
X157693799Y-112747202D01*
X157715706Y-112773895D01*
X157731986Y-112804352D01*
X157742011Y-112837401D01*
X157746000Y-112877905D01*
X157746000Y-114614097D01*
X157742011Y-114654601D01*
X157731986Y-114687650D01*
X157715706Y-114718107D01*
X157693799Y-114744800D01*
X157667106Y-114766707D01*
X157636649Y-114782987D01*
X157603600Y-114793012D01*
X157563096Y-114797001D01*
X156126904Y-114797001D01*
X156086400Y-114793012D01*
X156053351Y-114782987D01*
X156022894Y-114766707D01*
X155996201Y-114744800D01*
X155974294Y-114718107D01*
X155958014Y-114687650D01*
X155947989Y-114654601D01*
X155944000Y-114614097D01*
X155944000Y-112877905D01*
X155947989Y-112837401D01*
X155958014Y-112804352D01*
X155974294Y-112773895D01*
X155996201Y-112747202D01*
X156022894Y-112725295D01*
X156053351Y-112709015D01*
X156086400Y-112698990D01*
X156126904Y-112695001D01*
X157563096Y-112695001D01*
X157603600Y-112698990D01*
X157603600Y-112698990D01*
G37*
G36*
X166493600Y-112698990D02*
X166526649Y-112709015D01*
X166557106Y-112725295D01*
X166583799Y-112747202D01*
X166605706Y-112773895D01*
X166621986Y-112804352D01*
X166632011Y-112837401D01*
X166636000Y-112877905D01*
X166636000Y-114614097D01*
X166632011Y-114654601D01*
X166621986Y-114687650D01*
X166605706Y-114718107D01*
X166583799Y-114744800D01*
X166557106Y-114766707D01*
X166526649Y-114782987D01*
X166493600Y-114793012D01*
X166453096Y-114797001D01*
X165016904Y-114797001D01*
X164976400Y-114793012D01*
X164943351Y-114782987D01*
X164912894Y-114766707D01*
X164886201Y-114744800D01*
X164864294Y-114718107D01*
X164848014Y-114687650D01*
X164837989Y-114654601D01*
X164834000Y-114614097D01*
X164834000Y-112877905D01*
X164837989Y-112837401D01*
X164848014Y-112804352D01*
X164864294Y-112773895D01*
X164886201Y-112747202D01*
X164912894Y-112725295D01*
X164943351Y-112709015D01*
X164976400Y-112698990D01*
X165016904Y-112695001D01*
X166453096Y-112695001D01*
X166493600Y-112698990D01*
X166493600Y-112698990D01*
G37*
G36*
X139201626Y-112627037D02*
X139314852Y-112661384D01*
X139371466Y-112678557D01*
X139527989Y-112762221D01*
X139665186Y-112874814D01*
X139735096Y-112960001D01*
X139777778Y-113012009D01*
X139777779Y-113012011D01*
X139861443Y-113168533D01*
X139878616Y-113225147D01*
X139912963Y-113338373D01*
X139926000Y-113470742D01*
X139926000Y-113859257D01*
X139912963Y-113991626D01*
X139861443Y-114161466D01*
X139777778Y-114317991D01*
X139777777Y-114317992D01*
X139665186Y-114455186D01*
X139563729Y-114538448D01*
X139527991Y-114567778D01*
X139527989Y-114567779D01*
X139371467Y-114651443D01*
X139330734Y-114663799D01*
X139201627Y-114702963D01*
X139025000Y-114720359D01*
X138848374Y-114702963D01*
X138719267Y-114663799D01*
X138678534Y-114651443D01*
X138522012Y-114567779D01*
X138522010Y-114567778D01*
X138384816Y-114455186D01*
X138384812Y-114455183D01*
X138272222Y-114317992D01*
X138188557Y-114161467D01*
X138171384Y-114104853D01*
X138137037Y-113991627D01*
X138124000Y-113859258D01*
X138124000Y-113470743D01*
X138137037Y-113338374D01*
X138188557Y-113168535D01*
X138188557Y-113168534D01*
X138272221Y-113012011D01*
X138384814Y-112874814D01*
X138486271Y-112791552D01*
X138522009Y-112762222D01*
X138564215Y-112739662D01*
X138678533Y-112678557D01*
X138735147Y-112661384D01*
X138848373Y-112627037D01*
X139025000Y-112609641D01*
X139201626Y-112627037D01*
X139201626Y-112627037D01*
G37*
G36*
X150631626Y-112627037D02*
X150744852Y-112661384D01*
X150801466Y-112678557D01*
X150957989Y-112762221D01*
X151095186Y-112874814D01*
X151165096Y-112960001D01*
X151207778Y-113012009D01*
X151207779Y-113012011D01*
X151291443Y-113168533D01*
X151308616Y-113225147D01*
X151342963Y-113338373D01*
X151356000Y-113470742D01*
X151356000Y-113859257D01*
X151342963Y-113991626D01*
X151291443Y-114161466D01*
X151207778Y-114317991D01*
X151207777Y-114317992D01*
X151095186Y-114455186D01*
X150993729Y-114538448D01*
X150957991Y-114567778D01*
X150957989Y-114567779D01*
X150801467Y-114651443D01*
X150760734Y-114663799D01*
X150631627Y-114702963D01*
X150455000Y-114720359D01*
X150278374Y-114702963D01*
X150149267Y-114663799D01*
X150108534Y-114651443D01*
X149952012Y-114567779D01*
X149952010Y-114567778D01*
X149814816Y-114455186D01*
X149814812Y-114455183D01*
X149702222Y-114317992D01*
X149618557Y-114161467D01*
X149601384Y-114104853D01*
X149567037Y-113991627D01*
X149554000Y-113859258D01*
X149554000Y-113470743D01*
X149567037Y-113338374D01*
X149618557Y-113168535D01*
X149618557Y-113168534D01*
X149702221Y-113012011D01*
X149814814Y-112874814D01*
X149916271Y-112791552D01*
X149952009Y-112762222D01*
X149994215Y-112739662D01*
X150108533Y-112678557D01*
X150165147Y-112661384D01*
X150278373Y-112627037D01*
X150455000Y-112609641D01*
X150631626Y-112627037D01*
X150631626Y-112627037D01*
G37*
G36*
X179206626Y-112627037D02*
X179319852Y-112661384D01*
X179376466Y-112678557D01*
X179532989Y-112762221D01*
X179670186Y-112874814D01*
X179740096Y-112960001D01*
X179782778Y-113012009D01*
X179782779Y-113012011D01*
X179866443Y-113168533D01*
X179883616Y-113225147D01*
X179917963Y-113338373D01*
X179931000Y-113470742D01*
X179931000Y-113859257D01*
X179917963Y-113991626D01*
X179866443Y-114161466D01*
X179782778Y-114317991D01*
X179782777Y-114317992D01*
X179670186Y-114455186D01*
X179568729Y-114538448D01*
X179532991Y-114567778D01*
X179532989Y-114567779D01*
X179376467Y-114651443D01*
X179335734Y-114663799D01*
X179206627Y-114702963D01*
X179030000Y-114720359D01*
X178853374Y-114702963D01*
X178724267Y-114663799D01*
X178683534Y-114651443D01*
X178527012Y-114567779D01*
X178527010Y-114567778D01*
X178389816Y-114455186D01*
X178389812Y-114455183D01*
X178277222Y-114317992D01*
X178193557Y-114161467D01*
X178176384Y-114104853D01*
X178142037Y-113991627D01*
X178129000Y-113859258D01*
X178129000Y-113470743D01*
X178142037Y-113338374D01*
X178193557Y-113168535D01*
X178193557Y-113168534D01*
X178277221Y-113012011D01*
X178389814Y-112874814D01*
X178491271Y-112791552D01*
X178527009Y-112762222D01*
X178569215Y-112739662D01*
X178683533Y-112678557D01*
X178740147Y-112661384D01*
X178853373Y-112627037D01*
X179030000Y-112609641D01*
X179206626Y-112627037D01*
X179206626Y-112627037D01*
G37*
G36*
X188731626Y-112627037D02*
X188844852Y-112661384D01*
X188901466Y-112678557D01*
X189057989Y-112762221D01*
X189195186Y-112874814D01*
X189265096Y-112960001D01*
X189307778Y-113012009D01*
X189307779Y-113012011D01*
X189391443Y-113168533D01*
X189408616Y-113225147D01*
X189442963Y-113338373D01*
X189456000Y-113470742D01*
X189456000Y-113859257D01*
X189442963Y-113991626D01*
X189391443Y-114161466D01*
X189307778Y-114317991D01*
X189307777Y-114317992D01*
X189195186Y-114455186D01*
X189093729Y-114538448D01*
X189057991Y-114567778D01*
X189057989Y-114567779D01*
X188901467Y-114651443D01*
X188860734Y-114663799D01*
X188731627Y-114702963D01*
X188555000Y-114720359D01*
X188378374Y-114702963D01*
X188249267Y-114663799D01*
X188208534Y-114651443D01*
X188052012Y-114567779D01*
X188052010Y-114567778D01*
X187914816Y-114455186D01*
X187914812Y-114455183D01*
X187802222Y-114317992D01*
X187718557Y-114161467D01*
X187701384Y-114104853D01*
X187667037Y-113991627D01*
X187654000Y-113859258D01*
X187654000Y-113470743D01*
X187667037Y-113338374D01*
X187718557Y-113168535D01*
X187718557Y-113168534D01*
X187802221Y-113012011D01*
X187914814Y-112874814D01*
X188016271Y-112791552D01*
X188052009Y-112762222D01*
X188094215Y-112739662D01*
X188208533Y-112678557D01*
X188265147Y-112661384D01*
X188378373Y-112627037D01*
X188555000Y-112609641D01*
X188731626Y-112627037D01*
X188731626Y-112627037D01*
G37*
G36*
X148713600Y-112617989D02*
X148746649Y-112628014D01*
X148777106Y-112644294D01*
X148803799Y-112666201D01*
X148825706Y-112692894D01*
X148841986Y-112723351D01*
X148852011Y-112756400D01*
X148856000Y-112796904D01*
X148856000Y-114533096D01*
X148852011Y-114573600D01*
X148841986Y-114606649D01*
X148825706Y-114637106D01*
X148803799Y-114663799D01*
X148777106Y-114685706D01*
X148746649Y-114701986D01*
X148713600Y-114712011D01*
X148673096Y-114716000D01*
X147236904Y-114716000D01*
X147196400Y-114712011D01*
X147163351Y-114701986D01*
X147132894Y-114685706D01*
X147106201Y-114663799D01*
X147084294Y-114637106D01*
X147068014Y-114606649D01*
X147057989Y-114573600D01*
X147054000Y-114533096D01*
X147054000Y-112796904D01*
X147057989Y-112756400D01*
X147068014Y-112723351D01*
X147084294Y-112692894D01*
X147106201Y-112666201D01*
X147132894Y-112644294D01*
X147163351Y-112628014D01*
X147196400Y-112617989D01*
X147236904Y-112614000D01*
X148673096Y-112614000D01*
X148713600Y-112617989D01*
X148713600Y-112617989D01*
G37*
G36*
X137283600Y-112617989D02*
X137316649Y-112628014D01*
X137347106Y-112644294D01*
X137373799Y-112666201D01*
X137395706Y-112692894D01*
X137411986Y-112723351D01*
X137422011Y-112756400D01*
X137426000Y-112796904D01*
X137426000Y-114533096D01*
X137422011Y-114573600D01*
X137411986Y-114606649D01*
X137395706Y-114637106D01*
X137373799Y-114663799D01*
X137347106Y-114685706D01*
X137316649Y-114701986D01*
X137283600Y-114712011D01*
X137243096Y-114716000D01*
X135806904Y-114716000D01*
X135766400Y-114712011D01*
X135733351Y-114701986D01*
X135702894Y-114685706D01*
X135676201Y-114663799D01*
X135654294Y-114637106D01*
X135638014Y-114606649D01*
X135627989Y-114573600D01*
X135624000Y-114533096D01*
X135624000Y-112796904D01*
X135627989Y-112756400D01*
X135638014Y-112723351D01*
X135654294Y-112692894D01*
X135676201Y-112666201D01*
X135702894Y-112644294D01*
X135733351Y-112628014D01*
X135766400Y-112617989D01*
X135806904Y-112614000D01*
X137243096Y-112614000D01*
X137283600Y-112617989D01*
X137283600Y-112617989D01*
G37*
G36*
X177288600Y-112617989D02*
X177321649Y-112628014D01*
X177352106Y-112644294D01*
X177378799Y-112666201D01*
X177400706Y-112692894D01*
X177416986Y-112723351D01*
X177427011Y-112756400D01*
X177431000Y-112796904D01*
X177431000Y-114533096D01*
X177427011Y-114573600D01*
X177416986Y-114606649D01*
X177400706Y-114637106D01*
X177378799Y-114663799D01*
X177352106Y-114685706D01*
X177321649Y-114701986D01*
X177288600Y-114712011D01*
X177248096Y-114716000D01*
X175811904Y-114716000D01*
X175771400Y-114712011D01*
X175738351Y-114701986D01*
X175707894Y-114685706D01*
X175681201Y-114663799D01*
X175659294Y-114637106D01*
X175643014Y-114606649D01*
X175632989Y-114573600D01*
X175629000Y-114533096D01*
X175629000Y-112796904D01*
X175632989Y-112756400D01*
X175643014Y-112723351D01*
X175659294Y-112692894D01*
X175681201Y-112666201D01*
X175707894Y-112644294D01*
X175738351Y-112628014D01*
X175771400Y-112617989D01*
X175811904Y-112614000D01*
X177248096Y-112614000D01*
X177288600Y-112617989D01*
X177288600Y-112617989D01*
G37*
G36*
X186813600Y-112617989D02*
X186846649Y-112628014D01*
X186877106Y-112644294D01*
X186903799Y-112666201D01*
X186925706Y-112692894D01*
X186941986Y-112723351D01*
X186952011Y-112756400D01*
X186956000Y-112796904D01*
X186956000Y-114533096D01*
X186952011Y-114573600D01*
X186941986Y-114606649D01*
X186925706Y-114637106D01*
X186903799Y-114663799D01*
X186877106Y-114685706D01*
X186846649Y-114701986D01*
X186813600Y-114712011D01*
X186773096Y-114716000D01*
X185336904Y-114716000D01*
X185296400Y-114712011D01*
X185263351Y-114701986D01*
X185232894Y-114685706D01*
X185206201Y-114663799D01*
X185184294Y-114637106D01*
X185168014Y-114606649D01*
X185157989Y-114573600D01*
X185154000Y-114533096D01*
X185154000Y-112796904D01*
X185157989Y-112756400D01*
X185168014Y-112723351D01*
X185184294Y-112692894D01*
X185206201Y-112666201D01*
X185232894Y-112644294D01*
X185263351Y-112628014D01*
X185296400Y-112617989D01*
X185336904Y-112614000D01*
X186773096Y-112614000D01*
X186813600Y-112617989D01*
X186813600Y-112617989D01*
G37*
G36*
X204031720Y-110088520D02*
X204220881Y-110145901D01*
X204395212Y-110239083D01*
X204548015Y-110364485D01*
X204673417Y-110517288D01*
X204766599Y-110691620D01*
X204823980Y-110880781D01*
X204838500Y-111028207D01*
X204838500Y-111221794D01*
X204823980Y-111369220D01*
X204766599Y-111558381D01*
X204673417Y-111732712D01*
X204548015Y-111885515D01*
X204395212Y-112010917D01*
X204220880Y-112104099D01*
X204031719Y-112161480D01*
X203835000Y-112180855D01*
X203638280Y-112161480D01*
X203449119Y-112104099D01*
X203274788Y-112010917D01*
X203121985Y-111885515D01*
X202996583Y-111732712D01*
X202903401Y-111558380D01*
X202846020Y-111369219D01*
X202831500Y-111221793D01*
X202831500Y-111028206D01*
X202846020Y-110880780D01*
X202903401Y-110691619D01*
X202996583Y-110517288D01*
X203121985Y-110364485D01*
X203274788Y-110239083D01*
X203449120Y-110145901D01*
X203638281Y-110088520D01*
X203835000Y-110069145D01*
X204031720Y-110088520D01*
X204031720Y-110088520D01*
G37*
G36*
X206571720Y-110088520D02*
X206760881Y-110145901D01*
X206935212Y-110239083D01*
X207088015Y-110364485D01*
X207213417Y-110517288D01*
X207306599Y-110691620D01*
X207363980Y-110880781D01*
X207378500Y-111028207D01*
X207378500Y-111221794D01*
X207363980Y-111369220D01*
X207306599Y-111558381D01*
X207213417Y-111732712D01*
X207088015Y-111885515D01*
X206935212Y-112010917D01*
X206760880Y-112104099D01*
X206571719Y-112161480D01*
X206375000Y-112180855D01*
X206178280Y-112161480D01*
X205989119Y-112104099D01*
X205814788Y-112010917D01*
X205661985Y-111885515D01*
X205536583Y-111732712D01*
X205443401Y-111558380D01*
X205386020Y-111369219D01*
X205371500Y-111221793D01*
X205371500Y-111028206D01*
X205386020Y-110880780D01*
X205443401Y-110691619D01*
X205536583Y-110517288D01*
X205661985Y-110364485D01*
X205814788Y-110239083D01*
X205989120Y-110145901D01*
X206178281Y-110088520D01*
X206375000Y-110069145D01*
X206571720Y-110088520D01*
X206571720Y-110088520D01*
G37*
G36*
X209918500Y-112176000D02*
X207911500Y-112176000D01*
X207911500Y-110074000D01*
X209918500Y-110074000D01*
X209918500Y-112176000D01*
X209918500Y-112176000D01*
G37*
G36*
X174859807Y-104635935D02*
X174859809Y-104635936D01*
X174859810Y-104635936D01*
X175006310Y-104696618D01*
X175006311Y-104696619D01*
X175138161Y-104784718D01*
X175250282Y-104896839D01*
X175250284Y-104896842D01*
X175338382Y-105028690D01*
X175399064Y-105175190D01*
X175430000Y-105330714D01*
X175430000Y-105489286D01*
X175399064Y-105644810D01*
X175338382Y-105791310D01*
X175338381Y-105791311D01*
X175250282Y-105923161D01*
X175138161Y-106035282D01*
X175138158Y-106035284D01*
X175006310Y-106123382D01*
X174859810Y-106184064D01*
X174859809Y-106184064D01*
X174859807Y-106184065D01*
X174704287Y-106215000D01*
X174545713Y-106215000D01*
X174390193Y-106184065D01*
X174390191Y-106184064D01*
X174390190Y-106184064D01*
X174243690Y-106123382D01*
X174111842Y-106035284D01*
X174111839Y-106035282D01*
X173999718Y-105923161D01*
X173911619Y-105791311D01*
X173911618Y-105791310D01*
X173850936Y-105644810D01*
X173820000Y-105489286D01*
X173820000Y-105330714D01*
X173850936Y-105175190D01*
X173911618Y-105028690D01*
X173999716Y-104896842D01*
X173999718Y-104896839D01*
X174111839Y-104784718D01*
X174243689Y-104696619D01*
X174243690Y-104696618D01*
X174390190Y-104635936D01*
X174390191Y-104635936D01*
X174390193Y-104635935D01*
X174545713Y-104605000D01*
X174704287Y-104605000D01*
X174859807Y-104635935D01*
X174859807Y-104635935D01*
G37*
G36*
X162159807Y-104635935D02*
X162159809Y-104635936D01*
X162159810Y-104635936D01*
X162306310Y-104696618D01*
X162306311Y-104696619D01*
X162438161Y-104784718D01*
X162550282Y-104896839D01*
X162550284Y-104896842D01*
X162638382Y-105028690D01*
X162699064Y-105175190D01*
X162730000Y-105330714D01*
X162730000Y-105489286D01*
X162699064Y-105644810D01*
X162638382Y-105791310D01*
X162638381Y-105791311D01*
X162550282Y-105923161D01*
X162438161Y-106035282D01*
X162438158Y-106035284D01*
X162306310Y-106123382D01*
X162159810Y-106184064D01*
X162159809Y-106184064D01*
X162159807Y-106184065D01*
X162004287Y-106215000D01*
X161845713Y-106215000D01*
X161690193Y-106184065D01*
X161690191Y-106184064D01*
X161690190Y-106184064D01*
X161543690Y-106123382D01*
X161411842Y-106035284D01*
X161411839Y-106035282D01*
X161299718Y-105923161D01*
X161211619Y-105791311D01*
X161211618Y-105791310D01*
X161150936Y-105644810D01*
X161120000Y-105489286D01*
X161120000Y-105330714D01*
X161150936Y-105175190D01*
X161211618Y-105028690D01*
X161299716Y-104896842D01*
X161299718Y-104896839D01*
X161411839Y-104784718D01*
X161543689Y-104696619D01*
X161543690Y-104696618D01*
X161690190Y-104635936D01*
X161690191Y-104635936D01*
X161690193Y-104635935D01*
X161845713Y-104605000D01*
X162004287Y-104605000D01*
X162159807Y-104635935D01*
X162159807Y-104635935D01*
G37*
G36*
X159619807Y-104635935D02*
X159619809Y-104635936D01*
X159619810Y-104635936D01*
X159766310Y-104696618D01*
X159766311Y-104696619D01*
X159898161Y-104784718D01*
X160010282Y-104896839D01*
X160010284Y-104896842D01*
X160098382Y-105028690D01*
X160159064Y-105175190D01*
X160190000Y-105330714D01*
X160190000Y-105489286D01*
X160159064Y-105644810D01*
X160098382Y-105791310D01*
X160098381Y-105791311D01*
X160010282Y-105923161D01*
X159898161Y-106035282D01*
X159898158Y-106035284D01*
X159766310Y-106123382D01*
X159619810Y-106184064D01*
X159619809Y-106184064D01*
X159619807Y-106184065D01*
X159464287Y-106215000D01*
X159305713Y-106215000D01*
X159150193Y-106184065D01*
X159150191Y-106184064D01*
X159150190Y-106184064D01*
X159003690Y-106123382D01*
X158871842Y-106035284D01*
X158871839Y-106035282D01*
X158759718Y-105923161D01*
X158671619Y-105791311D01*
X158671618Y-105791310D01*
X158610936Y-105644810D01*
X158580000Y-105489286D01*
X158580000Y-105330714D01*
X158610936Y-105175190D01*
X158671618Y-105028690D01*
X158759716Y-104896842D01*
X158759718Y-104896839D01*
X158871839Y-104784718D01*
X159003689Y-104696619D01*
X159003690Y-104696618D01*
X159150190Y-104635936D01*
X159150191Y-104635936D01*
X159150193Y-104635935D01*
X159305713Y-104605000D01*
X159464287Y-104605000D01*
X159619807Y-104635935D01*
X159619807Y-104635935D01*
G37*
G36*
X167239807Y-104635935D02*
X167239809Y-104635936D01*
X167239810Y-104635936D01*
X167386310Y-104696618D01*
X167386311Y-104696619D01*
X167518161Y-104784718D01*
X167630282Y-104896839D01*
X167630284Y-104896842D01*
X167718382Y-105028690D01*
X167779064Y-105175190D01*
X167810000Y-105330714D01*
X167810000Y-105489286D01*
X167779064Y-105644810D01*
X167718382Y-105791310D01*
X167718381Y-105791311D01*
X167630282Y-105923161D01*
X167518161Y-106035282D01*
X167518158Y-106035284D01*
X167386310Y-106123382D01*
X167239810Y-106184064D01*
X167239809Y-106184064D01*
X167239807Y-106184065D01*
X167084287Y-106215000D01*
X166925713Y-106215000D01*
X166770193Y-106184065D01*
X166770191Y-106184064D01*
X166770190Y-106184064D01*
X166623690Y-106123382D01*
X166491842Y-106035284D01*
X166491839Y-106035282D01*
X166379718Y-105923161D01*
X166291619Y-105791311D01*
X166291618Y-105791310D01*
X166230936Y-105644810D01*
X166200000Y-105489286D01*
X166200000Y-105330714D01*
X166230936Y-105175190D01*
X166291618Y-105028690D01*
X166379716Y-104896842D01*
X166379718Y-104896839D01*
X166491839Y-104784718D01*
X166623689Y-104696619D01*
X166623690Y-104696618D01*
X166770190Y-104635936D01*
X166770191Y-104635936D01*
X166770193Y-104635935D01*
X166925713Y-104605000D01*
X167084287Y-104605000D01*
X167239807Y-104635935D01*
X167239807Y-104635935D01*
G37*
G36*
X187559807Y-104635935D02*
X187559809Y-104635936D01*
X187559810Y-104635936D01*
X187706310Y-104696618D01*
X187706311Y-104696619D01*
X187838161Y-104784718D01*
X187950282Y-104896839D01*
X187950284Y-104896842D01*
X188038382Y-105028690D01*
X188099064Y-105175190D01*
X188130000Y-105330714D01*
X188130000Y-105489286D01*
X188099064Y-105644810D01*
X188038382Y-105791310D01*
X188038381Y-105791311D01*
X187950282Y-105923161D01*
X187838161Y-106035282D01*
X187838158Y-106035284D01*
X187706310Y-106123382D01*
X187559810Y-106184064D01*
X187559809Y-106184064D01*
X187559807Y-106184065D01*
X187404287Y-106215000D01*
X187245713Y-106215000D01*
X187090193Y-106184065D01*
X187090191Y-106184064D01*
X187090190Y-106184064D01*
X186943690Y-106123382D01*
X186811842Y-106035284D01*
X186811839Y-106035282D01*
X186699718Y-105923161D01*
X186611619Y-105791311D01*
X186611618Y-105791310D01*
X186550936Y-105644810D01*
X186520000Y-105489286D01*
X186520000Y-105330714D01*
X186550936Y-105175190D01*
X186611618Y-105028690D01*
X186699716Y-104896842D01*
X186699718Y-104896839D01*
X186811839Y-104784718D01*
X186943689Y-104696619D01*
X186943690Y-104696618D01*
X187090190Y-104635936D01*
X187090191Y-104635936D01*
X187090193Y-104635935D01*
X187245713Y-104605000D01*
X187404287Y-104605000D01*
X187559807Y-104635935D01*
X187559807Y-104635935D01*
G37*
G36*
X185019807Y-104635935D02*
X185019809Y-104635936D01*
X185019810Y-104635936D01*
X185166310Y-104696618D01*
X185166311Y-104696619D01*
X185298161Y-104784718D01*
X185410282Y-104896839D01*
X185410284Y-104896842D01*
X185498382Y-105028690D01*
X185559064Y-105175190D01*
X185590000Y-105330714D01*
X185590000Y-105489286D01*
X185559064Y-105644810D01*
X185498382Y-105791310D01*
X185498381Y-105791311D01*
X185410282Y-105923161D01*
X185298161Y-106035282D01*
X185298158Y-106035284D01*
X185166310Y-106123382D01*
X185019810Y-106184064D01*
X185019809Y-106184064D01*
X185019807Y-106184065D01*
X184864287Y-106215000D01*
X184705713Y-106215000D01*
X184550193Y-106184065D01*
X184550191Y-106184064D01*
X184550190Y-106184064D01*
X184403690Y-106123382D01*
X184271842Y-106035284D01*
X184271839Y-106035282D01*
X184159718Y-105923161D01*
X184071619Y-105791311D01*
X184071618Y-105791310D01*
X184010936Y-105644810D01*
X183980000Y-105489286D01*
X183980000Y-105330714D01*
X184010936Y-105175190D01*
X184071618Y-105028690D01*
X184159716Y-104896842D01*
X184159718Y-104896839D01*
X184271839Y-104784718D01*
X184403689Y-104696619D01*
X184403690Y-104696618D01*
X184550190Y-104635936D01*
X184550191Y-104635936D01*
X184550193Y-104635935D01*
X184705713Y-104605000D01*
X184864287Y-104605000D01*
X185019807Y-104635935D01*
X185019807Y-104635935D01*
G37*
G36*
X179939807Y-104635935D02*
X179939809Y-104635936D01*
X179939810Y-104635936D01*
X180086310Y-104696618D01*
X180086311Y-104696619D01*
X180218161Y-104784718D01*
X180330282Y-104896839D01*
X180330284Y-104896842D01*
X180418382Y-105028690D01*
X180479064Y-105175190D01*
X180510000Y-105330714D01*
X180510000Y-105489286D01*
X180479064Y-105644810D01*
X180418382Y-105791310D01*
X180418381Y-105791311D01*
X180330282Y-105923161D01*
X180218161Y-106035282D01*
X180218158Y-106035284D01*
X180086310Y-106123382D01*
X179939810Y-106184064D01*
X179939809Y-106184064D01*
X179939807Y-106184065D01*
X179784287Y-106215000D01*
X179625713Y-106215000D01*
X179470193Y-106184065D01*
X179470191Y-106184064D01*
X179470190Y-106184064D01*
X179323690Y-106123382D01*
X179191842Y-106035284D01*
X179191839Y-106035282D01*
X179079718Y-105923161D01*
X178991619Y-105791311D01*
X178991618Y-105791310D01*
X178930936Y-105644810D01*
X178900000Y-105489286D01*
X178900000Y-105330714D01*
X178930936Y-105175190D01*
X178991618Y-105028690D01*
X179079716Y-104896842D01*
X179079718Y-104896839D01*
X179191839Y-104784718D01*
X179323689Y-104696619D01*
X179323690Y-104696618D01*
X179470190Y-104635936D01*
X179470191Y-104635936D01*
X179470193Y-104635935D01*
X179625713Y-104605000D01*
X179784287Y-104605000D01*
X179939807Y-104635935D01*
X179939807Y-104635935D01*
G37*
G36*
X177399807Y-104635935D02*
X177399809Y-104635936D01*
X177399810Y-104635936D01*
X177546310Y-104696618D01*
X177546311Y-104696619D01*
X177678161Y-104784718D01*
X177790282Y-104896839D01*
X177790284Y-104896842D01*
X177878382Y-105028690D01*
X177939064Y-105175190D01*
X177970000Y-105330714D01*
X177970000Y-105489286D01*
X177939064Y-105644810D01*
X177878382Y-105791310D01*
X177878381Y-105791311D01*
X177790282Y-105923161D01*
X177678161Y-106035282D01*
X177678158Y-106035284D01*
X177546310Y-106123382D01*
X177399810Y-106184064D01*
X177399809Y-106184064D01*
X177399807Y-106184065D01*
X177244287Y-106215000D01*
X177085713Y-106215000D01*
X176930193Y-106184065D01*
X176930191Y-106184064D01*
X176930190Y-106184064D01*
X176783690Y-106123382D01*
X176651842Y-106035284D01*
X176651839Y-106035282D01*
X176539718Y-105923161D01*
X176451619Y-105791311D01*
X176451618Y-105791310D01*
X176390936Y-105644810D01*
X176360000Y-105489286D01*
X176360000Y-105330714D01*
X176390936Y-105175190D01*
X176451618Y-105028690D01*
X176539716Y-104896842D01*
X176539718Y-104896839D01*
X176651839Y-104784718D01*
X176783689Y-104696619D01*
X176783690Y-104696618D01*
X176930190Y-104635936D01*
X176930191Y-104635936D01*
X176930193Y-104635935D01*
X177085713Y-104605000D01*
X177244287Y-104605000D01*
X177399807Y-104635935D01*
X177399807Y-104635935D01*
G37*
G36*
X172319807Y-104635935D02*
X172319809Y-104635936D01*
X172319810Y-104635936D01*
X172466310Y-104696618D01*
X172466311Y-104696619D01*
X172598161Y-104784718D01*
X172710282Y-104896839D01*
X172710284Y-104896842D01*
X172798382Y-105028690D01*
X172859064Y-105175190D01*
X172890000Y-105330714D01*
X172890000Y-105489286D01*
X172859064Y-105644810D01*
X172798382Y-105791310D01*
X172798381Y-105791311D01*
X172710282Y-105923161D01*
X172598161Y-106035282D01*
X172598158Y-106035284D01*
X172466310Y-106123382D01*
X172319810Y-106184064D01*
X172319809Y-106184064D01*
X172319807Y-106184065D01*
X172164287Y-106215000D01*
X172005713Y-106215000D01*
X171850193Y-106184065D01*
X171850191Y-106184064D01*
X171850190Y-106184064D01*
X171703690Y-106123382D01*
X171571842Y-106035284D01*
X171571839Y-106035282D01*
X171459718Y-105923161D01*
X171371619Y-105791311D01*
X171371618Y-105791310D01*
X171310936Y-105644810D01*
X171280000Y-105489286D01*
X171280000Y-105330714D01*
X171310936Y-105175190D01*
X171371618Y-105028690D01*
X171459716Y-104896842D01*
X171459718Y-104896839D01*
X171571839Y-104784718D01*
X171703689Y-104696619D01*
X171703690Y-104696618D01*
X171850190Y-104635936D01*
X171850191Y-104635936D01*
X171850193Y-104635935D01*
X172005713Y-104605000D01*
X172164287Y-104605000D01*
X172319807Y-104635935D01*
X172319807Y-104635935D01*
G37*
G36*
X164699807Y-104635935D02*
X164699809Y-104635936D01*
X164699810Y-104635936D01*
X164846310Y-104696618D01*
X164846311Y-104696619D01*
X164978161Y-104784718D01*
X165090282Y-104896839D01*
X165090284Y-104896842D01*
X165178382Y-105028690D01*
X165239064Y-105175190D01*
X165270000Y-105330714D01*
X165270000Y-105489286D01*
X165239064Y-105644810D01*
X165178382Y-105791310D01*
X165178381Y-105791311D01*
X165090282Y-105923161D01*
X164978161Y-106035282D01*
X164978158Y-106035284D01*
X164846310Y-106123382D01*
X164699810Y-106184064D01*
X164699809Y-106184064D01*
X164699807Y-106184065D01*
X164544287Y-106215000D01*
X164385713Y-106215000D01*
X164230193Y-106184065D01*
X164230191Y-106184064D01*
X164230190Y-106184064D01*
X164083690Y-106123382D01*
X163951842Y-106035284D01*
X163951839Y-106035282D01*
X163839718Y-105923161D01*
X163751619Y-105791311D01*
X163751618Y-105791310D01*
X163690936Y-105644810D01*
X163660000Y-105489286D01*
X163660000Y-105330714D01*
X163690936Y-105175190D01*
X163751618Y-105028690D01*
X163839716Y-104896842D01*
X163839718Y-104896839D01*
X163951839Y-104784718D01*
X164083689Y-104696619D01*
X164083690Y-104696618D01*
X164230190Y-104635936D01*
X164230191Y-104635936D01*
X164230193Y-104635935D01*
X164385713Y-104605000D01*
X164544287Y-104605000D01*
X164699807Y-104635935D01*
X164699807Y-104635935D01*
G37*
G36*
X169779807Y-104635935D02*
X169779809Y-104635936D01*
X169779810Y-104635936D01*
X169926310Y-104696618D01*
X169926311Y-104696619D01*
X170058161Y-104784718D01*
X170170282Y-104896839D01*
X170170284Y-104896842D01*
X170258382Y-105028690D01*
X170319064Y-105175190D01*
X170350000Y-105330714D01*
X170350000Y-105489286D01*
X170319064Y-105644810D01*
X170258382Y-105791310D01*
X170258381Y-105791311D01*
X170170282Y-105923161D01*
X170058161Y-106035282D01*
X170058158Y-106035284D01*
X169926310Y-106123382D01*
X169779810Y-106184064D01*
X169779809Y-106184064D01*
X169779807Y-106184065D01*
X169624287Y-106215000D01*
X169465713Y-106215000D01*
X169310193Y-106184065D01*
X169310191Y-106184064D01*
X169310190Y-106184064D01*
X169163690Y-106123382D01*
X169031842Y-106035284D01*
X169031839Y-106035282D01*
X168919718Y-105923161D01*
X168831619Y-105791311D01*
X168831618Y-105791310D01*
X168770936Y-105644810D01*
X168740000Y-105489286D01*
X168740000Y-105330714D01*
X168770936Y-105175190D01*
X168831618Y-105028690D01*
X168919716Y-104896842D01*
X168919718Y-104896839D01*
X169031839Y-104784718D01*
X169163689Y-104696619D01*
X169163690Y-104696618D01*
X169310190Y-104635936D01*
X169310191Y-104635936D01*
X169310193Y-104635935D01*
X169465713Y-104605000D01*
X169624287Y-104605000D01*
X169779807Y-104635935D01*
X169779807Y-104635935D01*
G37*
G36*
X182479807Y-104635935D02*
X182479809Y-104635936D01*
X182479810Y-104635936D01*
X182626310Y-104696618D01*
X182626311Y-104696619D01*
X182758161Y-104784718D01*
X182870282Y-104896839D01*
X182870284Y-104896842D01*
X182958382Y-105028690D01*
X183019064Y-105175190D01*
X183050000Y-105330714D01*
X183050000Y-105489286D01*
X183019064Y-105644810D01*
X182958382Y-105791310D01*
X182958381Y-105791311D01*
X182870282Y-105923161D01*
X182758161Y-106035282D01*
X182758158Y-106035284D01*
X182626310Y-106123382D01*
X182479810Y-106184064D01*
X182479809Y-106184064D01*
X182479807Y-106184065D01*
X182324287Y-106215000D01*
X182165713Y-106215000D01*
X182010193Y-106184065D01*
X182010191Y-106184064D01*
X182010190Y-106184064D01*
X181863690Y-106123382D01*
X181731842Y-106035284D01*
X181731839Y-106035282D01*
X181619718Y-105923161D01*
X181531619Y-105791311D01*
X181531618Y-105791310D01*
X181470936Y-105644810D01*
X181440000Y-105489286D01*
X181440000Y-105330714D01*
X181470936Y-105175190D01*
X181531618Y-105028690D01*
X181619716Y-104896842D01*
X181619718Y-104896839D01*
X181731839Y-104784718D01*
X181863689Y-104696619D01*
X181863690Y-104696618D01*
X182010190Y-104635936D01*
X182010191Y-104635936D01*
X182010193Y-104635935D01*
X182165713Y-104605000D01*
X182324287Y-104605000D01*
X182479807Y-104635935D01*
X182479807Y-104635935D01*
G37*
G36*
X190099807Y-103365935D02*
X190099809Y-103365936D01*
X190099810Y-103365936D01*
X190246310Y-103426618D01*
X190246311Y-103426619D01*
X190378161Y-103514718D01*
X190490282Y-103626839D01*
X190490284Y-103626842D01*
X190578382Y-103758690D01*
X190639064Y-103905190D01*
X190670000Y-104060714D01*
X190670000Y-104219286D01*
X190639064Y-104374810D01*
X190578382Y-104521310D01*
X190578381Y-104521311D01*
X190490282Y-104653161D01*
X190378161Y-104765282D01*
X190378158Y-104765284D01*
X190246310Y-104853382D01*
X190099810Y-104914064D01*
X190099809Y-104914064D01*
X190099807Y-104914065D01*
X189944287Y-104945000D01*
X189785713Y-104945000D01*
X189630193Y-104914065D01*
X189630191Y-104914064D01*
X189630190Y-104914064D01*
X189483690Y-104853382D01*
X189351842Y-104765284D01*
X189351839Y-104765282D01*
X189239718Y-104653161D01*
X189151619Y-104521311D01*
X189151618Y-104521310D01*
X189090936Y-104374810D01*
X189060000Y-104219286D01*
X189060000Y-104060714D01*
X189090936Y-103905190D01*
X189151618Y-103758690D01*
X189239716Y-103626842D01*
X189239718Y-103626839D01*
X189351839Y-103514718D01*
X189483689Y-103426619D01*
X189483690Y-103426618D01*
X189630190Y-103365936D01*
X189630191Y-103365936D01*
X189630193Y-103365935D01*
X189785713Y-103335000D01*
X189944287Y-103335000D01*
X190099807Y-103365935D01*
X190099807Y-103365935D01*
G37*
G36*
X136635442Y-101975518D02*
X136701627Y-101982037D01*
X136814853Y-102016384D01*
X136871467Y-102033557D01*
X136988166Y-102095935D01*
X137027991Y-102117222D01*
X137063729Y-102146552D01*
X137165186Y-102229814D01*
X137233767Y-102313382D01*
X137277778Y-102367009D01*
X137287348Y-102384913D01*
X137361443Y-102523533D01*
X137361443Y-102523534D01*
X137412963Y-102693373D01*
X137430359Y-102870000D01*
X137412963Y-103046627D01*
X137395314Y-103104807D01*
X137361443Y-103216467D01*
X137342818Y-103251311D01*
X137277778Y-103372991D01*
X137248448Y-103408729D01*
X137165186Y-103510186D01*
X137075996Y-103583381D01*
X137027991Y-103622778D01*
X137027989Y-103622779D01*
X136871467Y-103706443D01*
X136814853Y-103723616D01*
X136701627Y-103757963D01*
X136635443Y-103764481D01*
X136569260Y-103771000D01*
X136480740Y-103771000D01*
X136414557Y-103764481D01*
X136348373Y-103757963D01*
X136235147Y-103723616D01*
X136178533Y-103706443D01*
X136022011Y-103622779D01*
X136022009Y-103622778D01*
X135974004Y-103583381D01*
X135884814Y-103510186D01*
X135801552Y-103408729D01*
X135772222Y-103372991D01*
X135707182Y-103251311D01*
X135688557Y-103216467D01*
X135654686Y-103104807D01*
X135637037Y-103046627D01*
X135619641Y-102870000D01*
X135637037Y-102693373D01*
X135688557Y-102523534D01*
X135688557Y-102523533D01*
X135762652Y-102384913D01*
X135772222Y-102367009D01*
X135816233Y-102313382D01*
X135884814Y-102229814D01*
X135986271Y-102146552D01*
X136022009Y-102117222D01*
X136061834Y-102095935D01*
X136178533Y-102033557D01*
X136235147Y-102016384D01*
X136348373Y-101982037D01*
X136414558Y-101975518D01*
X136480740Y-101969000D01*
X136569260Y-101969000D01*
X136635442Y-101975518D01*
X136635442Y-101975518D01*
G37*
G36*
X151635442Y-101975518D02*
X151701627Y-101982037D01*
X151814853Y-102016384D01*
X151871467Y-102033557D01*
X151988166Y-102095935D01*
X152027991Y-102117222D01*
X152063729Y-102146552D01*
X152165186Y-102229814D01*
X152233767Y-102313382D01*
X152277778Y-102367009D01*
X152287348Y-102384913D01*
X152361443Y-102523533D01*
X152361443Y-102523534D01*
X152412963Y-102693373D01*
X152430359Y-102870000D01*
X152412963Y-103046627D01*
X152395314Y-103104807D01*
X152361443Y-103216467D01*
X152342818Y-103251311D01*
X152277778Y-103372991D01*
X152248448Y-103408729D01*
X152165186Y-103510186D01*
X152075996Y-103583381D01*
X152027991Y-103622778D01*
X152027989Y-103622779D01*
X151871467Y-103706443D01*
X151814853Y-103723616D01*
X151701627Y-103757963D01*
X151635443Y-103764481D01*
X151569260Y-103771000D01*
X151480740Y-103771000D01*
X151414557Y-103764481D01*
X151348373Y-103757963D01*
X151235147Y-103723616D01*
X151178533Y-103706443D01*
X151022011Y-103622779D01*
X151022009Y-103622778D01*
X150974004Y-103583381D01*
X150884814Y-103510186D01*
X150801552Y-103408729D01*
X150772222Y-103372991D01*
X150707182Y-103251311D01*
X150688557Y-103216467D01*
X150654686Y-103104807D01*
X150637037Y-103046627D01*
X150619641Y-102870000D01*
X150637037Y-102693373D01*
X150688557Y-102523534D01*
X150688557Y-102523533D01*
X150762652Y-102384913D01*
X150772222Y-102367009D01*
X150816233Y-102313382D01*
X150884814Y-102229814D01*
X150986271Y-102146552D01*
X151022009Y-102117222D01*
X151061834Y-102095935D01*
X151178533Y-102033557D01*
X151235147Y-102016384D01*
X151348373Y-101982037D01*
X151414558Y-101975518D01*
X151480740Y-101969000D01*
X151569260Y-101969000D01*
X151635442Y-101975518D01*
X151635442Y-101975518D01*
G37*
G36*
X195055442Y-101975518D02*
X195121627Y-101982037D01*
X195234853Y-102016384D01*
X195291467Y-102033557D01*
X195408166Y-102095935D01*
X195447991Y-102117222D01*
X195483729Y-102146552D01*
X195585186Y-102229814D01*
X195653767Y-102313382D01*
X195697778Y-102367009D01*
X195707348Y-102384913D01*
X195781443Y-102523533D01*
X195781443Y-102523534D01*
X195832963Y-102693373D01*
X195850359Y-102870000D01*
X195832963Y-103046627D01*
X195815314Y-103104807D01*
X195781443Y-103216467D01*
X195762818Y-103251311D01*
X195697778Y-103372991D01*
X195668448Y-103408729D01*
X195585186Y-103510186D01*
X195495996Y-103583381D01*
X195447991Y-103622778D01*
X195447989Y-103622779D01*
X195291467Y-103706443D01*
X195234853Y-103723616D01*
X195121627Y-103757963D01*
X195055443Y-103764481D01*
X194989260Y-103771000D01*
X194900740Y-103771000D01*
X194834557Y-103764481D01*
X194768373Y-103757963D01*
X194655147Y-103723616D01*
X194598533Y-103706443D01*
X194442011Y-103622779D01*
X194442009Y-103622778D01*
X194394004Y-103583381D01*
X194304814Y-103510186D01*
X194221552Y-103408729D01*
X194192222Y-103372991D01*
X194127182Y-103251311D01*
X194108557Y-103216467D01*
X194074686Y-103104807D01*
X194057037Y-103046627D01*
X194039641Y-102870000D01*
X194057037Y-102693373D01*
X194108557Y-102523534D01*
X194108557Y-102523533D01*
X194182652Y-102384913D01*
X194192222Y-102367009D01*
X194236233Y-102313382D01*
X194304814Y-102229814D01*
X194406271Y-102146552D01*
X194442009Y-102117222D01*
X194481834Y-102095935D01*
X194598533Y-102033557D01*
X194655147Y-102016384D01*
X194768373Y-101982037D01*
X194834558Y-101975518D01*
X194900740Y-101969000D01*
X194989260Y-101969000D01*
X195055442Y-101975518D01*
X195055442Y-101975518D01*
G37*
G36*
X159619807Y-102095935D02*
X159619809Y-102095936D01*
X159619810Y-102095936D01*
X159766310Y-102156618D01*
X159875857Y-102229815D01*
X159898161Y-102244718D01*
X160010282Y-102356839D01*
X160010284Y-102356842D01*
X160098382Y-102488690D01*
X160159064Y-102635190D01*
X160159065Y-102635193D01*
X160190000Y-102790713D01*
X160190000Y-102949287D01*
X160170638Y-103046627D01*
X160159064Y-103104810D01*
X160098382Y-103251310D01*
X160098381Y-103251311D01*
X160010282Y-103383161D01*
X159898161Y-103495282D01*
X159898158Y-103495284D01*
X159766310Y-103583382D01*
X159619810Y-103644064D01*
X159619809Y-103644064D01*
X159619807Y-103644065D01*
X159464287Y-103675000D01*
X159305713Y-103675000D01*
X159150193Y-103644065D01*
X159150191Y-103644064D01*
X159150190Y-103644064D01*
X159003690Y-103583382D01*
X158871842Y-103495284D01*
X158871839Y-103495282D01*
X158759718Y-103383161D01*
X158671619Y-103251311D01*
X158671618Y-103251310D01*
X158610936Y-103104810D01*
X158599363Y-103046627D01*
X158580000Y-102949287D01*
X158580000Y-102790713D01*
X158610935Y-102635193D01*
X158610936Y-102635190D01*
X158671618Y-102488690D01*
X158759716Y-102356842D01*
X158759718Y-102356839D01*
X158871839Y-102244718D01*
X158894143Y-102229815D01*
X159003690Y-102156618D01*
X159150190Y-102095936D01*
X159150191Y-102095936D01*
X159150193Y-102095935D01*
X159305713Y-102065000D01*
X159464287Y-102065000D01*
X159619807Y-102095935D01*
X159619807Y-102095935D01*
G37*
G36*
X178669807Y-102095935D02*
X178669809Y-102095936D01*
X178669810Y-102095936D01*
X178816310Y-102156618D01*
X178925857Y-102229815D01*
X178948161Y-102244718D01*
X179060282Y-102356839D01*
X179060284Y-102356842D01*
X179148382Y-102488690D01*
X179209064Y-102635190D01*
X179209065Y-102635193D01*
X179240000Y-102790713D01*
X179240000Y-102949287D01*
X179220638Y-103046627D01*
X179209064Y-103104810D01*
X179148382Y-103251310D01*
X179148381Y-103251311D01*
X179060282Y-103383161D01*
X178948161Y-103495282D01*
X178948158Y-103495284D01*
X178816310Y-103583382D01*
X178669810Y-103644064D01*
X178669809Y-103644064D01*
X178669807Y-103644065D01*
X178514287Y-103675000D01*
X178355713Y-103675000D01*
X178200193Y-103644065D01*
X178200191Y-103644064D01*
X178200190Y-103644064D01*
X178053690Y-103583382D01*
X177921842Y-103495284D01*
X177921839Y-103495282D01*
X177809718Y-103383161D01*
X177721619Y-103251311D01*
X177721618Y-103251310D01*
X177660936Y-103104810D01*
X177649363Y-103046627D01*
X177630000Y-102949287D01*
X177630000Y-102790713D01*
X177660935Y-102635193D01*
X177660936Y-102635190D01*
X177721618Y-102488690D01*
X177809716Y-102356842D01*
X177809718Y-102356839D01*
X177921839Y-102244718D01*
X177944143Y-102229815D01*
X178053690Y-102156618D01*
X178200190Y-102095936D01*
X178200191Y-102095936D01*
X178200193Y-102095935D01*
X178355713Y-102065000D01*
X178514287Y-102065000D01*
X178669807Y-102095935D01*
X178669807Y-102095935D01*
G37*
G36*
X176129807Y-102095935D02*
X176129809Y-102095936D01*
X176129810Y-102095936D01*
X176276310Y-102156618D01*
X176385857Y-102229815D01*
X176408161Y-102244718D01*
X176520282Y-102356839D01*
X176520284Y-102356842D01*
X176608382Y-102488690D01*
X176669064Y-102635190D01*
X176669065Y-102635193D01*
X176700000Y-102790713D01*
X176700000Y-102949287D01*
X176680638Y-103046627D01*
X176669064Y-103104810D01*
X176608382Y-103251310D01*
X176608381Y-103251311D01*
X176520282Y-103383161D01*
X176408161Y-103495282D01*
X176408158Y-103495284D01*
X176276310Y-103583382D01*
X176129810Y-103644064D01*
X176129809Y-103644064D01*
X176129807Y-103644065D01*
X175974287Y-103675000D01*
X175815713Y-103675000D01*
X175660193Y-103644065D01*
X175660191Y-103644064D01*
X175660190Y-103644064D01*
X175513690Y-103583382D01*
X175381842Y-103495284D01*
X175381839Y-103495282D01*
X175269718Y-103383161D01*
X175181619Y-103251311D01*
X175181618Y-103251310D01*
X175120936Y-103104810D01*
X175109363Y-103046627D01*
X175090000Y-102949287D01*
X175090000Y-102790713D01*
X175120935Y-102635193D01*
X175120936Y-102635190D01*
X175181618Y-102488690D01*
X175269716Y-102356842D01*
X175269718Y-102356839D01*
X175381839Y-102244718D01*
X175404143Y-102229815D01*
X175513690Y-102156618D01*
X175660190Y-102095936D01*
X175660191Y-102095936D01*
X175660193Y-102095935D01*
X175815713Y-102065000D01*
X175974287Y-102065000D01*
X176129807Y-102095935D01*
X176129807Y-102095935D01*
G37*
G36*
X190099807Y-100825935D02*
X190099809Y-100825936D01*
X190099810Y-100825936D01*
X190246310Y-100886618D01*
X190246311Y-100886619D01*
X190378161Y-100974718D01*
X190490282Y-101086839D01*
X190490284Y-101086842D01*
X190578382Y-101218690D01*
X190639064Y-101365190D01*
X190670000Y-101520714D01*
X190670000Y-101679286D01*
X190639064Y-101834810D01*
X190578382Y-101981310D01*
X190522462Y-102065000D01*
X190490282Y-102113161D01*
X190378161Y-102225282D01*
X190378158Y-102225284D01*
X190246310Y-102313382D01*
X190099810Y-102374064D01*
X190099809Y-102374064D01*
X190099807Y-102374065D01*
X189944287Y-102405000D01*
X189785713Y-102405000D01*
X189630193Y-102374065D01*
X189630191Y-102374064D01*
X189630190Y-102374064D01*
X189483690Y-102313382D01*
X189351842Y-102225284D01*
X189351839Y-102225282D01*
X189239718Y-102113161D01*
X189207538Y-102065000D01*
X189151618Y-101981310D01*
X189090936Y-101834810D01*
X189060000Y-101679286D01*
X189060000Y-101520714D01*
X189090936Y-101365190D01*
X189151618Y-101218690D01*
X189239716Y-101086842D01*
X189239718Y-101086839D01*
X189351839Y-100974718D01*
X189483689Y-100886619D01*
X189483690Y-100886618D01*
X189630190Y-100825936D01*
X189630191Y-100825936D01*
X189630193Y-100825935D01*
X189785713Y-100795000D01*
X189944287Y-100795000D01*
X190099807Y-100825935D01*
X190099807Y-100825935D01*
G37*
G36*
X136635443Y-99435519D02*
X136701627Y-99442037D01*
X136814853Y-99476384D01*
X136871467Y-99493557D01*
X136988166Y-99555935D01*
X137027991Y-99577222D01*
X137063729Y-99606552D01*
X137165186Y-99689814D01*
X137233767Y-99773382D01*
X137277778Y-99827009D01*
X137287348Y-99844913D01*
X137361443Y-99983533D01*
X137361443Y-99983534D01*
X137412963Y-100153373D01*
X137430359Y-100330000D01*
X137412963Y-100506627D01*
X137395314Y-100564807D01*
X137361443Y-100676467D01*
X137342818Y-100711311D01*
X137277778Y-100832991D01*
X137248448Y-100868729D01*
X137165186Y-100970186D01*
X137075996Y-101043381D01*
X137027991Y-101082778D01*
X137027989Y-101082779D01*
X136871467Y-101166443D01*
X136814853Y-101183616D01*
X136701627Y-101217963D01*
X136635443Y-101224481D01*
X136569260Y-101231000D01*
X136480740Y-101231000D01*
X136414558Y-101224482D01*
X136348373Y-101217963D01*
X136235147Y-101183616D01*
X136178533Y-101166443D01*
X136022011Y-101082779D01*
X136022009Y-101082778D01*
X135974004Y-101043381D01*
X135884814Y-100970186D01*
X135801552Y-100868729D01*
X135772222Y-100832991D01*
X135707182Y-100711311D01*
X135688557Y-100676467D01*
X135654686Y-100564807D01*
X135637037Y-100506627D01*
X135619641Y-100330000D01*
X135637037Y-100153373D01*
X135688557Y-99983534D01*
X135688557Y-99983533D01*
X135762652Y-99844913D01*
X135772222Y-99827009D01*
X135816233Y-99773382D01*
X135884814Y-99689814D01*
X135986271Y-99606552D01*
X136022009Y-99577222D01*
X136061834Y-99555935D01*
X136178533Y-99493557D01*
X136235147Y-99476384D01*
X136348373Y-99442037D01*
X136414558Y-99435518D01*
X136480740Y-99429000D01*
X136569260Y-99429000D01*
X136635443Y-99435519D01*
X136635443Y-99435519D01*
G37*
G36*
X195055443Y-99435519D02*
X195121627Y-99442037D01*
X195234853Y-99476384D01*
X195291467Y-99493557D01*
X195408166Y-99555935D01*
X195447991Y-99577222D01*
X195483729Y-99606552D01*
X195585186Y-99689814D01*
X195653767Y-99773382D01*
X195697778Y-99827009D01*
X195707348Y-99844913D01*
X195781443Y-99983533D01*
X195781443Y-99983534D01*
X195832963Y-100153373D01*
X195850359Y-100330000D01*
X195832963Y-100506627D01*
X195815314Y-100564807D01*
X195781443Y-100676467D01*
X195762818Y-100711311D01*
X195697778Y-100832991D01*
X195668448Y-100868729D01*
X195585186Y-100970186D01*
X195495996Y-101043381D01*
X195447991Y-101082778D01*
X195447989Y-101082779D01*
X195291467Y-101166443D01*
X195234853Y-101183616D01*
X195121627Y-101217963D01*
X195055443Y-101224481D01*
X194989260Y-101231000D01*
X194900740Y-101231000D01*
X194834558Y-101224482D01*
X194768373Y-101217963D01*
X194655147Y-101183616D01*
X194598533Y-101166443D01*
X194442011Y-101082779D01*
X194442009Y-101082778D01*
X194394004Y-101043381D01*
X194304814Y-100970186D01*
X194221552Y-100868729D01*
X194192222Y-100832991D01*
X194127182Y-100711311D01*
X194108557Y-100676467D01*
X194074686Y-100564807D01*
X194057037Y-100506627D01*
X194039641Y-100330000D01*
X194057037Y-100153373D01*
X194108557Y-99983534D01*
X194108557Y-99983533D01*
X194182652Y-99844913D01*
X194192222Y-99827009D01*
X194236233Y-99773382D01*
X194304814Y-99689814D01*
X194406271Y-99606552D01*
X194442009Y-99577222D01*
X194481834Y-99555935D01*
X194598533Y-99493557D01*
X194655147Y-99476384D01*
X194768373Y-99442037D01*
X194834558Y-99435518D01*
X194900740Y-99429000D01*
X194989260Y-99429000D01*
X195055443Y-99435519D01*
X195055443Y-99435519D01*
G37*
G36*
X151635443Y-99435519D02*
X151701627Y-99442037D01*
X151814853Y-99476384D01*
X151871467Y-99493557D01*
X151988166Y-99555935D01*
X152027991Y-99577222D01*
X152063729Y-99606552D01*
X152165186Y-99689814D01*
X152233767Y-99773382D01*
X152277778Y-99827009D01*
X152287348Y-99844913D01*
X152361443Y-99983533D01*
X152361443Y-99983534D01*
X152412963Y-100153373D01*
X152430359Y-100330000D01*
X152412963Y-100506627D01*
X152395314Y-100564807D01*
X152361443Y-100676467D01*
X152342818Y-100711311D01*
X152277778Y-100832991D01*
X152248448Y-100868729D01*
X152165186Y-100970186D01*
X152075996Y-101043381D01*
X152027991Y-101082778D01*
X152027989Y-101082779D01*
X151871467Y-101166443D01*
X151814853Y-101183616D01*
X151701627Y-101217963D01*
X151635443Y-101224481D01*
X151569260Y-101231000D01*
X151480740Y-101231000D01*
X151414558Y-101224482D01*
X151348373Y-101217963D01*
X151235147Y-101183616D01*
X151178533Y-101166443D01*
X151022011Y-101082779D01*
X151022009Y-101082778D01*
X150974004Y-101043381D01*
X150884814Y-100970186D01*
X150801552Y-100868729D01*
X150772222Y-100832991D01*
X150707182Y-100711311D01*
X150688557Y-100676467D01*
X150654686Y-100564807D01*
X150637037Y-100506627D01*
X150619641Y-100330000D01*
X150637037Y-100153373D01*
X150688557Y-99983534D01*
X150688557Y-99983533D01*
X150762652Y-99844913D01*
X150772222Y-99827009D01*
X150816233Y-99773382D01*
X150884814Y-99689814D01*
X150986271Y-99606552D01*
X151022009Y-99577222D01*
X151061834Y-99555935D01*
X151178533Y-99493557D01*
X151235147Y-99476384D01*
X151348373Y-99442037D01*
X151414558Y-99435518D01*
X151480740Y-99429000D01*
X151569260Y-99429000D01*
X151635443Y-99435519D01*
X151635443Y-99435519D01*
G37*
G36*
X159619807Y-99555935D02*
X159619809Y-99555936D01*
X159619810Y-99555936D01*
X159766310Y-99616618D01*
X159875857Y-99689815D01*
X159898161Y-99704718D01*
X160010282Y-99816839D01*
X160010284Y-99816842D01*
X160098382Y-99948690D01*
X160159064Y-100095190D01*
X160159065Y-100095193D01*
X160190000Y-100250713D01*
X160190000Y-100409287D01*
X160170638Y-100506627D01*
X160159064Y-100564810D01*
X160098382Y-100711310D01*
X160098381Y-100711311D01*
X160010282Y-100843161D01*
X159898161Y-100955282D01*
X159898158Y-100955284D01*
X159766310Y-101043382D01*
X159619810Y-101104064D01*
X159619809Y-101104064D01*
X159619807Y-101104065D01*
X159464287Y-101135000D01*
X159305713Y-101135000D01*
X159150193Y-101104065D01*
X159150191Y-101104064D01*
X159150190Y-101104064D01*
X159003690Y-101043382D01*
X158871842Y-100955284D01*
X158871839Y-100955282D01*
X158759718Y-100843161D01*
X158671619Y-100711311D01*
X158671618Y-100711310D01*
X158610936Y-100564810D01*
X158599363Y-100506627D01*
X158580000Y-100409287D01*
X158580000Y-100250713D01*
X158610935Y-100095193D01*
X158610936Y-100095190D01*
X158671618Y-99948690D01*
X158759716Y-99816842D01*
X158759718Y-99816839D01*
X158871839Y-99704718D01*
X158894143Y-99689815D01*
X159003690Y-99616618D01*
X159150190Y-99555936D01*
X159150191Y-99555936D01*
X159150193Y-99555935D01*
X159305713Y-99525000D01*
X159464287Y-99525000D01*
X159619807Y-99555935D01*
X159619807Y-99555935D01*
G37*
G36*
X190099807Y-98285935D02*
X190099809Y-98285936D01*
X190099810Y-98285936D01*
X190246310Y-98346618D01*
X190246311Y-98346619D01*
X190378161Y-98434718D01*
X190490282Y-98546839D01*
X190490284Y-98546842D01*
X190578382Y-98678690D01*
X190639064Y-98825190D01*
X190670000Y-98980714D01*
X190670000Y-99139286D01*
X190639064Y-99294810D01*
X190578382Y-99441310D01*
X190522462Y-99525000D01*
X190490282Y-99573161D01*
X190378161Y-99685282D01*
X190378158Y-99685284D01*
X190246310Y-99773382D01*
X190099810Y-99834064D01*
X190099809Y-99834064D01*
X190099807Y-99834065D01*
X189944287Y-99865000D01*
X189785713Y-99865000D01*
X189630193Y-99834065D01*
X189630191Y-99834064D01*
X189630190Y-99834064D01*
X189483690Y-99773382D01*
X189351842Y-99685284D01*
X189351839Y-99685282D01*
X189239718Y-99573161D01*
X189207538Y-99525000D01*
X189151618Y-99441310D01*
X189090936Y-99294810D01*
X189060000Y-99139286D01*
X189060000Y-98980714D01*
X189090936Y-98825190D01*
X189151618Y-98678690D01*
X189239716Y-98546842D01*
X189239718Y-98546839D01*
X189351839Y-98434718D01*
X189483689Y-98346619D01*
X189483690Y-98346618D01*
X189630190Y-98285936D01*
X189630191Y-98285936D01*
X189630193Y-98285935D01*
X189785713Y-98255000D01*
X189944287Y-98255000D01*
X190099807Y-98285935D01*
X190099807Y-98285935D01*
G37*
G36*
X195055442Y-96895518D02*
X195121627Y-96902037D01*
X195234853Y-96936384D01*
X195291467Y-96953557D01*
X195408166Y-97015935D01*
X195447991Y-97037222D01*
X195483729Y-97066552D01*
X195585186Y-97149814D01*
X195653767Y-97233382D01*
X195697778Y-97287009D01*
X195707348Y-97304913D01*
X195781443Y-97443533D01*
X195781443Y-97443534D01*
X195832963Y-97613373D01*
X195850359Y-97790000D01*
X195832963Y-97966627D01*
X195815314Y-98024807D01*
X195781443Y-98136467D01*
X195762818Y-98171311D01*
X195697778Y-98292991D01*
X195668448Y-98328729D01*
X195585186Y-98430186D01*
X195495996Y-98503381D01*
X195447991Y-98542778D01*
X195447989Y-98542779D01*
X195291467Y-98626443D01*
X195234853Y-98643616D01*
X195121627Y-98677963D01*
X195055442Y-98684482D01*
X194989260Y-98691000D01*
X194900740Y-98691000D01*
X194834558Y-98684482D01*
X194768373Y-98677963D01*
X194655147Y-98643616D01*
X194598533Y-98626443D01*
X194442011Y-98542779D01*
X194442009Y-98542778D01*
X194394004Y-98503381D01*
X194304814Y-98430186D01*
X194221552Y-98328729D01*
X194192222Y-98292991D01*
X194127182Y-98171311D01*
X194108557Y-98136467D01*
X194074686Y-98024807D01*
X194057037Y-97966627D01*
X194039641Y-97790000D01*
X194057037Y-97613373D01*
X194108557Y-97443534D01*
X194108557Y-97443533D01*
X194182652Y-97304913D01*
X194192222Y-97287009D01*
X194236233Y-97233382D01*
X194304814Y-97149814D01*
X194406271Y-97066552D01*
X194442009Y-97037222D01*
X194481834Y-97015935D01*
X194598533Y-96953557D01*
X194655147Y-96936384D01*
X194768373Y-96902037D01*
X194834558Y-96895518D01*
X194900740Y-96889000D01*
X194989260Y-96889000D01*
X195055442Y-96895518D01*
X195055442Y-96895518D01*
G37*
G36*
X151635442Y-96895518D02*
X151701627Y-96902037D01*
X151814853Y-96936384D01*
X151871467Y-96953557D01*
X151988166Y-97015935D01*
X152027991Y-97037222D01*
X152063729Y-97066552D01*
X152165186Y-97149814D01*
X152233767Y-97233382D01*
X152277778Y-97287009D01*
X152287348Y-97304913D01*
X152361443Y-97443533D01*
X152361443Y-97443534D01*
X152412963Y-97613373D01*
X152430359Y-97790000D01*
X152412963Y-97966627D01*
X152395314Y-98024807D01*
X152361443Y-98136467D01*
X152342818Y-98171311D01*
X152277778Y-98292991D01*
X152248448Y-98328729D01*
X152165186Y-98430186D01*
X152075996Y-98503381D01*
X152027991Y-98542778D01*
X152027989Y-98542779D01*
X151871467Y-98626443D01*
X151814853Y-98643616D01*
X151701627Y-98677963D01*
X151635442Y-98684482D01*
X151569260Y-98691000D01*
X151480740Y-98691000D01*
X151414558Y-98684482D01*
X151348373Y-98677963D01*
X151235147Y-98643616D01*
X151178533Y-98626443D01*
X151022011Y-98542779D01*
X151022009Y-98542778D01*
X150974004Y-98503381D01*
X150884814Y-98430186D01*
X150801552Y-98328729D01*
X150772222Y-98292991D01*
X150707182Y-98171311D01*
X150688557Y-98136467D01*
X150654686Y-98024807D01*
X150637037Y-97966627D01*
X150619641Y-97790000D01*
X150637037Y-97613373D01*
X150688557Y-97443534D01*
X150688557Y-97443533D01*
X150762652Y-97304913D01*
X150772222Y-97287009D01*
X150816233Y-97233382D01*
X150884814Y-97149814D01*
X150986271Y-97066552D01*
X151022009Y-97037222D01*
X151061834Y-97015935D01*
X151178533Y-96953557D01*
X151235147Y-96936384D01*
X151348373Y-96902037D01*
X151414558Y-96895518D01*
X151480740Y-96889000D01*
X151569260Y-96889000D01*
X151635442Y-96895518D01*
X151635442Y-96895518D01*
G37*
G36*
X136635442Y-96895518D02*
X136701627Y-96902037D01*
X136814853Y-96936384D01*
X136871467Y-96953557D01*
X136988166Y-97015935D01*
X137027991Y-97037222D01*
X137063729Y-97066552D01*
X137165186Y-97149814D01*
X137233767Y-97233382D01*
X137277778Y-97287009D01*
X137287348Y-97304913D01*
X137361443Y-97443533D01*
X137361443Y-97443534D01*
X137412963Y-97613373D01*
X137430359Y-97790000D01*
X137412963Y-97966627D01*
X137395314Y-98024807D01*
X137361443Y-98136467D01*
X137342818Y-98171311D01*
X137277778Y-98292991D01*
X137248448Y-98328729D01*
X137165186Y-98430186D01*
X137075996Y-98503381D01*
X137027991Y-98542778D01*
X137027989Y-98542779D01*
X136871467Y-98626443D01*
X136814853Y-98643616D01*
X136701627Y-98677963D01*
X136635442Y-98684482D01*
X136569260Y-98691000D01*
X136480740Y-98691000D01*
X136414558Y-98684482D01*
X136348373Y-98677963D01*
X136235147Y-98643616D01*
X136178533Y-98626443D01*
X136022011Y-98542779D01*
X136022009Y-98542778D01*
X135974004Y-98503381D01*
X135884814Y-98430186D01*
X135801552Y-98328729D01*
X135772222Y-98292991D01*
X135707182Y-98171311D01*
X135688557Y-98136467D01*
X135654686Y-98024807D01*
X135637037Y-97966627D01*
X135619641Y-97790000D01*
X135637037Y-97613373D01*
X135688557Y-97443534D01*
X135688557Y-97443533D01*
X135762652Y-97304913D01*
X135772222Y-97287009D01*
X135816233Y-97233382D01*
X135884814Y-97149814D01*
X135986271Y-97066552D01*
X136022009Y-97037222D01*
X136061834Y-97015935D01*
X136178533Y-96953557D01*
X136235147Y-96936384D01*
X136348373Y-96902037D01*
X136414558Y-96895518D01*
X136480740Y-96889000D01*
X136569260Y-96889000D01*
X136635442Y-96895518D01*
X136635442Y-96895518D01*
G37*
G36*
X159619807Y-97015935D02*
X159619809Y-97015936D01*
X159619810Y-97015936D01*
X159766310Y-97076618D01*
X159875857Y-97149815D01*
X159898161Y-97164718D01*
X160010282Y-97276839D01*
X160010284Y-97276842D01*
X160098382Y-97408690D01*
X160159064Y-97555190D01*
X160159065Y-97555193D01*
X160190000Y-97710713D01*
X160190000Y-97869287D01*
X160170638Y-97966627D01*
X160159064Y-98024810D01*
X160098382Y-98171310D01*
X160098381Y-98171311D01*
X160010282Y-98303161D01*
X159898161Y-98415282D01*
X159898158Y-98415284D01*
X159766310Y-98503382D01*
X159619810Y-98564064D01*
X159619809Y-98564064D01*
X159619807Y-98564065D01*
X159464287Y-98595000D01*
X159305713Y-98595000D01*
X159150193Y-98564065D01*
X159150191Y-98564064D01*
X159150190Y-98564064D01*
X159003690Y-98503382D01*
X158871842Y-98415284D01*
X158871839Y-98415282D01*
X158759718Y-98303161D01*
X158671619Y-98171311D01*
X158671618Y-98171310D01*
X158610936Y-98024810D01*
X158599363Y-97966627D01*
X158580000Y-97869287D01*
X158580000Y-97710713D01*
X158610935Y-97555193D01*
X158610936Y-97555190D01*
X158671618Y-97408690D01*
X158759716Y-97276842D01*
X158759718Y-97276839D01*
X158871839Y-97164718D01*
X158894143Y-97149815D01*
X159003690Y-97076618D01*
X159150190Y-97015936D01*
X159150191Y-97015936D01*
X159150193Y-97015935D01*
X159305713Y-96985000D01*
X159464287Y-96985000D01*
X159619807Y-97015935D01*
X159619807Y-97015935D01*
G37*
G36*
X190099807Y-95745935D02*
X190099809Y-95745936D01*
X190099810Y-95745936D01*
X190246310Y-95806618D01*
X190246311Y-95806619D01*
X190378161Y-95894718D01*
X190490282Y-96006839D01*
X190490284Y-96006842D01*
X190578382Y-96138690D01*
X190639064Y-96285190D01*
X190670000Y-96440714D01*
X190670000Y-96599286D01*
X190639064Y-96754810D01*
X190578382Y-96901310D01*
X190522462Y-96985000D01*
X190490282Y-97033161D01*
X190378161Y-97145282D01*
X190378158Y-97145284D01*
X190246310Y-97233382D01*
X190099810Y-97294064D01*
X190099809Y-97294064D01*
X190099807Y-97294065D01*
X189944287Y-97325000D01*
X189785713Y-97325000D01*
X189630193Y-97294065D01*
X189630191Y-97294064D01*
X189630190Y-97294064D01*
X189483690Y-97233382D01*
X189351842Y-97145284D01*
X189351839Y-97145282D01*
X189239718Y-97033161D01*
X189207538Y-96985000D01*
X189151618Y-96901310D01*
X189090936Y-96754810D01*
X189060000Y-96599286D01*
X189060000Y-96440714D01*
X189090936Y-96285190D01*
X189151618Y-96138690D01*
X189239716Y-96006842D01*
X189239718Y-96006839D01*
X189351839Y-95894718D01*
X189483689Y-95806619D01*
X189483690Y-95806618D01*
X189630190Y-95745936D01*
X189630191Y-95745936D01*
X189630193Y-95745935D01*
X189785713Y-95715000D01*
X189944287Y-95715000D01*
X190099807Y-95745935D01*
X190099807Y-95745935D01*
G37*
G36*
X195055442Y-94355518D02*
X195121627Y-94362037D01*
X195234853Y-94396384D01*
X195291467Y-94413557D01*
X195430087Y-94487652D01*
X195447991Y-94497222D01*
X195483729Y-94526552D01*
X195585186Y-94609814D01*
X195653767Y-94693382D01*
X195697778Y-94747009D01*
X195707348Y-94764913D01*
X195781443Y-94903533D01*
X195781443Y-94903534D01*
X195832963Y-95073373D01*
X195850359Y-95250000D01*
X195832963Y-95426627D01*
X195798616Y-95539853D01*
X195781443Y-95596467D01*
X195718085Y-95715000D01*
X195697778Y-95752991D01*
X195668448Y-95788729D01*
X195585186Y-95890186D01*
X195483729Y-95973448D01*
X195447991Y-96002778D01*
X195447989Y-96002779D01*
X195291467Y-96086443D01*
X195234853Y-96103616D01*
X195121627Y-96137963D01*
X195055443Y-96144481D01*
X194989260Y-96151000D01*
X194900740Y-96151000D01*
X194834558Y-96144482D01*
X194768373Y-96137963D01*
X194655147Y-96103616D01*
X194598533Y-96086443D01*
X194442011Y-96002779D01*
X194442009Y-96002778D01*
X194406271Y-95973448D01*
X194304814Y-95890186D01*
X194221552Y-95788729D01*
X194192222Y-95752991D01*
X194171915Y-95715000D01*
X194108557Y-95596467D01*
X194091384Y-95539853D01*
X194057037Y-95426627D01*
X194039641Y-95250000D01*
X194057037Y-95073373D01*
X194108557Y-94903534D01*
X194108557Y-94903533D01*
X194182652Y-94764913D01*
X194192222Y-94747009D01*
X194236233Y-94693382D01*
X194304814Y-94609814D01*
X194406271Y-94526552D01*
X194442009Y-94497222D01*
X194459913Y-94487652D01*
X194598533Y-94413557D01*
X194655147Y-94396384D01*
X194768373Y-94362037D01*
X194834557Y-94355519D01*
X194900740Y-94349000D01*
X194989260Y-94349000D01*
X195055442Y-94355518D01*
X195055442Y-94355518D01*
G37*
G36*
X136635442Y-94355518D02*
X136701627Y-94362037D01*
X136814853Y-94396384D01*
X136871467Y-94413557D01*
X137010087Y-94487652D01*
X137027991Y-94497222D01*
X137063729Y-94526552D01*
X137165186Y-94609814D01*
X137233767Y-94693382D01*
X137277778Y-94747009D01*
X137287348Y-94764913D01*
X137361443Y-94903533D01*
X137361443Y-94903534D01*
X137412963Y-95073373D01*
X137430359Y-95250000D01*
X137412963Y-95426627D01*
X137378616Y-95539853D01*
X137361443Y-95596467D01*
X137298085Y-95715000D01*
X137277778Y-95752991D01*
X137248448Y-95788729D01*
X137165186Y-95890186D01*
X137063729Y-95973448D01*
X137027991Y-96002778D01*
X137027989Y-96002779D01*
X136871467Y-96086443D01*
X136814853Y-96103616D01*
X136701627Y-96137963D01*
X136635443Y-96144481D01*
X136569260Y-96151000D01*
X136480740Y-96151000D01*
X136414558Y-96144482D01*
X136348373Y-96137963D01*
X136235147Y-96103616D01*
X136178533Y-96086443D01*
X136022011Y-96002779D01*
X136022009Y-96002778D01*
X135986271Y-95973448D01*
X135884814Y-95890186D01*
X135801552Y-95788729D01*
X135772222Y-95752991D01*
X135751915Y-95715000D01*
X135688557Y-95596467D01*
X135671384Y-95539853D01*
X135637037Y-95426627D01*
X135619641Y-95250000D01*
X135637037Y-95073373D01*
X135688557Y-94903534D01*
X135688557Y-94903533D01*
X135762652Y-94764913D01*
X135772222Y-94747009D01*
X135816233Y-94693382D01*
X135884814Y-94609814D01*
X135986271Y-94526552D01*
X136022009Y-94497222D01*
X136039913Y-94487652D01*
X136178533Y-94413557D01*
X136235147Y-94396384D01*
X136348373Y-94362037D01*
X136414557Y-94355519D01*
X136480740Y-94349000D01*
X136569260Y-94349000D01*
X136635442Y-94355518D01*
X136635442Y-94355518D01*
G37*
G36*
X151635442Y-94355518D02*
X151701627Y-94362037D01*
X151814853Y-94396384D01*
X151871467Y-94413557D01*
X152010087Y-94487652D01*
X152027991Y-94497222D01*
X152063729Y-94526552D01*
X152165186Y-94609814D01*
X152233767Y-94693382D01*
X152277778Y-94747009D01*
X152287348Y-94764913D01*
X152361443Y-94903533D01*
X152361443Y-94903534D01*
X152412963Y-95073373D01*
X152430359Y-95250000D01*
X152412963Y-95426627D01*
X152378616Y-95539853D01*
X152361443Y-95596467D01*
X152298085Y-95715000D01*
X152277778Y-95752991D01*
X152248448Y-95788729D01*
X152165186Y-95890186D01*
X152063729Y-95973448D01*
X152027991Y-96002778D01*
X152027989Y-96002779D01*
X151871467Y-96086443D01*
X151814853Y-96103616D01*
X151701627Y-96137963D01*
X151635443Y-96144481D01*
X151569260Y-96151000D01*
X151480740Y-96151000D01*
X151414558Y-96144482D01*
X151348373Y-96137963D01*
X151235147Y-96103616D01*
X151178533Y-96086443D01*
X151022011Y-96002779D01*
X151022009Y-96002778D01*
X150986271Y-95973448D01*
X150884814Y-95890186D01*
X150801552Y-95788729D01*
X150772222Y-95752991D01*
X150751915Y-95715000D01*
X150688557Y-95596467D01*
X150671384Y-95539853D01*
X150637037Y-95426627D01*
X150619641Y-95250000D01*
X150637037Y-95073373D01*
X150688557Y-94903534D01*
X150688557Y-94903533D01*
X150762652Y-94764913D01*
X150772222Y-94747009D01*
X150816233Y-94693382D01*
X150884814Y-94609814D01*
X150986271Y-94526552D01*
X151022009Y-94497222D01*
X151039913Y-94487652D01*
X151178533Y-94413557D01*
X151235147Y-94396384D01*
X151348373Y-94362037D01*
X151414557Y-94355519D01*
X151480740Y-94349000D01*
X151569260Y-94349000D01*
X151635442Y-94355518D01*
X151635442Y-94355518D01*
G37*
G36*
X190099807Y-93205935D02*
X190099809Y-93205936D01*
X190099810Y-93205936D01*
X190246310Y-93266618D01*
X190246311Y-93266619D01*
X190378161Y-93354718D01*
X190490282Y-93466839D01*
X190490284Y-93466842D01*
X190578382Y-93598690D01*
X190639064Y-93745190D01*
X190670000Y-93900714D01*
X190670000Y-94059286D01*
X190639064Y-94214810D01*
X190578382Y-94361310D01*
X190491470Y-94491383D01*
X190490282Y-94493161D01*
X190378161Y-94605282D01*
X190378158Y-94605284D01*
X190246310Y-94693382D01*
X190099810Y-94754064D01*
X190099809Y-94754064D01*
X190099807Y-94754065D01*
X189944287Y-94785000D01*
X189785713Y-94785000D01*
X189630193Y-94754065D01*
X189630191Y-94754064D01*
X189630190Y-94754064D01*
X189483690Y-94693382D01*
X189351842Y-94605284D01*
X189351839Y-94605282D01*
X189239718Y-94493161D01*
X189238530Y-94491383D01*
X189151618Y-94361310D01*
X189090936Y-94214810D01*
X189060000Y-94059286D01*
X189060000Y-93900714D01*
X189090936Y-93745190D01*
X189151618Y-93598690D01*
X189239716Y-93466842D01*
X189239718Y-93466839D01*
X189351839Y-93354718D01*
X189483689Y-93266619D01*
X189483690Y-93266618D01*
X189630190Y-93205936D01*
X189630191Y-93205936D01*
X189630193Y-93205935D01*
X189785713Y-93175000D01*
X189944287Y-93175000D01*
X190099807Y-93205935D01*
X190099807Y-93205935D01*
G37*
G36*
X195055442Y-91815518D02*
X195121627Y-91822037D01*
X195234853Y-91856384D01*
X195291467Y-91873557D01*
X195430087Y-91947652D01*
X195447991Y-91957222D01*
X195483729Y-91986552D01*
X195585186Y-92069814D01*
X195653767Y-92153382D01*
X195697778Y-92207009D01*
X195707348Y-92224913D01*
X195781443Y-92363533D01*
X195781443Y-92363534D01*
X195832963Y-92533373D01*
X195850359Y-92710000D01*
X195832963Y-92886627D01*
X195798616Y-92999853D01*
X195781443Y-93056467D01*
X195718085Y-93175000D01*
X195697778Y-93212991D01*
X195668448Y-93248729D01*
X195585186Y-93350186D01*
X195483729Y-93433448D01*
X195447991Y-93462778D01*
X195447989Y-93462779D01*
X195291467Y-93546443D01*
X195234853Y-93563616D01*
X195121627Y-93597963D01*
X195055442Y-93604482D01*
X194989260Y-93611000D01*
X194900740Y-93611000D01*
X194834557Y-93604481D01*
X194768373Y-93597963D01*
X194655147Y-93563616D01*
X194598533Y-93546443D01*
X194442011Y-93462779D01*
X194442009Y-93462778D01*
X194406271Y-93433448D01*
X194304814Y-93350186D01*
X194221552Y-93248729D01*
X194192222Y-93212991D01*
X194171915Y-93175000D01*
X194108557Y-93056467D01*
X194091384Y-92999853D01*
X194057037Y-92886627D01*
X194039641Y-92710000D01*
X194057037Y-92533373D01*
X194108557Y-92363534D01*
X194108557Y-92363533D01*
X194182652Y-92224913D01*
X194192222Y-92207009D01*
X194236233Y-92153382D01*
X194304814Y-92069814D01*
X194406271Y-91986552D01*
X194442009Y-91957222D01*
X194459913Y-91947652D01*
X194598533Y-91873557D01*
X194655147Y-91856384D01*
X194768373Y-91822037D01*
X194834558Y-91815518D01*
X194900740Y-91809000D01*
X194989260Y-91809000D01*
X195055442Y-91815518D01*
X195055442Y-91815518D01*
G37*
G36*
X136635442Y-91815518D02*
X136701627Y-91822037D01*
X136814853Y-91856384D01*
X136871467Y-91873557D01*
X137010087Y-91947652D01*
X137027991Y-91957222D01*
X137063729Y-91986552D01*
X137165186Y-92069814D01*
X137233767Y-92153382D01*
X137277778Y-92207009D01*
X137287348Y-92224913D01*
X137361443Y-92363533D01*
X137361443Y-92363534D01*
X137412963Y-92533373D01*
X137430359Y-92710000D01*
X137412963Y-92886627D01*
X137378616Y-92999853D01*
X137361443Y-93056467D01*
X137298085Y-93175000D01*
X137277778Y-93212991D01*
X137248448Y-93248729D01*
X137165186Y-93350186D01*
X137063729Y-93433448D01*
X137027991Y-93462778D01*
X137027989Y-93462779D01*
X136871467Y-93546443D01*
X136814853Y-93563616D01*
X136701627Y-93597963D01*
X136635442Y-93604482D01*
X136569260Y-93611000D01*
X136480740Y-93611000D01*
X136414557Y-93604481D01*
X136348373Y-93597963D01*
X136235147Y-93563616D01*
X136178533Y-93546443D01*
X136022011Y-93462779D01*
X136022009Y-93462778D01*
X135986271Y-93433448D01*
X135884814Y-93350186D01*
X135801552Y-93248729D01*
X135772222Y-93212991D01*
X135751915Y-93175000D01*
X135688557Y-93056467D01*
X135671384Y-92999853D01*
X135637037Y-92886627D01*
X135619641Y-92710000D01*
X135637037Y-92533373D01*
X135688557Y-92363534D01*
X135688557Y-92363533D01*
X135762652Y-92224913D01*
X135772222Y-92207009D01*
X135816233Y-92153382D01*
X135884814Y-92069814D01*
X135986271Y-91986552D01*
X136022009Y-91957222D01*
X136039913Y-91947652D01*
X136178533Y-91873557D01*
X136235147Y-91856384D01*
X136348373Y-91822037D01*
X136414558Y-91815518D01*
X136480740Y-91809000D01*
X136569260Y-91809000D01*
X136635442Y-91815518D01*
X136635442Y-91815518D01*
G37*
G36*
X151635442Y-91815518D02*
X151701627Y-91822037D01*
X151814853Y-91856384D01*
X151871467Y-91873557D01*
X152010087Y-91947652D01*
X152027991Y-91957222D01*
X152063729Y-91986552D01*
X152165186Y-92069814D01*
X152233767Y-92153382D01*
X152277778Y-92207009D01*
X152287348Y-92224913D01*
X152361443Y-92363533D01*
X152361443Y-92363534D01*
X152412963Y-92533373D01*
X152430359Y-92710000D01*
X152412963Y-92886627D01*
X152378616Y-92999853D01*
X152361443Y-93056467D01*
X152298085Y-93175000D01*
X152277778Y-93212991D01*
X152248448Y-93248729D01*
X152165186Y-93350186D01*
X152063729Y-93433448D01*
X152027991Y-93462778D01*
X152027989Y-93462779D01*
X151871467Y-93546443D01*
X151814853Y-93563616D01*
X151701627Y-93597963D01*
X151635442Y-93604482D01*
X151569260Y-93611000D01*
X151480740Y-93611000D01*
X151414557Y-93604481D01*
X151348373Y-93597963D01*
X151235147Y-93563616D01*
X151178533Y-93546443D01*
X151022011Y-93462779D01*
X151022009Y-93462778D01*
X150986271Y-93433448D01*
X150884814Y-93350186D01*
X150801552Y-93248729D01*
X150772222Y-93212991D01*
X150751915Y-93175000D01*
X150688557Y-93056467D01*
X150671384Y-92999853D01*
X150637037Y-92886627D01*
X150619641Y-92710000D01*
X150637037Y-92533373D01*
X150688557Y-92363534D01*
X150688557Y-92363533D01*
X150762652Y-92224913D01*
X150772222Y-92207009D01*
X150816233Y-92153382D01*
X150884814Y-92069814D01*
X150986271Y-91986552D01*
X151022009Y-91957222D01*
X151039913Y-91947652D01*
X151178533Y-91873557D01*
X151235147Y-91856384D01*
X151348373Y-91822037D01*
X151414558Y-91815518D01*
X151480740Y-91809000D01*
X151569260Y-91809000D01*
X151635442Y-91815518D01*
X151635442Y-91815518D01*
G37*
G36*
X190099807Y-90665935D02*
X190099809Y-90665936D01*
X190099810Y-90665936D01*
X190246310Y-90726618D01*
X190246311Y-90726619D01*
X190378161Y-90814718D01*
X190490282Y-90926839D01*
X190490284Y-90926842D01*
X190578382Y-91058690D01*
X190639064Y-91205190D01*
X190670000Y-91360714D01*
X190670000Y-91519286D01*
X190639064Y-91674810D01*
X190578382Y-91821310D01*
X190491470Y-91951383D01*
X190490282Y-91953161D01*
X190378161Y-92065282D01*
X190378158Y-92065284D01*
X190246310Y-92153382D01*
X190099810Y-92214064D01*
X190099809Y-92214064D01*
X190099807Y-92214065D01*
X189944287Y-92245000D01*
X189785713Y-92245000D01*
X189630193Y-92214065D01*
X189630191Y-92214064D01*
X189630190Y-92214064D01*
X189483690Y-92153382D01*
X189351842Y-92065284D01*
X189351839Y-92065282D01*
X189239718Y-91953161D01*
X189238530Y-91951383D01*
X189151618Y-91821310D01*
X189090936Y-91674810D01*
X189060000Y-91519286D01*
X189060000Y-91360714D01*
X189090936Y-91205190D01*
X189151618Y-91058690D01*
X189239716Y-90926842D01*
X189239718Y-90926839D01*
X189351839Y-90814718D01*
X189483689Y-90726619D01*
X189483690Y-90726618D01*
X189630190Y-90665936D01*
X189630191Y-90665936D01*
X189630193Y-90665935D01*
X189785713Y-90635000D01*
X189944287Y-90635000D01*
X190099807Y-90665935D01*
X190099807Y-90665935D01*
G37*
G36*
X195846000Y-91071000D02*
X194044000Y-91071000D01*
X194044000Y-89269000D01*
X195846000Y-89269000D01*
X195846000Y-91071000D01*
X195846000Y-91071000D01*
G37*
G36*
X151635443Y-89275519D02*
X151701627Y-89282037D01*
X151814853Y-89316384D01*
X151871467Y-89333557D01*
X151988166Y-89395935D01*
X152027991Y-89417222D01*
X152063729Y-89446552D01*
X152165186Y-89529814D01*
X152248448Y-89631271D01*
X152277778Y-89667009D01*
X152277779Y-89667011D01*
X152361443Y-89823533D01*
X152361443Y-89823534D01*
X152412963Y-89993373D01*
X152430359Y-90170000D01*
X152412963Y-90346627D01*
X152395314Y-90404807D01*
X152361443Y-90516467D01*
X152342818Y-90551311D01*
X152277778Y-90672991D01*
X152248448Y-90708729D01*
X152165186Y-90810186D01*
X152075996Y-90883381D01*
X152027991Y-90922778D01*
X152027989Y-90922779D01*
X151871467Y-91006443D01*
X151814853Y-91023616D01*
X151701627Y-91057963D01*
X151635442Y-91064482D01*
X151569260Y-91071000D01*
X151480740Y-91071000D01*
X151414558Y-91064482D01*
X151348373Y-91057963D01*
X151235147Y-91023616D01*
X151178533Y-91006443D01*
X151022011Y-90922779D01*
X151022009Y-90922778D01*
X150974004Y-90883381D01*
X150884814Y-90810186D01*
X150801552Y-90708729D01*
X150772222Y-90672991D01*
X150707182Y-90551311D01*
X150688557Y-90516467D01*
X150654686Y-90404807D01*
X150637037Y-90346627D01*
X150619641Y-90170000D01*
X150637037Y-89993373D01*
X150688557Y-89823534D01*
X150688557Y-89823533D01*
X150772221Y-89667011D01*
X150772222Y-89667009D01*
X150801552Y-89631271D01*
X150884814Y-89529814D01*
X150986271Y-89446552D01*
X151022009Y-89417222D01*
X151061834Y-89395935D01*
X151178533Y-89333557D01*
X151235147Y-89316384D01*
X151348373Y-89282037D01*
X151414557Y-89275519D01*
X151480740Y-89269000D01*
X151569260Y-89269000D01*
X151635443Y-89275519D01*
X151635443Y-89275519D01*
G37*
G36*
X136635443Y-89275519D02*
X136701627Y-89282037D01*
X136814853Y-89316384D01*
X136871467Y-89333557D01*
X136988166Y-89395935D01*
X137027991Y-89417222D01*
X137063729Y-89446552D01*
X137165186Y-89529814D01*
X137248448Y-89631271D01*
X137277778Y-89667009D01*
X137277779Y-89667011D01*
X137361443Y-89823533D01*
X137361443Y-89823534D01*
X137412963Y-89993373D01*
X137430359Y-90170000D01*
X137412963Y-90346627D01*
X137395314Y-90404807D01*
X137361443Y-90516467D01*
X137342818Y-90551311D01*
X137277778Y-90672991D01*
X137248448Y-90708729D01*
X137165186Y-90810186D01*
X137075996Y-90883381D01*
X137027991Y-90922778D01*
X137027989Y-90922779D01*
X136871467Y-91006443D01*
X136814853Y-91023616D01*
X136701627Y-91057963D01*
X136635442Y-91064482D01*
X136569260Y-91071000D01*
X136480740Y-91071000D01*
X136414558Y-91064482D01*
X136348373Y-91057963D01*
X136235147Y-91023616D01*
X136178533Y-91006443D01*
X136022011Y-90922779D01*
X136022009Y-90922778D01*
X135974004Y-90883381D01*
X135884814Y-90810186D01*
X135801552Y-90708729D01*
X135772222Y-90672991D01*
X135707182Y-90551311D01*
X135688557Y-90516467D01*
X135654686Y-90404807D01*
X135637037Y-90346627D01*
X135619641Y-90170000D01*
X135637037Y-89993373D01*
X135688557Y-89823534D01*
X135688557Y-89823533D01*
X135772221Y-89667011D01*
X135772222Y-89667009D01*
X135801552Y-89631271D01*
X135884814Y-89529814D01*
X135986271Y-89446552D01*
X136022009Y-89417222D01*
X136061834Y-89395935D01*
X136178533Y-89333557D01*
X136235147Y-89316384D01*
X136348373Y-89282037D01*
X136414557Y-89275519D01*
X136480740Y-89269000D01*
X136569260Y-89269000D01*
X136635443Y-89275519D01*
X136635443Y-89275519D01*
G37*
G36*
X177399807Y-89395935D02*
X177399809Y-89395936D01*
X177399810Y-89395936D01*
X177546310Y-89456618D01*
X177655857Y-89529815D01*
X177678161Y-89544718D01*
X177790282Y-89656839D01*
X177790284Y-89656842D01*
X177878382Y-89788690D01*
X177939064Y-89935190D01*
X177939065Y-89935193D01*
X177970000Y-90090713D01*
X177970000Y-90249287D01*
X177950638Y-90346627D01*
X177939064Y-90404810D01*
X177878382Y-90551310D01*
X177878381Y-90551311D01*
X177790282Y-90683161D01*
X177678161Y-90795282D01*
X177678158Y-90795284D01*
X177546310Y-90883382D01*
X177399810Y-90944064D01*
X177399809Y-90944064D01*
X177399807Y-90944065D01*
X177244287Y-90975000D01*
X177085713Y-90975000D01*
X176930193Y-90944065D01*
X176930191Y-90944064D01*
X176930190Y-90944064D01*
X176783690Y-90883382D01*
X176651842Y-90795284D01*
X176651839Y-90795282D01*
X176539718Y-90683161D01*
X176451619Y-90551311D01*
X176451618Y-90551310D01*
X176390936Y-90404810D01*
X176379363Y-90346627D01*
X176360000Y-90249287D01*
X176360000Y-90090713D01*
X176390935Y-89935193D01*
X176390936Y-89935190D01*
X176451618Y-89788690D01*
X176539716Y-89656842D01*
X176539718Y-89656839D01*
X176651839Y-89544718D01*
X176674143Y-89529815D01*
X176783690Y-89456618D01*
X176930190Y-89395936D01*
X176930191Y-89395936D01*
X176930193Y-89395935D01*
X177085713Y-89365000D01*
X177244287Y-89365000D01*
X177399807Y-89395935D01*
X177399807Y-89395935D01*
G37*
G36*
X159619807Y-89395935D02*
X159619809Y-89395936D01*
X159619810Y-89395936D01*
X159766310Y-89456618D01*
X159875857Y-89529815D01*
X159898161Y-89544718D01*
X160010282Y-89656839D01*
X160010284Y-89656842D01*
X160098382Y-89788690D01*
X160159064Y-89935190D01*
X160159065Y-89935193D01*
X160190000Y-90090713D01*
X160190000Y-90249287D01*
X160170638Y-90346627D01*
X160159064Y-90404810D01*
X160098382Y-90551310D01*
X160098381Y-90551311D01*
X160010282Y-90683161D01*
X159898161Y-90795282D01*
X159898158Y-90795284D01*
X159766310Y-90883382D01*
X159619810Y-90944064D01*
X159619809Y-90944064D01*
X159619807Y-90944065D01*
X159464287Y-90975000D01*
X159305713Y-90975000D01*
X159150193Y-90944065D01*
X159150191Y-90944064D01*
X159150190Y-90944064D01*
X159003690Y-90883382D01*
X158871842Y-90795284D01*
X158871839Y-90795282D01*
X158759718Y-90683161D01*
X158671619Y-90551311D01*
X158671618Y-90551310D01*
X158610936Y-90404810D01*
X158599363Y-90346627D01*
X158580000Y-90249287D01*
X158580000Y-90090713D01*
X158610935Y-89935193D01*
X158610936Y-89935190D01*
X158671618Y-89788690D01*
X158759716Y-89656842D01*
X158759718Y-89656839D01*
X158871839Y-89544718D01*
X158894143Y-89529815D01*
X159003690Y-89456618D01*
X159150190Y-89395936D01*
X159150191Y-89395936D01*
X159150193Y-89395935D01*
X159305713Y-89365000D01*
X159464287Y-89365000D01*
X159619807Y-89395935D01*
X159619807Y-89395935D01*
G37*
G36*
X162159807Y-89395935D02*
X162159809Y-89395936D01*
X162159810Y-89395936D01*
X162306310Y-89456618D01*
X162415857Y-89529815D01*
X162438161Y-89544718D01*
X162550282Y-89656839D01*
X162550284Y-89656842D01*
X162638382Y-89788690D01*
X162699064Y-89935190D01*
X162699065Y-89935193D01*
X162730000Y-90090713D01*
X162730000Y-90249287D01*
X162710638Y-90346627D01*
X162699064Y-90404810D01*
X162638382Y-90551310D01*
X162638381Y-90551311D01*
X162550282Y-90683161D01*
X162438161Y-90795282D01*
X162438158Y-90795284D01*
X162306310Y-90883382D01*
X162159810Y-90944064D01*
X162159809Y-90944064D01*
X162159807Y-90944065D01*
X162004287Y-90975000D01*
X161845713Y-90975000D01*
X161690193Y-90944065D01*
X161690191Y-90944064D01*
X161690190Y-90944064D01*
X161543690Y-90883382D01*
X161411842Y-90795284D01*
X161411839Y-90795282D01*
X161299718Y-90683161D01*
X161211619Y-90551311D01*
X161211618Y-90551310D01*
X161150936Y-90404810D01*
X161139363Y-90346627D01*
X161120000Y-90249287D01*
X161120000Y-90090713D01*
X161150935Y-89935193D01*
X161150936Y-89935190D01*
X161211618Y-89788690D01*
X161299716Y-89656842D01*
X161299718Y-89656839D01*
X161411839Y-89544718D01*
X161434143Y-89529815D01*
X161543690Y-89456618D01*
X161690190Y-89395936D01*
X161690191Y-89395936D01*
X161690193Y-89395935D01*
X161845713Y-89365000D01*
X162004287Y-89365000D01*
X162159807Y-89395935D01*
X162159807Y-89395935D01*
G37*
G36*
X164699807Y-89395935D02*
X164699809Y-89395936D01*
X164699810Y-89395936D01*
X164846310Y-89456618D01*
X164955857Y-89529815D01*
X164978161Y-89544718D01*
X165090282Y-89656839D01*
X165090284Y-89656842D01*
X165178382Y-89788690D01*
X165239064Y-89935190D01*
X165239065Y-89935193D01*
X165270000Y-90090713D01*
X165270000Y-90249287D01*
X165250638Y-90346627D01*
X165239064Y-90404810D01*
X165178382Y-90551310D01*
X165178381Y-90551311D01*
X165090282Y-90683161D01*
X164978161Y-90795282D01*
X164978158Y-90795284D01*
X164846310Y-90883382D01*
X164699810Y-90944064D01*
X164699809Y-90944064D01*
X164699807Y-90944065D01*
X164544287Y-90975000D01*
X164385713Y-90975000D01*
X164230193Y-90944065D01*
X164230191Y-90944064D01*
X164230190Y-90944064D01*
X164083690Y-90883382D01*
X163951842Y-90795284D01*
X163951839Y-90795282D01*
X163839718Y-90683161D01*
X163751619Y-90551311D01*
X163751618Y-90551310D01*
X163690936Y-90404810D01*
X163679363Y-90346627D01*
X163660000Y-90249287D01*
X163660000Y-90090713D01*
X163690935Y-89935193D01*
X163690936Y-89935190D01*
X163751618Y-89788690D01*
X163839716Y-89656842D01*
X163839718Y-89656839D01*
X163951839Y-89544718D01*
X163974143Y-89529815D01*
X164083690Y-89456618D01*
X164230190Y-89395936D01*
X164230191Y-89395936D01*
X164230193Y-89395935D01*
X164385713Y-89365000D01*
X164544287Y-89365000D01*
X164699807Y-89395935D01*
X164699807Y-89395935D01*
G37*
G36*
X172319807Y-89395935D02*
X172319809Y-89395936D01*
X172319810Y-89395936D01*
X172466310Y-89456618D01*
X172575857Y-89529815D01*
X172598161Y-89544718D01*
X172710282Y-89656839D01*
X172710284Y-89656842D01*
X172798382Y-89788690D01*
X172859064Y-89935190D01*
X172859065Y-89935193D01*
X172890000Y-90090713D01*
X172890000Y-90249287D01*
X172870638Y-90346627D01*
X172859064Y-90404810D01*
X172798382Y-90551310D01*
X172798381Y-90551311D01*
X172710282Y-90683161D01*
X172598161Y-90795282D01*
X172598158Y-90795284D01*
X172466310Y-90883382D01*
X172319810Y-90944064D01*
X172319809Y-90944064D01*
X172319807Y-90944065D01*
X172164287Y-90975000D01*
X172005713Y-90975000D01*
X171850193Y-90944065D01*
X171850191Y-90944064D01*
X171850190Y-90944064D01*
X171703690Y-90883382D01*
X171571842Y-90795284D01*
X171571839Y-90795282D01*
X171459718Y-90683161D01*
X171371619Y-90551311D01*
X171371618Y-90551310D01*
X171310936Y-90404810D01*
X171299363Y-90346627D01*
X171280000Y-90249287D01*
X171280000Y-90090713D01*
X171310935Y-89935193D01*
X171310936Y-89935190D01*
X171371618Y-89788690D01*
X171459716Y-89656842D01*
X171459718Y-89656839D01*
X171571839Y-89544718D01*
X171594143Y-89529815D01*
X171703690Y-89456618D01*
X171850190Y-89395936D01*
X171850191Y-89395936D01*
X171850193Y-89395935D01*
X172005713Y-89365000D01*
X172164287Y-89365000D01*
X172319807Y-89395935D01*
X172319807Y-89395935D01*
G37*
G36*
X179939807Y-89395935D02*
X179939809Y-89395936D01*
X179939810Y-89395936D01*
X180086310Y-89456618D01*
X180195857Y-89529815D01*
X180218161Y-89544718D01*
X180330282Y-89656839D01*
X180330284Y-89656842D01*
X180418382Y-89788690D01*
X180479064Y-89935190D01*
X180479065Y-89935193D01*
X180510000Y-90090713D01*
X180510000Y-90249287D01*
X180490638Y-90346627D01*
X180479064Y-90404810D01*
X180418382Y-90551310D01*
X180418381Y-90551311D01*
X180330282Y-90683161D01*
X180218161Y-90795282D01*
X180218158Y-90795284D01*
X180086310Y-90883382D01*
X179939810Y-90944064D01*
X179939809Y-90944064D01*
X179939807Y-90944065D01*
X179784287Y-90975000D01*
X179625713Y-90975000D01*
X179470193Y-90944065D01*
X179470191Y-90944064D01*
X179470190Y-90944064D01*
X179323690Y-90883382D01*
X179191842Y-90795284D01*
X179191839Y-90795282D01*
X179079718Y-90683161D01*
X178991619Y-90551311D01*
X178991618Y-90551310D01*
X178930936Y-90404810D01*
X178919363Y-90346627D01*
X178900000Y-90249287D01*
X178900000Y-90090713D01*
X178930935Y-89935193D01*
X178930936Y-89935190D01*
X178991618Y-89788690D01*
X179079716Y-89656842D01*
X179079718Y-89656839D01*
X179191839Y-89544718D01*
X179214143Y-89529815D01*
X179323690Y-89456618D01*
X179470190Y-89395936D01*
X179470191Y-89395936D01*
X179470193Y-89395935D01*
X179625713Y-89365000D01*
X179784287Y-89365000D01*
X179939807Y-89395935D01*
X179939807Y-89395935D01*
G37*
G36*
X185019807Y-89395935D02*
X185019809Y-89395936D01*
X185019810Y-89395936D01*
X185166310Y-89456618D01*
X185275857Y-89529815D01*
X185298161Y-89544718D01*
X185410282Y-89656839D01*
X185410284Y-89656842D01*
X185498382Y-89788690D01*
X185559064Y-89935190D01*
X185559065Y-89935193D01*
X185590000Y-90090713D01*
X185590000Y-90249287D01*
X185570638Y-90346627D01*
X185559064Y-90404810D01*
X185498382Y-90551310D01*
X185498381Y-90551311D01*
X185410282Y-90683161D01*
X185298161Y-90795282D01*
X185298158Y-90795284D01*
X185166310Y-90883382D01*
X185019810Y-90944064D01*
X185019809Y-90944064D01*
X185019807Y-90944065D01*
X184864287Y-90975000D01*
X184705713Y-90975000D01*
X184550193Y-90944065D01*
X184550191Y-90944064D01*
X184550190Y-90944064D01*
X184403690Y-90883382D01*
X184271842Y-90795284D01*
X184271839Y-90795282D01*
X184159718Y-90683161D01*
X184071619Y-90551311D01*
X184071618Y-90551310D01*
X184010936Y-90404810D01*
X183999363Y-90346627D01*
X183980000Y-90249287D01*
X183980000Y-90090713D01*
X184010935Y-89935193D01*
X184010936Y-89935190D01*
X184071618Y-89788690D01*
X184159716Y-89656842D01*
X184159718Y-89656839D01*
X184271839Y-89544718D01*
X184294143Y-89529815D01*
X184403690Y-89456618D01*
X184550190Y-89395936D01*
X184550191Y-89395936D01*
X184550193Y-89395935D01*
X184705713Y-89365000D01*
X184864287Y-89365000D01*
X185019807Y-89395935D01*
X185019807Y-89395935D01*
G37*
G36*
X187559807Y-89395935D02*
X187559809Y-89395936D01*
X187559810Y-89395936D01*
X187706310Y-89456618D01*
X187815857Y-89529815D01*
X187838161Y-89544718D01*
X187950282Y-89656839D01*
X187950284Y-89656842D01*
X188038382Y-89788690D01*
X188099064Y-89935190D01*
X188099065Y-89935193D01*
X188130000Y-90090713D01*
X188130000Y-90249287D01*
X188110638Y-90346627D01*
X188099064Y-90404810D01*
X188038382Y-90551310D01*
X188038381Y-90551311D01*
X187950282Y-90683161D01*
X187838161Y-90795282D01*
X187838158Y-90795284D01*
X187706310Y-90883382D01*
X187559810Y-90944064D01*
X187559809Y-90944064D01*
X187559807Y-90944065D01*
X187404287Y-90975000D01*
X187245713Y-90975000D01*
X187090193Y-90944065D01*
X187090191Y-90944064D01*
X187090190Y-90944064D01*
X186943690Y-90883382D01*
X186811842Y-90795284D01*
X186811839Y-90795282D01*
X186699718Y-90683161D01*
X186611619Y-90551311D01*
X186611618Y-90551310D01*
X186550936Y-90404810D01*
X186539363Y-90346627D01*
X186520000Y-90249287D01*
X186520000Y-90090713D01*
X186550935Y-89935193D01*
X186550936Y-89935190D01*
X186611618Y-89788690D01*
X186699716Y-89656842D01*
X186699718Y-89656839D01*
X186811839Y-89544718D01*
X186834143Y-89529815D01*
X186943690Y-89456618D01*
X187090190Y-89395936D01*
X187090191Y-89395936D01*
X187090193Y-89395935D01*
X187245713Y-89365000D01*
X187404287Y-89365000D01*
X187559807Y-89395935D01*
X187559807Y-89395935D01*
G37*
G36*
X167239807Y-89395935D02*
X167239809Y-89395936D01*
X167239810Y-89395936D01*
X167386310Y-89456618D01*
X167495857Y-89529815D01*
X167518161Y-89544718D01*
X167630282Y-89656839D01*
X167630284Y-89656842D01*
X167718382Y-89788690D01*
X167779064Y-89935190D01*
X167779065Y-89935193D01*
X167810000Y-90090713D01*
X167810000Y-90249287D01*
X167790638Y-90346627D01*
X167779064Y-90404810D01*
X167718382Y-90551310D01*
X167718381Y-90551311D01*
X167630282Y-90683161D01*
X167518161Y-90795282D01*
X167518158Y-90795284D01*
X167386310Y-90883382D01*
X167239810Y-90944064D01*
X167239809Y-90944064D01*
X167239807Y-90944065D01*
X167084287Y-90975000D01*
X166925713Y-90975000D01*
X166770193Y-90944065D01*
X166770191Y-90944064D01*
X166770190Y-90944064D01*
X166623690Y-90883382D01*
X166491842Y-90795284D01*
X166491839Y-90795282D01*
X166379718Y-90683161D01*
X166291619Y-90551311D01*
X166291618Y-90551310D01*
X166230936Y-90404810D01*
X166219363Y-90346627D01*
X166200000Y-90249287D01*
X166200000Y-90090713D01*
X166230935Y-89935193D01*
X166230936Y-89935190D01*
X166291618Y-89788690D01*
X166379716Y-89656842D01*
X166379718Y-89656839D01*
X166491839Y-89544718D01*
X166514143Y-89529815D01*
X166623690Y-89456618D01*
X166770190Y-89395936D01*
X166770191Y-89395936D01*
X166770193Y-89395935D01*
X166925713Y-89365000D01*
X167084287Y-89365000D01*
X167239807Y-89395935D01*
X167239807Y-89395935D01*
G37*
G36*
X174859807Y-89395935D02*
X174859809Y-89395936D01*
X174859810Y-89395936D01*
X175006310Y-89456618D01*
X175115857Y-89529815D01*
X175138161Y-89544718D01*
X175250282Y-89656839D01*
X175250284Y-89656842D01*
X175338382Y-89788690D01*
X175399064Y-89935190D01*
X175399065Y-89935193D01*
X175430000Y-90090713D01*
X175430000Y-90249287D01*
X175410638Y-90346627D01*
X175399064Y-90404810D01*
X175338382Y-90551310D01*
X175338381Y-90551311D01*
X175250282Y-90683161D01*
X175138161Y-90795282D01*
X175138158Y-90795284D01*
X175006310Y-90883382D01*
X174859810Y-90944064D01*
X174859809Y-90944064D01*
X174859807Y-90944065D01*
X174704287Y-90975000D01*
X174545713Y-90975000D01*
X174390193Y-90944065D01*
X174390191Y-90944064D01*
X174390190Y-90944064D01*
X174243690Y-90883382D01*
X174111842Y-90795284D01*
X174111839Y-90795282D01*
X173999718Y-90683161D01*
X173911619Y-90551311D01*
X173911618Y-90551310D01*
X173850936Y-90404810D01*
X173839363Y-90346627D01*
X173820000Y-90249287D01*
X173820000Y-90090713D01*
X173850935Y-89935193D01*
X173850936Y-89935190D01*
X173911618Y-89788690D01*
X173999716Y-89656842D01*
X173999718Y-89656839D01*
X174111839Y-89544718D01*
X174134143Y-89529815D01*
X174243690Y-89456618D01*
X174390190Y-89395936D01*
X174390191Y-89395936D01*
X174390193Y-89395935D01*
X174545713Y-89365000D01*
X174704287Y-89365000D01*
X174859807Y-89395935D01*
X174859807Y-89395935D01*
G37*
G36*
X169779807Y-89395935D02*
X169779809Y-89395936D01*
X169779810Y-89395936D01*
X169926310Y-89456618D01*
X170035857Y-89529815D01*
X170058161Y-89544718D01*
X170170282Y-89656839D01*
X170170284Y-89656842D01*
X170258382Y-89788690D01*
X170319064Y-89935190D01*
X170319065Y-89935193D01*
X170350000Y-90090713D01*
X170350000Y-90249287D01*
X170330638Y-90346627D01*
X170319064Y-90404810D01*
X170258382Y-90551310D01*
X170258381Y-90551311D01*
X170170282Y-90683161D01*
X170058161Y-90795282D01*
X170058158Y-90795284D01*
X169926310Y-90883382D01*
X169779810Y-90944064D01*
X169779809Y-90944064D01*
X169779807Y-90944065D01*
X169624287Y-90975000D01*
X169465713Y-90975000D01*
X169310193Y-90944065D01*
X169310191Y-90944064D01*
X169310190Y-90944064D01*
X169163690Y-90883382D01*
X169031842Y-90795284D01*
X169031839Y-90795282D01*
X168919718Y-90683161D01*
X168831619Y-90551311D01*
X168831618Y-90551310D01*
X168770936Y-90404810D01*
X168759363Y-90346627D01*
X168740000Y-90249287D01*
X168740000Y-90090713D01*
X168770935Y-89935193D01*
X168770936Y-89935190D01*
X168831618Y-89788690D01*
X168919716Y-89656842D01*
X168919718Y-89656839D01*
X169031839Y-89544718D01*
X169054143Y-89529815D01*
X169163690Y-89456618D01*
X169310190Y-89395936D01*
X169310191Y-89395936D01*
X169310193Y-89395935D01*
X169465713Y-89365000D01*
X169624287Y-89365000D01*
X169779807Y-89395935D01*
X169779807Y-89395935D01*
G37*
G36*
X182479807Y-89395935D02*
X182479809Y-89395936D01*
X182479810Y-89395936D01*
X182626310Y-89456618D01*
X182735857Y-89529815D01*
X182758161Y-89544718D01*
X182870282Y-89656839D01*
X182870284Y-89656842D01*
X182958382Y-89788690D01*
X183019064Y-89935190D01*
X183019065Y-89935193D01*
X183050000Y-90090713D01*
X183050000Y-90249287D01*
X183030638Y-90346627D01*
X183019064Y-90404810D01*
X182958382Y-90551310D01*
X182958381Y-90551311D01*
X182870282Y-90683161D01*
X182758161Y-90795282D01*
X182758158Y-90795284D01*
X182626310Y-90883382D01*
X182479810Y-90944064D01*
X182479809Y-90944064D01*
X182479807Y-90944065D01*
X182324287Y-90975000D01*
X182165713Y-90975000D01*
X182010193Y-90944065D01*
X182010191Y-90944064D01*
X182010190Y-90944064D01*
X181863690Y-90883382D01*
X181731842Y-90795284D01*
X181731839Y-90795282D01*
X181619718Y-90683161D01*
X181531619Y-90551311D01*
X181531618Y-90551310D01*
X181470936Y-90404810D01*
X181459363Y-90346627D01*
X181440000Y-90249287D01*
X181440000Y-90090713D01*
X181470935Y-89935193D01*
X181470936Y-89935190D01*
X181531618Y-89788690D01*
X181619716Y-89656842D01*
X181619718Y-89656839D01*
X181731839Y-89544718D01*
X181754143Y-89529815D01*
X181863690Y-89456618D01*
X182010190Y-89395936D01*
X182010191Y-89395936D01*
X182010193Y-89395935D01*
X182165713Y-89365000D01*
X182324287Y-89365000D01*
X182479807Y-89395935D01*
X182479807Y-89395935D01*
G37*
G36*
X136635442Y-86735518D02*
X136701627Y-86742037D01*
X136814853Y-86776384D01*
X136871467Y-86793557D01*
X137010087Y-86867652D01*
X137027991Y-86877222D01*
X137063729Y-86906552D01*
X137165186Y-86989814D01*
X137248448Y-87091271D01*
X137277778Y-87127009D01*
X137277779Y-87127011D01*
X137361443Y-87283533D01*
X137361443Y-87283534D01*
X137412963Y-87453373D01*
X137430359Y-87630000D01*
X137412963Y-87806627D01*
X137378616Y-87919853D01*
X137361443Y-87976467D01*
X137287348Y-88115087D01*
X137277778Y-88132991D01*
X137248448Y-88168729D01*
X137165186Y-88270186D01*
X137063729Y-88353448D01*
X137027991Y-88382778D01*
X137027989Y-88382779D01*
X136871467Y-88466443D01*
X136814853Y-88483616D01*
X136701627Y-88517963D01*
X136635442Y-88524482D01*
X136569260Y-88531000D01*
X136480740Y-88531000D01*
X136414558Y-88524482D01*
X136348373Y-88517963D01*
X136235147Y-88483616D01*
X136178533Y-88466443D01*
X136022011Y-88382779D01*
X136022009Y-88382778D01*
X135986271Y-88353448D01*
X135884814Y-88270186D01*
X135801552Y-88168729D01*
X135772222Y-88132991D01*
X135762652Y-88115087D01*
X135688557Y-87976467D01*
X135671384Y-87919853D01*
X135637037Y-87806627D01*
X135619641Y-87630000D01*
X135637037Y-87453373D01*
X135688557Y-87283534D01*
X135688557Y-87283533D01*
X135772221Y-87127011D01*
X135772222Y-87127009D01*
X135801552Y-87091271D01*
X135884814Y-86989814D01*
X135986271Y-86906552D01*
X136022009Y-86877222D01*
X136039913Y-86867652D01*
X136178533Y-86793557D01*
X136235147Y-86776384D01*
X136348373Y-86742037D01*
X136414558Y-86735518D01*
X136480740Y-86729000D01*
X136569260Y-86729000D01*
X136635442Y-86735518D01*
X136635442Y-86735518D01*
G37*
G36*
X151635442Y-86735518D02*
X151701627Y-86742037D01*
X151814853Y-86776384D01*
X151871467Y-86793557D01*
X152010087Y-86867652D01*
X152027991Y-86877222D01*
X152063729Y-86906552D01*
X152165186Y-86989814D01*
X152248448Y-87091271D01*
X152277778Y-87127009D01*
X152277779Y-87127011D01*
X152361443Y-87283533D01*
X152361443Y-87283534D01*
X152412963Y-87453373D01*
X152430359Y-87630000D01*
X152412963Y-87806627D01*
X152378616Y-87919853D01*
X152361443Y-87976467D01*
X152287348Y-88115087D01*
X152277778Y-88132991D01*
X152248448Y-88168729D01*
X152165186Y-88270186D01*
X152063729Y-88353448D01*
X152027991Y-88382778D01*
X152027989Y-88382779D01*
X151871467Y-88466443D01*
X151814853Y-88483616D01*
X151701627Y-88517963D01*
X151635442Y-88524482D01*
X151569260Y-88531000D01*
X151480740Y-88531000D01*
X151414558Y-88524482D01*
X151348373Y-88517963D01*
X151235147Y-88483616D01*
X151178533Y-88466443D01*
X151022011Y-88382779D01*
X151022009Y-88382778D01*
X150986271Y-88353448D01*
X150884814Y-88270186D01*
X150801552Y-88168729D01*
X150772222Y-88132991D01*
X150762652Y-88115087D01*
X150688557Y-87976467D01*
X150671384Y-87919853D01*
X150637037Y-87806627D01*
X150619641Y-87630000D01*
X150637037Y-87453373D01*
X150688557Y-87283534D01*
X150688557Y-87283533D01*
X150772221Y-87127011D01*
X150772222Y-87127009D01*
X150801552Y-87091271D01*
X150884814Y-86989814D01*
X150986271Y-86906552D01*
X151022009Y-86877222D01*
X151039913Y-86867652D01*
X151178533Y-86793557D01*
X151235147Y-86776384D01*
X151348373Y-86742037D01*
X151414558Y-86735518D01*
X151480740Y-86729000D01*
X151569260Y-86729000D01*
X151635442Y-86735518D01*
X151635442Y-86735518D01*
G37*
G36*
X151787812Y-84223624D02*
X151951784Y-84291544D01*
X152099354Y-84390147D01*
X152224853Y-84515646D01*
X152323456Y-84663216D01*
X152391376Y-84827188D01*
X152426000Y-85001259D01*
X152426000Y-85178741D01*
X152391376Y-85352812D01*
X152323456Y-85516784D01*
X152224853Y-85664354D01*
X152099354Y-85789853D01*
X151951784Y-85888456D01*
X151787812Y-85956376D01*
X151613741Y-85991000D01*
X151436259Y-85991000D01*
X151262188Y-85956376D01*
X151098216Y-85888456D01*
X150950646Y-85789853D01*
X150825147Y-85664354D01*
X150726544Y-85516784D01*
X150658624Y-85352812D01*
X150624000Y-85178741D01*
X150624000Y-85001259D01*
X150658624Y-84827188D01*
X150726544Y-84663216D01*
X150825147Y-84515646D01*
X150950646Y-84390147D01*
X151098216Y-84291544D01*
X151262188Y-84223624D01*
X151436259Y-84189000D01*
X151613741Y-84189000D01*
X151787812Y-84223624D01*
X151787812Y-84223624D01*
G37*
G36*
X137426000Y-85991000D02*
X135624000Y-85991000D01*
X135624000Y-84189000D01*
X137426000Y-84189000D01*
X137426000Y-85991000D01*
X137426000Y-85991000D01*
G37*
G36*
X158225442Y-84195518D02*
X158291627Y-84202037D01*
X158404853Y-84236384D01*
X158461467Y-84253557D01*
X158600087Y-84327652D01*
X158617991Y-84337222D01*
X158653729Y-84366552D01*
X158755186Y-84449814D01*
X158838448Y-84551271D01*
X158867778Y-84587009D01*
X158867779Y-84587011D01*
X158951443Y-84743533D01*
X158951443Y-84743534D01*
X159002963Y-84913373D01*
X159020359Y-85090000D01*
X159002963Y-85266627D01*
X158976819Y-85352812D01*
X158951443Y-85436467D01*
X158908513Y-85516782D01*
X158867778Y-85592991D01*
X158838448Y-85628729D01*
X158755186Y-85730186D01*
X158682480Y-85789853D01*
X158617991Y-85842778D01*
X158617989Y-85842779D01*
X158461467Y-85926443D01*
X158404853Y-85943616D01*
X158291627Y-85977963D01*
X158225442Y-85984482D01*
X158159260Y-85991000D01*
X158070740Y-85991000D01*
X158004558Y-85984482D01*
X157938373Y-85977963D01*
X157825147Y-85943616D01*
X157768533Y-85926443D01*
X157612011Y-85842779D01*
X157612009Y-85842778D01*
X157547520Y-85789853D01*
X157474814Y-85730186D01*
X157391552Y-85628729D01*
X157362222Y-85592991D01*
X157321487Y-85516782D01*
X157278557Y-85436467D01*
X157253181Y-85352812D01*
X157227037Y-85266627D01*
X157209641Y-85090000D01*
X157227037Y-84913373D01*
X157278557Y-84743534D01*
X157278557Y-84743533D01*
X157362221Y-84587011D01*
X157362222Y-84587009D01*
X157391552Y-84551271D01*
X157474814Y-84449814D01*
X157576271Y-84366552D01*
X157612009Y-84337222D01*
X157629913Y-84327652D01*
X157768533Y-84253557D01*
X157825147Y-84236384D01*
X157938373Y-84202037D01*
X158004558Y-84195518D01*
X158070740Y-84189000D01*
X158159260Y-84189000D01*
X158225442Y-84195518D01*
X158225442Y-84195518D01*
G37*
G36*
X178071496Y-84434963D02*
X178145053Y-84442208D01*
X178286617Y-84485151D01*
X178417083Y-84554887D01*
X178531437Y-84648735D01*
X178625285Y-84763089D01*
X178695021Y-84893555D01*
X178737964Y-85035119D01*
X178752464Y-85182341D01*
X178737964Y-85329563D01*
X178695021Y-85471127D01*
X178625285Y-85601593D01*
X178531437Y-85715947D01*
X178417083Y-85809795D01*
X178286617Y-85879531D01*
X178145053Y-85922474D01*
X178071496Y-85929719D01*
X178034719Y-85933341D01*
X177960943Y-85933341D01*
X177924166Y-85929719D01*
X177850609Y-85922474D01*
X177709045Y-85879531D01*
X177578579Y-85809795D01*
X177464225Y-85715947D01*
X177370377Y-85601593D01*
X177300641Y-85471127D01*
X177257698Y-85329563D01*
X177243198Y-85182341D01*
X177257698Y-85035119D01*
X177300641Y-84893555D01*
X177370377Y-84763089D01*
X177464225Y-84648735D01*
X177578579Y-84554887D01*
X177709045Y-84485151D01*
X177850609Y-84442208D01*
X177924166Y-84434963D01*
X177960943Y-84431341D01*
X178034719Y-84431341D01*
X178071496Y-84434963D01*
X178071496Y-84434963D01*
G37*
G36*
X170451496Y-84434963D02*
X170525053Y-84442208D01*
X170666617Y-84485151D01*
X170797083Y-84554887D01*
X170911437Y-84648735D01*
X171005285Y-84763089D01*
X171075021Y-84893555D01*
X171117964Y-85035119D01*
X171132464Y-85182341D01*
X171117964Y-85329563D01*
X171075021Y-85471127D01*
X171005285Y-85601593D01*
X170911437Y-85715947D01*
X170797083Y-85809795D01*
X170666617Y-85879531D01*
X170525053Y-85922474D01*
X170451496Y-85929719D01*
X170414719Y-85933341D01*
X170340943Y-85933341D01*
X170304166Y-85929719D01*
X170230609Y-85922474D01*
X170089045Y-85879531D01*
X169958579Y-85809795D01*
X169844225Y-85715947D01*
X169750377Y-85601593D01*
X169680641Y-85471127D01*
X169637698Y-85329563D01*
X169623198Y-85182341D01*
X169637698Y-85035119D01*
X169680641Y-84893555D01*
X169750377Y-84763089D01*
X169844225Y-84648735D01*
X169958579Y-84554887D01*
X170089045Y-84485151D01*
X170230609Y-84442208D01*
X170304166Y-84434963D01*
X170340943Y-84431341D01*
X170414719Y-84431341D01*
X170451496Y-84434963D01*
X170451496Y-84434963D01*
G37*
G36*
X181881496Y-84434963D02*
X181955053Y-84442208D01*
X182096617Y-84485151D01*
X182227083Y-84554887D01*
X182341437Y-84648735D01*
X182435285Y-84763089D01*
X182505021Y-84893555D01*
X182547964Y-85035119D01*
X182562464Y-85182341D01*
X182547964Y-85329563D01*
X182505021Y-85471127D01*
X182435285Y-85601593D01*
X182341437Y-85715947D01*
X182227083Y-85809795D01*
X182096617Y-85879531D01*
X181955053Y-85922474D01*
X181881496Y-85929719D01*
X181844719Y-85933341D01*
X181770943Y-85933341D01*
X181734166Y-85929719D01*
X181660609Y-85922474D01*
X181519045Y-85879531D01*
X181388579Y-85809795D01*
X181274225Y-85715947D01*
X181180377Y-85601593D01*
X181110641Y-85471127D01*
X181067698Y-85329563D01*
X181053198Y-85182341D01*
X181067698Y-85035119D01*
X181110641Y-84893555D01*
X181180377Y-84763089D01*
X181274225Y-84648735D01*
X181388579Y-84554887D01*
X181519045Y-84485151D01*
X181660609Y-84442208D01*
X181734166Y-84434963D01*
X181770943Y-84431341D01*
X181844719Y-84431341D01*
X181881496Y-84434963D01*
X181881496Y-84434963D01*
G37*
G36*
X174261496Y-84434963D02*
X174335053Y-84442208D01*
X174476617Y-84485151D01*
X174607083Y-84554887D01*
X174721437Y-84648735D01*
X174815285Y-84763089D01*
X174885021Y-84893555D01*
X174927964Y-85035119D01*
X174942464Y-85182341D01*
X174927964Y-85329563D01*
X174885021Y-85471127D01*
X174815285Y-85601593D01*
X174721437Y-85715947D01*
X174607083Y-85809795D01*
X174476617Y-85879531D01*
X174335053Y-85922474D01*
X174261496Y-85929719D01*
X174224719Y-85933341D01*
X174150943Y-85933341D01*
X174114166Y-85929719D01*
X174040609Y-85922474D01*
X173899045Y-85879531D01*
X173768579Y-85809795D01*
X173654225Y-85715947D01*
X173560377Y-85601593D01*
X173490641Y-85471127D01*
X173447698Y-85329563D01*
X173433198Y-85182341D01*
X173447698Y-85035119D01*
X173490641Y-84893555D01*
X173560377Y-84763089D01*
X173654225Y-84648735D01*
X173768579Y-84554887D01*
X173899045Y-84485151D01*
X174040609Y-84442208D01*
X174114166Y-84434963D01*
X174150943Y-84431341D01*
X174224719Y-84431341D01*
X174261496Y-84434963D01*
X174261496Y-84434963D01*
G37*
G36*
X158225443Y-81655519D02*
X158291627Y-81662037D01*
X158404853Y-81696384D01*
X158461467Y-81713557D01*
X158600087Y-81787652D01*
X158617991Y-81797222D01*
X158653729Y-81826552D01*
X158755186Y-81909814D01*
X158838448Y-82011271D01*
X158867778Y-82047009D01*
X158867779Y-82047011D01*
X158951443Y-82203533D01*
X158951443Y-82203534D01*
X159002963Y-82373373D01*
X159020359Y-82550000D01*
X159002963Y-82726627D01*
X158968616Y-82839853D01*
X158951443Y-82896467D01*
X158877348Y-83035087D01*
X158867778Y-83052991D01*
X158838448Y-83088729D01*
X158755186Y-83190186D01*
X158653729Y-83273448D01*
X158617991Y-83302778D01*
X158617989Y-83302779D01*
X158461467Y-83386443D01*
X158404853Y-83403616D01*
X158291627Y-83437963D01*
X158225443Y-83444481D01*
X158159260Y-83451000D01*
X158070740Y-83451000D01*
X158004557Y-83444481D01*
X157938373Y-83437963D01*
X157825147Y-83403616D01*
X157768533Y-83386443D01*
X157612011Y-83302779D01*
X157612009Y-83302778D01*
X157576271Y-83273448D01*
X157474814Y-83190186D01*
X157391552Y-83088729D01*
X157362222Y-83052991D01*
X157352652Y-83035087D01*
X157278557Y-82896467D01*
X157261384Y-82839853D01*
X157227037Y-82726627D01*
X157209641Y-82550000D01*
X157227037Y-82373373D01*
X157278557Y-82203534D01*
X157278557Y-82203533D01*
X157362221Y-82047011D01*
X157362222Y-82047009D01*
X157391552Y-82011271D01*
X157474814Y-81909814D01*
X157576271Y-81826552D01*
X157612009Y-81797222D01*
X157629913Y-81787652D01*
X157768533Y-81713557D01*
X157825147Y-81696384D01*
X157938373Y-81662037D01*
X158004557Y-81655519D01*
X158070740Y-81649000D01*
X158159260Y-81649000D01*
X158225443Y-81655519D01*
X158225443Y-81655519D01*
G37*
G36*
X158225443Y-79115519D02*
X158291627Y-79122037D01*
X158404853Y-79156384D01*
X158461467Y-79173557D01*
X158600087Y-79247652D01*
X158617991Y-79257222D01*
X158653729Y-79286552D01*
X158755186Y-79369814D01*
X158838448Y-79471271D01*
X158867778Y-79507009D01*
X158867779Y-79507011D01*
X158951443Y-79663533D01*
X158962998Y-79701625D01*
X159002963Y-79833373D01*
X159020359Y-80010000D01*
X159002963Y-80186627D01*
X158995054Y-80212699D01*
X158951443Y-80356467D01*
X158916998Y-80420908D01*
X158867778Y-80512991D01*
X158838448Y-80548729D01*
X158755186Y-80650186D01*
X158653729Y-80733448D01*
X158617991Y-80762778D01*
X158617989Y-80762779D01*
X158461467Y-80846443D01*
X158404853Y-80863616D01*
X158291627Y-80897963D01*
X158225442Y-80904482D01*
X158159260Y-80911000D01*
X158070740Y-80911000D01*
X158004558Y-80904482D01*
X157938373Y-80897963D01*
X157825147Y-80863616D01*
X157768533Y-80846443D01*
X157612011Y-80762779D01*
X157612009Y-80762778D01*
X157576271Y-80733448D01*
X157474814Y-80650186D01*
X157391552Y-80548729D01*
X157362222Y-80512991D01*
X157313002Y-80420908D01*
X157278557Y-80356467D01*
X157234946Y-80212699D01*
X157227037Y-80186627D01*
X157209641Y-80010000D01*
X157227037Y-79833373D01*
X157267002Y-79701625D01*
X157278557Y-79663533D01*
X157362221Y-79507011D01*
X157362222Y-79507009D01*
X157391552Y-79471271D01*
X157474814Y-79369814D01*
X157576271Y-79286552D01*
X157612009Y-79257222D01*
X157629913Y-79247652D01*
X157768533Y-79173557D01*
X157825147Y-79156384D01*
X157938373Y-79122037D01*
X158004557Y-79115519D01*
X158070740Y-79109000D01*
X158159260Y-79109000D01*
X158225443Y-79115519D01*
X158225443Y-79115519D01*
G37*
G36*
X146266627Y-78337037D02*
X146378588Y-78371000D01*
X146436467Y-78388557D01*
X146575087Y-78462652D01*
X146592991Y-78472222D01*
X146628729Y-78501552D01*
X146730186Y-78584814D01*
X146813448Y-78686271D01*
X146842778Y-78722009D01*
X146926443Y-78878534D01*
X146977963Y-79048374D01*
X146991000Y-79180743D01*
X146991000Y-79569258D01*
X146977963Y-79701627D01*
X146943616Y-79814853D01*
X146926443Y-79871467D01*
X146852394Y-80010000D01*
X146842778Y-80027991D01*
X146813448Y-80063729D01*
X146730186Y-80165186D01*
X146592989Y-80277779D01*
X146436466Y-80361443D01*
X146395733Y-80373799D01*
X146266626Y-80412963D01*
X146090000Y-80430359D01*
X145913373Y-80412963D01*
X145784266Y-80373799D01*
X145743533Y-80361443D01*
X145587011Y-80277779D01*
X145587009Y-80277778D01*
X145544749Y-80243096D01*
X145449814Y-80165186D01*
X145337221Y-80027989D01*
X145253557Y-79871466D01*
X145236384Y-79814852D01*
X145202037Y-79701626D01*
X145189000Y-79569257D01*
X145189000Y-79180742D01*
X145189708Y-79173557D01*
X145202037Y-79048375D01*
X145202037Y-79048373D01*
X145253557Y-78878534D01*
X145253557Y-78878533D01*
X145337222Y-78722008D01*
X145449812Y-78584817D01*
X145544750Y-78506904D01*
X145587010Y-78472222D01*
X145604914Y-78462652D01*
X145743534Y-78388557D01*
X145801413Y-78371000D01*
X145913374Y-78337037D01*
X146090000Y-78319641D01*
X146266627Y-78337037D01*
X146266627Y-78337037D01*
G37*
G36*
X149348600Y-78327989D02*
X149381649Y-78338014D01*
X149412106Y-78354294D01*
X149438799Y-78376201D01*
X149460706Y-78402894D01*
X149476986Y-78433351D01*
X149487011Y-78466400D01*
X149491000Y-78506904D01*
X149491000Y-80243096D01*
X149487011Y-80283600D01*
X149476986Y-80316649D01*
X149460706Y-80347106D01*
X149438799Y-80373799D01*
X149412106Y-80395706D01*
X149381649Y-80411986D01*
X149348600Y-80422011D01*
X149308096Y-80426000D01*
X147871904Y-80426000D01*
X147831400Y-80422011D01*
X147798351Y-80411986D01*
X147767894Y-80395706D01*
X147741201Y-80373799D01*
X147719294Y-80347106D01*
X147703014Y-80316649D01*
X147692989Y-80283600D01*
X147689000Y-80243096D01*
X147689000Y-78506904D01*
X147692989Y-78466400D01*
X147703014Y-78433351D01*
X147719294Y-78402894D01*
X147741201Y-78376201D01*
X147767894Y-78354294D01*
X147798351Y-78338014D01*
X147831400Y-78327989D01*
X147871904Y-78324000D01*
X149308096Y-78324000D01*
X149348600Y-78327989D01*
X149348600Y-78327989D01*
G37*
G36*
X159016000Y-78371000D02*
X157214000Y-78371000D01*
X157214000Y-76569000D01*
X159016000Y-76569000D01*
X159016000Y-78371000D01*
X159016000Y-78371000D01*
G37*
G36*
X178129835Y-76822885D02*
X178216890Y-76840201D01*
X178353563Y-76896813D01*
X178353564Y-76896814D01*
X178476569Y-76979003D01*
X178581169Y-77083603D01*
X178581171Y-77083606D01*
X178663359Y-77206609D01*
X178719971Y-77343282D01*
X178748831Y-77488374D01*
X178748831Y-77636308D01*
X178719971Y-77781400D01*
X178663359Y-77918073D01*
X178663358Y-77918074D01*
X178581169Y-78041079D01*
X178476569Y-78145679D01*
X178476566Y-78145681D01*
X178353563Y-78227869D01*
X178216890Y-78284481D01*
X178129835Y-78301797D01*
X178071800Y-78313341D01*
X177923862Y-78313341D01*
X177865827Y-78301797D01*
X177778772Y-78284481D01*
X177642099Y-78227869D01*
X177519096Y-78145681D01*
X177519093Y-78145679D01*
X177414493Y-78041079D01*
X177332304Y-77918074D01*
X177332303Y-77918073D01*
X177275691Y-77781400D01*
X177246831Y-77636308D01*
X177246831Y-77488374D01*
X177275691Y-77343282D01*
X177332303Y-77206609D01*
X177414491Y-77083606D01*
X177414493Y-77083603D01*
X177519093Y-76979003D01*
X177642098Y-76896814D01*
X177642099Y-76896813D01*
X177778772Y-76840201D01*
X177865827Y-76822885D01*
X177923862Y-76811341D01*
X178071800Y-76811341D01*
X178129835Y-76822885D01*
X178129835Y-76822885D01*
G37*
G36*
X174319835Y-76822885D02*
X174406890Y-76840201D01*
X174543563Y-76896813D01*
X174543564Y-76896814D01*
X174666569Y-76979003D01*
X174771169Y-77083603D01*
X174771171Y-77083606D01*
X174853359Y-77206609D01*
X174909971Y-77343282D01*
X174938831Y-77488374D01*
X174938831Y-77636308D01*
X174909971Y-77781400D01*
X174853359Y-77918073D01*
X174853358Y-77918074D01*
X174771169Y-78041079D01*
X174666569Y-78145679D01*
X174666566Y-78145681D01*
X174543563Y-78227869D01*
X174406890Y-78284481D01*
X174319835Y-78301797D01*
X174261800Y-78313341D01*
X174113862Y-78313341D01*
X174055827Y-78301797D01*
X173968772Y-78284481D01*
X173832099Y-78227869D01*
X173709096Y-78145681D01*
X173709093Y-78145679D01*
X173604493Y-78041079D01*
X173522304Y-77918074D01*
X173522303Y-77918073D01*
X173465691Y-77781400D01*
X173436831Y-77636308D01*
X173436831Y-77488374D01*
X173465691Y-77343282D01*
X173522303Y-77206609D01*
X173604491Y-77083606D01*
X173604493Y-77083603D01*
X173709093Y-76979003D01*
X173832098Y-76896814D01*
X173832099Y-76896813D01*
X173968772Y-76840201D01*
X174055827Y-76822885D01*
X174113862Y-76811341D01*
X174261800Y-76811341D01*
X174319835Y-76822885D01*
X174319835Y-76822885D01*
G37*
G36*
X170509835Y-76822885D02*
X170596890Y-76840201D01*
X170733563Y-76896813D01*
X170733564Y-76896814D01*
X170856569Y-76979003D01*
X170961169Y-77083603D01*
X170961171Y-77083606D01*
X171043359Y-77206609D01*
X171099971Y-77343282D01*
X171128831Y-77488374D01*
X171128831Y-77636308D01*
X171099971Y-77781400D01*
X171043359Y-77918073D01*
X171043358Y-77918074D01*
X170961169Y-78041079D01*
X170856569Y-78145679D01*
X170856566Y-78145681D01*
X170733563Y-78227869D01*
X170596890Y-78284481D01*
X170509835Y-78301797D01*
X170451800Y-78313341D01*
X170303862Y-78313341D01*
X170245827Y-78301797D01*
X170158772Y-78284481D01*
X170022099Y-78227869D01*
X169899096Y-78145681D01*
X169899093Y-78145679D01*
X169794493Y-78041079D01*
X169712304Y-77918074D01*
X169712303Y-77918073D01*
X169655691Y-77781400D01*
X169626831Y-77636308D01*
X169626831Y-77488374D01*
X169655691Y-77343282D01*
X169712303Y-77206609D01*
X169794491Y-77083606D01*
X169794493Y-77083603D01*
X169899093Y-76979003D01*
X170022098Y-76896814D01*
X170022099Y-76896813D01*
X170158772Y-76840201D01*
X170245827Y-76822885D01*
X170303862Y-76811341D01*
X170451800Y-76811341D01*
X170509835Y-76822885D01*
X170509835Y-76822885D01*
G37*
G36*
X181939835Y-76822885D02*
X182026890Y-76840201D01*
X182163563Y-76896813D01*
X182163564Y-76896814D01*
X182286569Y-76979003D01*
X182391169Y-77083603D01*
X182391171Y-77083606D01*
X182473359Y-77206609D01*
X182529971Y-77343282D01*
X182558831Y-77488374D01*
X182558831Y-77636308D01*
X182529971Y-77781400D01*
X182473359Y-77918073D01*
X182473358Y-77918074D01*
X182391169Y-78041079D01*
X182286569Y-78145679D01*
X182286566Y-78145681D01*
X182163563Y-78227869D01*
X182026890Y-78284481D01*
X181939835Y-78301797D01*
X181881800Y-78313341D01*
X181733862Y-78313341D01*
X181675827Y-78301797D01*
X181588772Y-78284481D01*
X181452099Y-78227869D01*
X181329096Y-78145681D01*
X181329093Y-78145679D01*
X181224493Y-78041079D01*
X181142304Y-77918074D01*
X181142303Y-77918073D01*
X181085691Y-77781400D01*
X181056831Y-77636308D01*
X181056831Y-77488374D01*
X181085691Y-77343282D01*
X181142303Y-77206609D01*
X181224491Y-77083606D01*
X181224493Y-77083603D01*
X181329093Y-76979003D01*
X181452098Y-76896814D01*
X181452099Y-76896813D01*
X181588772Y-76840201D01*
X181675827Y-76822885D01*
X181733862Y-76811341D01*
X181881800Y-76811341D01*
X181939835Y-76822885D01*
X181939835Y-76822885D01*
G37*
M02*
